<svg width="351" height="352" viewBox="0 0 351 352" fill="none" xmlns="http://www.w3.org/2000/svg">
<path d="M0.530775 351.5H0.5V0.5H350.5V0.545079V0.619623V0.698868V0.782802V0.871412V0.964684V1.06261V1.16516V1.27235V1.38414V1.50053V1.6215V1.74705V1.87715V2.0118V2.15099V2.29469V2.44289V2.59559V2.75278V2.91442V3.08053V3.25107V3.42604V3.60542V3.78921V3.97739V4.16994V4.36686V4.56812V4.77372V4.98365V5.19789V5.41642V5.63924V5.86633V6.09768V6.33327V6.5731V6.81714V7.0654V7.31784V7.57447V7.83526V8.10021V8.3693V8.64252V8.91985V9.20128V9.4868V9.7764V10.0701V10.3678V10.6695V10.9753V11.2851V11.5989V11.9166V12.2384V12.5641V12.8937V13.2273V13.5648V13.9062V14.2515V14.6007V14.9537V15.3106V15.6713V16.0359V16.4043V16.7765V17.1524V17.5322V17.9157V18.303V18.694V19.0887V19.4871V19.8893V20.2951V20.7046V21.1177V21.5345V21.9549V22.379V22.8067V23.2379V23.6727V24.1111V24.5531V24.9986V25.4476V25.9001V26.3562V26.8157V27.2787V27.7452V28.2151V28.6884V29.1652V29.6454V30.129V30.616V31.1063V31.6V32.0971V32.5975V33.1012V33.6082V34.1185V34.6321V35.1489V35.669V36.1924V36.719V37.2488V37.7818V38.318V38.8573V39.3999V39.9455V40.4943V41.0463V41.6013V42.1595V42.7207V43.285V43.8524V44.4228V44.9963V45.5727V46.1522V46.7347V47.3201V47.9085V48.4999V49.0942V49.6915V50.2916V50.8947V51.5006V52.1095V52.7211V53.3357V53.9531V54.5733V55.1963V55.8221V56.4507V57.0821V57.7162V58.3531V58.9927V59.635V60.2801V60.9278V61.5782V62.2313V62.887V63.5454V64.2064V64.87V65.5363V66.2051V66.8765V67.5504V68.2269V68.906V69.5876V70.2716V70.9582V71.6473V72.3388V73.0328V73.7293V74.4282V75.1295V75.8332V76.5393V77.2478V77.9586V78.6718V79.3874V80.1052V80.8254V81.5479V82.2727V82.9998V83.7291V84.4607V85.1945V85.9306V86.6688V87.4093V88.1519V88.8967V89.6437V90.3928V91.1441V91.8974V92.6529V93.4105V94.1702V94.9319V95.6957V96.4615V97.2293V97.9992V98.7711V99.545V100.321V101.099V101.878V102.66V103.444V104.229V105.017V105.806V106.597V107.39V108.185V108.982V109.78V110.581V111.383V112.187V112.993V113.8V114.609V115.42V116.233V117.047V117.863V118.681V119.5V120.321V121.144V121.968V122.794V123.622V124.451V125.281V126.114V126.947V127.783V128.62V129.458V130.298V131.139V131.982V132.826V133.672V134.519V135.367V136.217V137.069V137.921V138.775V139.631V140.488V141.346V142.205V143.066V143.928V144.791V145.656V146.521V147.388V148.257V149.126V149.997V150.868V151.741V152.616V153.491V154.367V155.245V156.123V157.003V157.884V158.766V159.649V160.533V161.418V162.304V163.19V164.078V164.967V165.857V166.748V167.64V168.533V169.426V170.321V171.216V172.112V173.01V173.908V174.806V175.706V176.606V177.508V178.41V179.312V180.216V181.12V182.025V182.931V183.837V184.744V185.652V186.56V187.469V188.379V189.289V190.2V191.112V192.024V192.936V193.85V194.763V195.678V196.592V197.508V198.424V199.34V200.257V201.174V202.091V203.009V203.928V204.847V205.766V206.686V207.606V208.526V209.447V210.368V211.289V212.211V213.133V214.055V214.977V215.9V216.823V217.746V218.669V219.593V220.516V221.44V222.364V223.288V224.212V225.137V226.061V226.986V227.91V228.835V229.76V230.685V231.61V232.534V233.459V234.384V235.309V236.233V237.158V238.083V239.007V239.932V240.856V241.78V242.704V243.628V244.552V245.475V246.399V247.322V248.245V249.168V250.09V251.012V251.934V252.856V253.777V254.699V255.619V256.54V257.46V258.38V259.299V260.218V261.137V262.055V262.973V263.89V264.807V265.723V266.639V267.555V268.47V269.384V270.298V271.212V272.125V273.037V273.949V274.86V275.77V276.68V277.589V278.498V279.406V280.313V281.22V282.126V283.031V283.936V284.839V285.742V286.645V287.546V288.447V289.347V290.246V291.144V292.041V292.938V293.834V294.729V295.622V296.516V297.408V298.299V299.189V300.078V300.967V301.854V302.74V303.626V304.51V305.393V306.276V307.157V308.037V308.916V309.794V310.671V311.546V312.421V313.294V314.166V315.037V315.907V316.776V317.643V318.51V319.375V320.238V321.101V321.962V322.822V323.68V324.538V325.393V326.248V327.101V327.953V328.803V329.652V330.5V331.346V332.191V333.034V333.876V334.717V335.555V336.393V337.229V338.063V338.896V339.727V340.557V341.385V342.211V343.036V343.859V344.681V345.501V346.319V347.136V347.951V348.764V349.576V350.386V351.194V351.5H350.481H350.218H349.954H349.687H349.419H349.149H348.877H348.604H348.328H348.051H347.771H347.49H347.207H346.923H346.636H346.348H346.058H345.766H345.472H345.177H344.88H344.581H344.28H343.978H343.674H343.368H343.06H342.751H342.44H342.127H341.812H341.496H341.178H340.859H340.537H340.215H339.89H339.564H339.236H338.906H338.575H338.242H337.908H337.572H337.234H336.895H336.554H336.212H335.867H335.522H335.175H334.826H334.475H334.124H333.77H333.415H333.059H332.7H332.341H331.98H331.617H331.253H330.887H330.52H330.151H329.781H329.41H329.037H328.662H328.286H327.909H327.53H327.15H326.768H326.385H326H325.614H325.227H324.838H324.448H324.056H323.663H323.269H322.873H322.476H322.078H321.678H321.277H320.874H320.471H320.066H319.659H319.251H318.842H318.432H318.02H317.607H317.193H316.778H316.361H315.943H315.524H315.103H314.682H314.259H313.834H313.409H312.982H312.555H312.126H311.695H311.264H310.831H310.397H309.962H309.526H309.089H308.651H308.211H307.77H307.328H306.885H306.441H305.996H305.55H305.102H304.654H304.204H303.753H303.301H302.849H302.395H301.94H301.484H301.027H300.568H300.109H299.649H299.188H298.726H298.262H297.798H297.333H296.867H296.4H295.931H295.462H294.992H294.521H294.049H293.576H293.102H292.627H292.152H291.675H291.197H290.719H290.24H289.759H289.278H288.796H288.313H287.829H287.345H286.859H286.373H285.886H285.398H284.909H284.419H283.928H283.437H282.945H282.452H281.958H281.464H280.969H280.472H279.976H279.478H278.98H278.481H277.981H277.48H276.979H276.477H275.974H275.471H274.966H274.462H273.956H273.45H272.943H272.435H271.927H271.418H270.909H270.398H269.888H269.376H268.864H268.351H267.838H267.324H266.809H266.294H265.778H265.262H264.745H264.228H263.71H263.191H262.672H262.152H261.632H261.111H260.59H260.068H259.545H259.023H258.499H257.975H257.451H256.926H256.401H255.875H255.349H254.822H254.295H253.767H253.239H252.711H252.182H251.653H251.123H250.593H250.062H249.531H249H248.468H247.936H247.404H246.871H246.338H245.804H245.271H244.736H244.202H243.667H243.132H242.596H242.061H241.524H240.988H240.451H239.914H239.377H238.84H238.302H237.764H237.226H236.687H236.148H235.609H235.07H234.531H233.991H233.451H232.911H232.371H231.831H231.29H230.749H230.209H229.667H229.126H228.585H228.043H227.502H226.96H226.418H225.876H225.334H224.791H224.249H223.707H223.164H222.622H222.079H221.536H220.993H220.451H219.908H219.365H218.822H218.279H217.736H217.193H216.65H216.107H215.564H215.02H214.477H213.934H213.392H212.849H212.306H211.763H211.22H210.677H210.135H209.592H209.05H208.507H207.965H207.423H206.88H206.338H205.797H205.255H204.713H204.172H203.63H203.089H202.548H202.007H201.466H200.926H200.385H199.845H199.305H198.765H198.226H197.686H197.147H196.608H196.07H195.531H194.993H194.455H193.917H193.38H192.843H192.306H191.769H191.233H190.697H190.161H189.626H189.09H188.556H188.021H187.487H186.953H186.42H185.887H185.354H184.821H184.289H183.758H183.227H182.696H182.165H181.635H181.105H180.576H180.047H179.519H178.991H178.463H177.936H177.41H176.884H176.358H175.833H175.308H174.784H174.26H173.736H173.214H172.691H172.17H171.648H171.128H170.608H170.088H169.569H169.05H168.532H168.015H167.498H166.982H166.466H165.951H165.437H164.923H164.409H163.897H163.385H162.873H162.363H161.852H161.343H160.834H160.326H159.819H159.312H158.806H158.3H157.795H157.291H156.788H156.285H155.783H155.282H154.782H154.282H153.783H153.285H152.787H152.291H151.795H151.299H150.805H150.311H149.819H149.327H148.835H148.345H147.855H147.367H146.879H146.392H145.905H145.42H144.935H144.452H143.969H143.487H143.006H142.526H142.047H141.568H141.091H140.614H140.139H139.664H139.19H138.717H138.245H137.775H137.305H136.836H136.368H135.901H135.434H134.969H134.505H134.042H133.58H133.119H132.659H132.2H131.742H131.285H130.829H130.374H129.921H129.468H129.016H128.566H128.116H127.668H127.221H126.774H126.329H125.885H125.443H125.001H124.56H124.121H123.683H123.245H122.809H122.375H121.941H121.509H121.077H120.647H120.218H119.791H119.364H118.939H118.515H118.092H117.671H117.25H116.831H116.413H115.997H115.582H115.168H114.755H114.343H113.933H113.525H113.117H112.711H112.306H111.902H111.5H111.099H110.698H110.298H109.898H109.499H109.101H108.703H108.306H107.91H107.514H107.118H106.723H106.329H105.936H105.543H105.15H104.758H104.367H103.976H103.586H103.197H102.808H102.42H102.032H101.645H101.259H100.873H100.488H100.103H99.7194H99.336H98.9532H98.5711H98.1896H97.8086H97.4283H97.0486H96.6695H96.2911H95.9132H95.536H95.1593H94.7833H94.408H94.0332H93.659H93.2855H92.9126H92.5403H92.1687H91.7976H91.4272H91.0574H90.6883H90.3198H89.9519H89.5846H89.2179H88.8519H88.4866H88.1218H87.7577H87.3942H87.0314H86.6692H86.3076H85.9466H85.5863H85.2267H84.8676H84.5093H84.1515H83.7944H83.438H83.0821H82.727H82.3724H82.0185H81.6653H81.3127H80.9608H80.6095H80.2588H79.9088H79.5595H79.2108H78.8627H78.5153H78.1686H77.8225H77.4771H77.1323H76.7882H76.4447H76.102H75.7598H75.4183H75.0775H74.7374H74.3979H74.059H73.7209H73.3834H73.0465H72.7104H72.3748H72.04H71.7058H71.3723H71.0395H70.7074H70.3759H70.0451H69.7149H69.3855H69.0567H68.7285H68.4011H68.0743H67.7483H67.4229H67.0981H66.7741H66.4507H66.128H65.806H65.4847H65.1641H64.8441H64.5249H64.2063H63.8884H63.5712H63.2547H62.9389H62.6237H62.3093H61.9955H61.6825H61.3701H61.0584H60.7475H60.4372H60.1276H59.8187H59.5105H59.203H58.8962H58.5901H58.2848H57.9801H57.6761H57.3728H57.0702H56.7684H56.4672H56.1667H55.867H55.5679H55.2696H54.972H54.6751H54.3789H54.0834H53.7886H53.4945H53.2012H52.9086H52.6166H52.3254H52.0349H51.7452H51.4561H51.1678H50.8802H50.5933H50.3072H50.0217H49.737H49.453H49.1697H48.8872H48.6054H48.3243H48.0439H47.7643H47.4854H47.2072H46.9298H46.6531H46.3771H46.1019H45.8274H45.5536H45.2806H45.0083H44.7367H44.4659H44.1958H43.9265H43.6579H43.3901H43.1229H42.8566H42.5909H42.3261H42.0619H41.7985H41.5359H41.274H41.0128H40.7524H40.4928H40.2339H39.9758H39.7184H39.4617H39.2058H38.9507H38.6963H38.4427H38.1899H37.9378H37.6864H37.4358H37.186H36.9369H36.6886H36.4411H36.1943H35.9483H35.7031H35.4586H35.2149H34.9719H34.7297H34.4883H34.2477H34.0078H33.7687H33.5304H33.2928H33.056H32.82H32.5848H32.3503H32.1167H31.8838H31.6516H31.4203H31.1897H30.9599H30.7309H30.5027H30.2753H30.0486H29.8227H29.5977H29.3734H29.1498H28.9271H28.7052H28.484H28.2637H28.0441H27.8253H27.6073H27.3901H27.1737H26.9581H26.7433H26.5293H26.3161H26.1037H25.8921H25.6812H25.4712H25.262H25.0536H24.846H24.6391H24.4331H24.2279H24.0235H23.8199H23.6171H23.4152H23.214H23.0136H22.8141H22.6153H22.4174H22.2203H22.024H21.8285H21.6338H21.44H21.2469H21.0547H20.8633H20.6727H20.4829H20.294H20.1058H19.9185H19.732H19.5464H19.3615H19.1775H18.9943H18.812H18.6304H18.4497H18.2698H18.0908H17.9126H17.7352H17.5586H17.3829H17.208H17.034H16.8607H16.6883H16.5168H16.3461H16.1762H16.0072H15.839H15.6716H15.5051H15.3394H15.1746H15.0106H14.8475H14.6852H14.5237H14.3631H14.2034H14.0444H13.8864H13.7292H13.5728H13.4173H13.2626H13.1088H12.9559H12.8038H12.6525H12.5022H12.3526H12.204H12.0561H11.9092H11.7631H11.6179H11.4735H11.33H11.1873H11.0455H10.9046H10.7646H10.6254H10.487H10.3496H10.213H10.0773H9.94244H9.80846H9.67535H9.54312H9.41176H9.28127H9.15166H9.02292H8.89506H8.76807H8.64197H8.51674H8.39239H8.26892H8.14633H8.02462H7.9038H7.78386H7.6648H7.54663H7.42934H7.31294H7.19742H7.08279H6.96905H6.85621H6.74425H6.63318H6.523H6.41372H6.30533H6.19783H6.09123H5.98552H5.88071H5.77679H5.67378H5.57166H5.47044H5.37012H5.27071H5.17219H5.07458H4.97787H4.88207H4.78717H4.69317H4.60008H4.5079H4.41663H4.32626H4.23681H4.14826H4.06063H3.97391H3.8881H3.8032H3.71922H3.63615H3.554H3.47277H3.39245H3.31305H3.23457H3.15701H3.08037H3.00465H2.92985H2.85598H2.78303H2.711H2.6399H2.56972H2.50047H2.43215H2.36476H2.29829H2.23276H2.16815H2.10448H2.04174H1.97993H1.91905H1.85911H1.80011H1.74204H1.6849H1.62871H1.57345H1.51913H1.46575H1.41332H1.36182H1.31127H1.26165H1.21299H1.16526H1.11848H1.07265H1.02777H0.983831H0.940841H0.898801H0.857711H0.817572H0.778384H0.740148H0.702866H0.666537H0.631163H0.596744H0.563281H0.530775Z" fill="#272727" stroke="#FCD54C"/>
</svg>
