<svg width="611" height="121" viewBox="0 0 611 121" fill="none" xmlns="http://www.w3.org/2000/svg">
<path d="M48.1009 120.68C35.4609 120.68 25.0209 116.48 16.7809 108.08C8.54094 99.68 4.42094 89.32 4.42094 77C4.42094 64.6 8.54094 54.24 16.7809 45.92C25.0209 37.52 35.4609 33.32 48.1009 33.32C55.7009 33.32 62.7009 35.12 69.1009 38.72C75.5809 42.24 80.6209 47.04 84.2209 53.12L69.9409 61.4C67.8609 57.64 64.9009 54.72 61.0609 52.64C57.2209 50.48 52.9009 49.4 48.1009 49.4C39.9409 49.4 33.3409 51.96 28.3009 57.08C23.3409 62.2 20.8609 68.84 20.8609 77C20.8609 85.08 23.3409 91.68 28.3009 96.8C33.3409 101.92 39.9409 104.48 48.1009 104.48C52.9009 104.48 57.2209 103.44 61.0609 101.36C64.9809 99.2 67.9409 96.28 69.9409 92.6L84.2209 100.88C80.6209 106.96 75.6209 111.8 69.2209 115.4C62.8209 118.92 55.7809 120.68 48.1009 120.68ZM145.145 111.56C138.985 117.64 131.465 120.68 122.585 120.68C113.705 120.68 106.185 117.64 100.025 111.56C93.9453 105.4 90.9053 97.88 90.9053 89C90.9053 80.12 93.9453 72.64 100.025 66.56C106.185 60.4 113.705 57.32 122.585 57.32C131.465 57.32 138.985 60.4 145.145 66.56C151.305 72.64 154.385 80.12 154.385 89C154.385 97.88 151.305 105.4 145.145 111.56ZM110.945 100.88C114.065 104 117.945 105.56 122.585 105.56C127.225 105.56 131.105 104 134.225 100.88C137.345 97.76 138.905 93.8 138.905 89C138.905 84.2 137.345 80.24 134.225 77.12C131.105 74 127.225 72.44 122.585 72.44C117.945 72.44 114.065 74 110.945 77.12C107.905 80.24 106.385 84.2 106.385 89C106.385 93.8 107.905 97.76 110.945 100.88ZM198.635 57.32C205.195 57.32 210.595 59.52 214.835 63.92C219.155 68.32 221.315 74.4 221.315 82.16V119H205.835V84.08C205.835 80.08 204.755 77.04 202.595 74.96C200.435 72.8 197.555 71.72 193.955 71.72C189.955 71.72 186.755 72.96 184.355 75.44C181.955 77.92 180.755 81.64 180.755 86.6V119H165.275V59H180.755V65.72C184.515 60.12 190.475 57.32 198.635 57.32ZM268.853 73.88H255.293V98.84C255.293 100.92 255.813 102.44 256.853 103.4C257.893 104.36 259.413 104.92 261.413 105.08C263.413 105.16 265.893 105.12 268.853 104.96V119C258.213 120.2 250.693 119.2 246.293 116C241.973 112.8 239.813 107.08 239.813 98.84V73.88H229.373V59H239.813V46.88L255.293 42.2V59H268.853V73.88ZM323.493 59H338.973V119H323.493V111.92C318.853 117.76 312.333 120.68 303.933 120.68C295.933 120.68 289.053 117.64 283.293 111.56C277.613 105.4 274.772 97.88 274.772 89C274.772 80.12 277.613 72.64 283.293 66.56C289.053 60.4 295.933 57.32 303.933 57.32C312.333 57.32 318.853 60.24 323.493 66.08V59ZM294.933 101.24C298.053 104.36 302.013 105.92 306.813 105.92C311.613 105.92 315.573 104.36 318.693 101.24C321.893 98.04 323.493 93.96 323.493 89C323.493 84.04 321.893 80 318.693 76.88C315.573 73.68 311.613 72.08 306.813 72.08C302.013 72.08 298.053 73.68 294.933 76.88C291.813 80 290.253 84.04 290.253 89C290.253 93.96 291.813 98.04 294.933 101.24ZM381.57 120.68C372.53 120.68 364.97 117.64 358.89 111.56C352.89 105.48 349.89 97.96 349.89 89C349.89 80.04 352.89 72.52 358.89 66.44C364.97 60.36 372.53 57.32 381.57 57.32C387.41 57.32 392.73 58.72 397.53 61.52C402.33 64.32 405.97 68.08 408.45 72.8L395.13 80.6C393.93 78.12 392.09 76.16 389.61 74.72C387.21 73.28 384.49 72.56 381.45 72.56C376.81 72.56 372.97 74.12 369.93 77.24C366.89 80.28 365.37 84.2 365.37 89C365.37 93.72 366.89 97.64 369.93 100.76C372.97 103.8 376.81 105.32 381.45 105.32C384.57 105.32 387.33 104.64 389.73 103.28C392.21 101.84 394.05 99.88 395.25 97.4L408.69 105.08C406.05 109.8 402.33 113.6 397.53 116.48C392.73 119.28 387.41 120.68 381.57 120.68ZM451.197 73.88H437.637V98.84C437.637 100.92 438.157 102.44 439.197 103.4C440.237 104.36 441.757 104.92 443.757 105.08C445.757 105.16 448.237 105.12 451.197 104.96V119C440.557 120.2 433.037 119.2 428.637 116C424.317 112.8 422.157 107.08 422.157 98.84V73.88H411.717V59H422.157V46.88L437.637 42.2V59H451.197V73.88ZM532.649 59H548.129V119H532.649V112.28C528.889 117.88 522.929 120.68 514.769 120.68C508.209 120.68 502.769 118.48 498.449 114.08C494.209 109.68 492.089 103.6 492.089 95.84V59H507.569V93.92C507.569 97.92 508.649 101 510.809 103.16C512.969 105.24 515.849 106.28 519.449 106.28C523.449 106.28 526.649 105.04 529.049 102.56C531.449 100.08 532.649 96.36 532.649 91.4V59ZM576.118 76.04C576.118 77.64 577.158 78.96 579.238 80C581.398 80.96 583.998 81.84 587.038 82.64C590.078 83.36 593.118 84.32 596.158 85.52C599.198 86.64 601.758 88.56 603.838 91.28C605.998 94 607.078 97.4 607.078 101.48C607.078 107.64 604.758 112.4 600.118 115.76C595.558 119.04 589.838 120.68 582.958 120.68C570.638 120.68 562.238 115.92 557.758 106.4L571.198 98.84C572.958 104.04 576.878 106.64 582.958 106.64C588.478 106.64 591.238 104.92 591.238 101.48C591.238 99.88 590.158 98.6 587.998 97.64C585.918 96.6 583.358 95.68 580.318 94.88C577.278 94.08 574.238 93.08 571.198 91.88C568.158 90.68 565.558 88.8 563.398 86.24C561.318 83.6 560.278 80.32 560.278 76.4C560.278 70.48 562.438 65.84 566.758 62.48C571.158 59.04 576.598 57.32 583.078 57.32C587.958 57.32 592.398 58.44 596.398 60.68C600.398 62.84 603.558 65.96 605.878 70.04L592.678 77.24C590.758 73.16 587.558 71.12 583.078 71.12C581.078 71.12 579.398 71.56 578.038 72.44C576.758 73.32 576.118 74.52 576.118 76.04Z" fill="#272727"/>
<path d="M188.32 9.12C190.18 9.12 191.62 9.636 192.64 10.668C193.66 11.688 194.17 13.152 194.17 15.06C194.17 16.956 193.66 18.42 192.64 19.452C191.62 20.484 190.18 21 188.32 21H183.73V9.12H188.32ZM188.194 19.02C189.322 19.02 190.168 18.684 190.732 18.012C191.308 17.328 191.596 16.344 191.596 15.06C191.596 13.776 191.308 12.798 190.732 12.126C190.168 11.442 189.322 11.1 188.194 11.1H186.214V19.02H188.194ZM200.519 11.82C201.431 11.82 202.229 12.006 202.913 12.378C203.609 12.75 204.149 13.284 204.533 13.98C204.929 14.676 205.127 15.516 205.127 16.5C205.127 17.472 204.929 18.312 204.533 19.02C204.149 19.716 203.609 20.25 202.913 20.622C202.229 20.994 201.431 21.18 200.519 21.18C199.619 21.18 198.821 20.994 198.125 20.622C197.429 20.25 196.883 19.716 196.487 19.02C196.103 18.312 195.911 17.472 195.911 16.5C195.911 15.516 196.103 14.676 196.487 13.98C196.883 13.284 197.429 12.75 198.125 12.378C198.821 12.006 199.619 11.82 200.519 11.82ZM200.519 13.656C200.063 13.656 199.673 13.764 199.349 13.98C199.037 14.184 198.797 14.496 198.629 14.916C198.461 15.336 198.377 15.864 198.377 16.5C198.377 17.136 198.461 17.664 198.629 18.084C198.797 18.504 199.037 18.822 199.349 19.038C199.673 19.242 200.063 19.344 200.519 19.344C200.963 19.344 201.341 19.242 201.653 19.038C201.977 18.822 202.223 18.504 202.391 18.084C202.559 17.664 202.643 17.136 202.643 16.5C202.643 15.864 202.559 15.336 202.391 14.916C202.223 14.496 201.977 14.184 201.653 13.98C201.341 13.764 200.963 13.656 200.519 13.656ZM220.871 12L217.235 21.558C216.947 22.374 216.623 23.022 216.263 23.502C215.915 23.982 215.507 24.33 215.039 24.546C214.583 24.762 214.037 24.87 213.401 24.87C212.933 24.87 212.501 24.81 212.105 24.69C211.721 24.582 211.385 24.438 211.097 24.258L211.619 22.476C211.847 22.656 212.087 22.782 212.339 22.854C212.591 22.938 212.879 22.98 213.203 22.98C213.539 22.98 213.827 22.908 214.067 22.764C214.319 22.62 214.529 22.332 214.697 21.9L215.003 21.126L214.013 18.786L211.259 12H213.995L215.705 17.4L216.173 19.2L216.731 17.292L218.369 12H220.871ZM226.236 11.82C227.148 11.82 227.946 12.006 228.63 12.378C229.326 12.75 229.866 13.284 230.25 13.98C230.646 14.676 230.844 15.516 230.844 16.5C230.844 17.472 230.646 18.312 230.25 19.02C229.866 19.716 229.326 20.25 228.63 20.622C227.946 20.994 227.148 21.18 226.236 21.18C225.336 21.18 224.538 20.994 223.842 20.622C223.146 20.25 222.6 19.716 222.204 19.02C221.82 18.312 221.628 17.472 221.628 16.5C221.628 15.516 221.82 14.676 222.204 13.98C222.6 13.284 223.146 12.75 223.842 12.378C224.538 12.006 225.336 11.82 226.236 11.82ZM226.236 13.656C225.78 13.656 225.39 13.764 225.066 13.98C224.754 14.184 224.514 14.496 224.346 14.916C224.178 15.336 224.094 15.864 224.094 16.5C224.094 17.136 224.178 17.664 224.346 18.084C224.514 18.504 224.754 18.822 225.066 19.038C225.39 19.242 225.78 19.344 226.236 19.344C226.68 19.344 227.058 19.242 227.37 19.038C227.694 18.822 227.94 18.504 228.108 18.084C228.276 17.664 228.36 17.136 228.36 16.5C228.36 15.864 228.276 15.336 228.108 14.916C227.94 14.496 227.694 14.184 227.37 13.98C227.058 13.764 226.68 13.656 226.236 13.656ZM236.039 21.18C235.439 21.18 234.899 21.072 234.419 20.856C233.939 20.64 233.555 20.298 233.267 19.83C232.991 19.35 232.853 18.732 232.853 17.976V12H235.319V17.382C235.319 18.078 235.463 18.564 235.751 18.84C236.039 19.104 236.453 19.236 236.993 19.236C237.245 19.236 237.491 19.194 237.731 19.11C237.971 19.014 238.181 18.87 238.361 18.678C238.553 18.486 238.703 18.24 238.811 17.94C238.919 17.628 238.973 17.262 238.973 16.842V12H241.439V21H239.243L239.153 19.434C238.853 20.034 238.439 20.478 237.911 20.766C237.395 21.042 236.771 21.18 236.039 21.18ZM249.536 21V8.058H252.002V13.53C252.29 12.954 252.686 12.528 253.19 12.252C253.694 11.964 254.264 11.82 254.9 11.82C255.524 11.82 256.076 11.94 256.556 12.18C257.048 12.42 257.432 12.786 257.708 13.278C257.996 13.758 258.14 14.364 258.14 15.096V21H255.674V15.816C255.674 15.036 255.524 14.502 255.224 14.214C254.924 13.914 254.54 13.764 254.072 13.764C253.724 13.764 253.388 13.848 253.064 14.016C252.752 14.172 252.494 14.436 252.29 14.808C252.098 15.168 252.002 15.648 252.002 16.248V21H249.536ZM265.811 15.258C265.811 14.742 265.661 14.34 265.361 14.052C265.073 13.764 264.689 13.62 264.209 13.62C263.765 13.62 263.375 13.734 263.039 13.962C262.703 14.19 262.457 14.568 262.301 15.096L260.195 14.448C260.399 13.656 260.843 13.02 261.527 12.54C262.223 12.06 263.153 11.82 264.317 11.82C265.109 11.82 265.799 11.946 266.387 12.198C266.975 12.438 267.431 12.804 267.755 13.296C268.091 13.788 268.259 14.406 268.259 15.15V18.804C268.259 19.26 268.475 19.488 268.907 19.488C269.111 19.488 269.303 19.458 269.483 19.398L269.339 20.928C269.027 21.084 268.637 21.162 268.169 21.162C267.749 21.162 267.371 21.09 267.035 20.946C266.699 20.802 266.435 20.586 266.243 20.298C266.051 19.998 265.955 19.626 265.955 19.182V19.11L266.387 19.038C266.315 19.494 266.117 19.884 265.793 20.208C265.469 20.52 265.073 20.76 264.605 20.928C264.149 21.096 263.675 21.18 263.183 21.18C262.571 21.18 262.043 21.09 261.599 20.91C261.155 20.718 260.813 20.442 260.573 20.082C260.333 19.722 260.213 19.278 260.213 18.75C260.213 18.078 260.429 17.532 260.861 17.112C261.293 16.68 261.911 16.386 262.715 16.23L266.099 15.546L266.081 17.076L263.921 17.508C263.513 17.592 263.201 17.706 262.985 17.85C262.781 17.982 262.679 18.204 262.679 18.516C262.679 18.816 262.787 19.044 263.003 19.2C263.231 19.356 263.501 19.434 263.813 19.434C264.065 19.434 264.311 19.404 264.551 19.344C264.791 19.284 265.007 19.188 265.199 19.056C265.391 18.924 265.541 18.744 265.649 18.516C265.757 18.288 265.811 18.012 265.811 17.688V15.258ZM276.569 12H279.125L275.705 21H272.861L269.441 12H272.069L274.301 19.11L276.569 12ZM284.562 21.18C283.614 21.18 282.786 20.994 282.078 20.622C281.382 20.25 280.842 19.716 280.458 19.02C280.074 18.324 279.882 17.484 279.882 16.5C279.882 15.516 280.074 14.676 280.458 13.98C280.842 13.284 281.376 12.75 282.06 12.378C282.756 12.006 283.548 11.82 284.436 11.82C285.348 11.82 286.122 12.006 286.758 12.378C287.394 12.738 287.88 13.236 288.216 13.872C288.552 14.496 288.72 15.21 288.72 16.014C288.72 16.254 288.714 16.482 288.702 16.698C288.69 16.914 288.672 17.106 288.648 17.274H281.466V15.564H287.568L286.38 15.996C286.38 15.24 286.206 14.658 285.858 14.25C285.522 13.842 285.042 13.638 284.418 13.638C283.962 13.638 283.566 13.746 283.23 13.962C282.906 14.178 282.66 14.502 282.492 14.934C282.324 15.354 282.24 15.888 282.24 16.536C282.24 17.172 282.33 17.7 282.51 18.12C282.702 18.528 282.966 18.834 283.302 19.038C283.65 19.242 284.064 19.344 284.544 19.344C285.072 19.344 285.498 19.242 285.822 19.038C286.146 18.834 286.398 18.552 286.578 18.192L288.54 18.948C288.348 19.416 288.054 19.818 287.658 20.154C287.274 20.49 286.812 20.748 286.272 20.928C285.744 21.096 285.174 21.18 284.562 21.18ZM301.442 15.258C301.442 14.742 301.292 14.34 300.992 14.052C300.704 13.764 300.32 13.62 299.84 13.62C299.396 13.62 299.006 13.734 298.67 13.962C298.334 14.19 298.088 14.568 297.932 15.096L295.826 14.448C296.03 13.656 296.474 13.02 297.158 12.54C297.854 12.06 298.784 11.82 299.948 11.82C300.74 11.82 301.43 11.946 302.018 12.198C302.606 12.438 303.062 12.804 303.386 13.296C303.722 13.788 303.89 14.406 303.89 15.15V18.804C303.89 19.26 304.106 19.488 304.538 19.488C304.742 19.488 304.934 19.458 305.114 19.398L304.97 20.928C304.658 21.084 304.268 21.162 303.8 21.162C303.38 21.162 303.002 21.09 302.666 20.946C302.33 20.802 302.066 20.586 301.874 20.298C301.682 19.998 301.586 19.626 301.586 19.182V19.11L302.018 19.038C301.946 19.494 301.748 19.884 301.424 20.208C301.1 20.52 300.704 20.76 300.236 20.928C299.78 21.096 299.306 21.18 298.814 21.18C298.202 21.18 297.674 21.09 297.23 20.91C296.786 20.718 296.444 20.442 296.204 20.082C295.964 19.722 295.844 19.278 295.844 18.75C295.844 18.078 296.06 17.532 296.492 17.112C296.924 16.68 297.542 16.386 298.346 16.23L301.73 15.546L301.712 17.076L299.552 17.508C299.144 17.592 298.832 17.706 298.616 17.85C298.412 17.982 298.31 18.204 298.31 18.516C298.31 18.816 298.418 19.044 298.634 19.2C298.862 19.356 299.132 19.434 299.444 19.434C299.696 19.434 299.942 19.404 300.182 19.344C300.422 19.284 300.638 19.188 300.83 19.056C301.022 18.924 301.172 18.744 301.28 18.516C301.388 18.288 301.442 18.012 301.442 17.688V15.258ZM306.648 21V12H308.862L309.006 14.7L308.7 14.412C308.844 13.824 309.072 13.338 309.384 12.954C309.696 12.57 310.074 12.288 310.518 12.108C310.974 11.916 311.472 11.82 312.012 11.82C312.636 11.82 313.188 11.94 313.668 12.18C314.16 12.42 314.544 12.786 314.82 13.278C315.108 13.758 315.252 14.364 315.252 15.096V21H312.786V15.798C312.786 15.03 312.636 14.502 312.336 14.214C312.036 13.914 311.646 13.764 311.166 13.764C310.83 13.764 310.5 13.848 310.176 14.016C309.864 14.172 309.606 14.43 309.402 14.79C309.21 15.15 309.114 15.63 309.114 16.23V21H306.648ZM325.918 12L322.282 21.558C321.994 22.374 321.67 23.022 321.31 23.502C320.962 23.982 320.554 24.33 320.086 24.546C319.63 24.762 319.084 24.87 318.448 24.87C317.98 24.87 317.548 24.81 317.152 24.69C316.768 24.582 316.432 24.438 316.144 24.258L316.666 22.476C316.894 22.656 317.134 22.782 317.386 22.854C317.638 22.938 317.926 22.98 318.25 22.98C318.586 22.98 318.874 22.908 319.114 22.764C319.366 22.62 319.576 22.332 319.744 21.9L320.05 21.126L319.06 18.786L316.306 12H319.042L320.752 17.4L321.22 19.2L321.778 17.292L323.416 12H325.918ZM338.592 24.78V18.192L338.88 18.516C338.796 19.056 338.61 19.524 338.322 19.92C338.034 20.316 337.668 20.628 337.224 20.856C336.792 21.072 336.306 21.18 335.766 21.18C335.022 21.18 334.356 20.994 333.768 20.622C333.192 20.25 332.736 19.716 332.4 19.02C332.076 18.312 331.914 17.466 331.914 16.482C331.914 15.486 332.082 14.646 332.418 13.962C332.766 13.266 333.24 12.738 333.84 12.378C334.44 12.006 335.112 11.82 335.856 11.82C336.408 11.82 336.906 11.94 337.35 12.18C337.794 12.408 338.16 12.738 338.448 13.17C338.736 13.59 338.922 14.076 339.006 14.628L338.682 14.808L338.844 12H341.058V24.78H338.592ZM336.486 19.29C336.918 19.29 337.29 19.182 337.602 18.966C337.914 18.738 338.154 18.414 338.322 17.994C338.502 17.562 338.592 17.052 338.592 16.464C338.592 15.864 338.502 15.36 338.322 14.952C338.154 14.544 337.914 14.238 337.602 14.034C337.29 13.818 336.924 13.71 336.504 13.71C335.844 13.71 335.322 13.95 334.938 14.43C334.566 14.898 334.38 15.588 334.38 16.5C334.38 17.412 334.566 18.108 334.938 18.588C335.31 19.056 335.826 19.29 336.486 19.29ZM346.782 21.18C346.182 21.18 345.642 21.072 345.162 20.856C344.682 20.64 344.298 20.298 344.01 19.83C343.734 19.35 343.596 18.732 343.596 17.976V12H346.062V17.382C346.062 18.078 346.206 18.564 346.494 18.84C346.782 19.104 347.196 19.236 347.736 19.236C347.988 19.236 348.234 19.194 348.474 19.11C348.714 19.014 348.924 18.87 349.104 18.678C349.296 18.486 349.446 18.24 349.554 17.94C349.662 17.628 349.716 17.262 349.716 16.842V12H352.182V21H349.986L349.896 19.434C349.596 20.034 349.182 20.478 348.654 20.766C348.138 21.042 347.514 21.18 346.782 21.18ZM358.952 21.18C358.004 21.18 357.176 20.994 356.468 20.622C355.772 20.25 355.232 19.716 354.848 19.02C354.464 18.324 354.272 17.484 354.272 16.5C354.272 15.516 354.464 14.676 354.848 13.98C355.232 13.284 355.766 12.75 356.45 12.378C357.146 12.006 357.938 11.82 358.826 11.82C359.738 11.82 360.512 12.006 361.148 12.378C361.784 12.738 362.27 13.236 362.606 13.872C362.942 14.496 363.11 15.21 363.11 16.014C363.11 16.254 363.104 16.482 363.092 16.698C363.08 16.914 363.062 17.106 363.038 17.274H355.856V15.564H361.958L360.77 15.996C360.77 15.24 360.596 14.658 360.248 14.25C359.912 13.842 359.432 13.638 358.808 13.638C358.352 13.638 357.956 13.746 357.62 13.962C357.296 14.178 357.05 14.502 356.882 14.934C356.714 15.354 356.63 15.888 356.63 16.536C356.63 17.172 356.72 17.7 356.9 18.12C357.092 18.528 357.356 18.834 357.692 19.038C358.04 19.242 358.454 19.344 358.934 19.344C359.462 19.344 359.888 19.242 360.212 19.038C360.536 18.834 360.788 18.552 360.968 18.192L362.93 18.948C362.738 19.416 362.444 19.818 362.048 20.154C361.664 20.49 361.202 20.748 360.662 20.928C360.134 21.096 359.564 21.18 358.952 21.18ZM368.8 21.18C367.888 21.18 367.054 21.018 366.298 20.694C365.554 20.37 364.948 19.914 364.48 19.326L365.902 17.886C366.19 18.318 366.574 18.672 367.054 18.948C367.534 19.224 368.104 19.362 368.764 19.362C369.232 19.362 369.604 19.296 369.88 19.164C370.168 19.02 370.312 18.798 370.312 18.498C370.312 18.306 370.246 18.144 370.114 18.012C369.982 17.868 369.718 17.754 369.322 17.67L367.738 17.346C366.694 17.13 365.95 16.806 365.506 16.374C365.074 15.93 364.858 15.36 364.858 14.664C364.858 14.172 365.002 13.71 365.29 13.278C365.59 12.846 366.034 12.498 366.622 12.234C367.21 11.958 367.942 11.82 368.818 11.82C369.718 11.82 370.498 11.964 371.158 12.252C371.83 12.528 372.358 12.942 372.742 13.494L371.266 14.934C371.002 14.514 370.654 14.196 370.222 13.98C369.802 13.752 369.358 13.638 368.89 13.638C368.554 13.638 368.266 13.674 368.026 13.746C367.786 13.818 367.606 13.92 367.486 14.052C367.366 14.172 367.306 14.328 367.306 14.52C367.306 14.712 367.39 14.88 367.558 15.024C367.726 15.156 368.032 15.27 368.476 15.366L370.312 15.744C371.2 15.924 371.836 16.23 372.22 16.662C372.604 17.082 372.796 17.592 372.796 18.192C372.796 18.768 372.64 19.284 372.328 19.74C372.028 20.184 371.578 20.538 370.978 20.802C370.39 21.054 369.664 21.18 368.8 21.18ZM377.949 9.246V18.066C377.949 18.498 378.057 18.816 378.273 19.02C378.501 19.212 378.807 19.308 379.191 19.308C379.491 19.308 379.755 19.266 379.983 19.182C380.211 19.086 380.415 18.96 380.595 18.804L380.991 20.442C380.703 20.67 380.343 20.85 379.911 20.982C379.479 21.114 379.023 21.18 378.543 21.18C377.943 21.18 377.409 21.09 376.941 20.91C376.485 20.73 376.125 20.442 375.861 20.046C375.609 19.65 375.483 19.122 375.483 18.462V9.93L377.949 9.246ZM380.829 12V13.836H373.827V12H380.829ZM383.739 10.704C383.223 10.704 382.839 10.596 382.587 10.38C382.335 10.152 382.209 9.822 382.209 9.39C382.209 8.946 382.335 8.616 382.587 8.4C382.839 8.172 383.223 8.058 383.739 8.058C384.255 8.058 384.639 8.172 384.891 8.4C385.143 8.616 385.269 8.946 385.269 9.39C385.269 9.822 385.143 10.152 384.891 10.38C384.639 10.596 384.255 10.704 383.739 10.704ZM384.963 12V21H382.497V12H384.963ZM391.681 11.82C392.593 11.82 393.391 12.006 394.075 12.378C394.771 12.75 395.311 13.284 395.695 13.98C396.091 14.676 396.289 15.516 396.289 16.5C396.289 17.472 396.091 18.312 395.695 19.02C395.311 19.716 394.771 20.25 394.075 20.622C393.391 20.994 392.593 21.18 391.681 21.18C390.781 21.18 389.983 20.994 389.287 20.622C388.591 20.25 388.045 19.716 387.649 19.02C387.265 18.312 387.073 17.472 387.073 16.5C387.073 15.516 387.265 14.676 387.649 13.98C388.045 13.284 388.591 12.75 389.287 12.378C389.983 12.006 390.781 11.82 391.681 11.82ZM391.681 13.656C391.225 13.656 390.835 13.764 390.511 13.98C390.199 14.184 389.959 14.496 389.791 14.916C389.623 15.336 389.539 15.864 389.539 16.5C389.539 17.136 389.623 17.664 389.791 18.084C389.959 18.504 390.199 18.822 390.511 19.038C390.835 19.242 391.225 19.344 391.681 19.344C392.125 19.344 392.503 19.242 392.815 19.038C393.139 18.822 393.385 18.504 393.553 18.084C393.721 17.664 393.805 17.136 393.805 16.5C393.805 15.864 393.721 15.336 393.553 14.916C393.385 14.496 393.139 14.184 392.815 13.98C392.503 13.764 392.125 13.656 391.681 13.656ZM398.353 21V12H400.567L400.711 14.7L400.405 14.412C400.549 13.824 400.777 13.338 401.089 12.954C401.401 12.57 401.779 12.288 402.223 12.108C402.679 11.916 403.177 11.82 403.717 11.82C404.341 11.82 404.893 11.94 405.373 12.18C405.865 12.42 406.249 12.786 406.525 13.278C406.813 13.758 406.957 14.364 406.957 15.096V21H404.491V15.798C404.491 15.03 404.341 14.502 404.041 14.214C403.741 13.914 403.351 13.764 402.871 13.764C402.535 13.764 402.205 13.848 401.881 14.016C401.569 14.172 401.311 14.43 401.107 14.79C400.915 15.15 400.819 15.63 400.819 16.23V21H398.353ZM413.097 21.18C412.185 21.18 411.351 21.018 410.595 20.694C409.851 20.37 409.245 19.914 408.777 19.326L410.199 17.886C410.487 18.318 410.871 18.672 411.351 18.948C411.831 19.224 412.401 19.362 413.061 19.362C413.529 19.362 413.901 19.296 414.177 19.164C414.465 19.02 414.609 18.798 414.609 18.498C414.609 18.306 414.543 18.144 414.411 18.012C414.279 17.868 414.015 17.754 413.619 17.67L412.035 17.346C410.991 17.13 410.247 16.806 409.803 16.374C409.371 15.93 409.155 15.36 409.155 14.664C409.155 14.172 409.299 13.71 409.587 13.278C409.887 12.846 410.331 12.498 410.919 12.234C411.507 11.958 412.239 11.82 413.115 11.82C414.015 11.82 414.795 11.964 415.455 12.252C416.127 12.528 416.655 12.942 417.039 13.494L415.563 14.934C415.299 14.514 414.951 14.196 414.519 13.98C414.099 13.752 413.655 13.638 413.187 13.638C412.851 13.638 412.563 13.674 412.323 13.746C412.083 13.818 411.903 13.92 411.783 14.052C411.663 14.172 411.603 14.328 411.603 14.52C411.603 14.712 411.687 14.88 411.855 15.024C412.023 15.156 412.329 15.27 412.773 15.366L414.609 15.744C415.497 15.924 416.133 16.23 416.517 16.662C416.901 17.082 417.093 17.592 417.093 18.192C417.093 18.768 416.937 19.284 416.625 19.74C416.325 20.184 415.875 20.538 415.275 20.802C414.687 21.054 413.961 21.18 413.097 21.18ZM422.634 8.94C423.486 8.94 424.242 9.066 424.902 9.318C425.562 9.57 426.078 9.942 426.45 10.434C426.822 10.914 427.008 11.508 427.008 12.216C427.008 12.936 426.852 13.53 426.54 13.998C426.24 14.454 425.832 14.802 425.316 15.042C424.8 15.27 424.23 15.42 423.606 15.492L423.48 17.184H421.23L421.248 14.466C422.052 14.37 422.676 14.244 423.12 14.088C423.576 13.92 423.894 13.71 424.074 13.458C424.266 13.206 424.362 12.906 424.362 12.558C424.362 12.222 424.29 11.94 424.146 11.712C424.014 11.484 423.81 11.31 423.534 11.19C423.258 11.07 422.904 11.01 422.472 11.01C421.848 11.01 421.35 11.19 420.978 11.55C420.606 11.898 420.378 12.396 420.294 13.044L417.954 12.144C418.098 11.52 418.362 10.968 418.746 10.488C419.13 9.996 419.64 9.618 420.276 9.354C420.924 9.078 421.71 8.94 422.634 8.94ZM422.382 18.39C422.85 18.39 423.222 18.516 423.498 18.768C423.774 19.02 423.912 19.356 423.912 19.776C423.912 20.208 423.774 20.55 423.498 20.802C423.222 21.042 422.85 21.162 422.382 21.162C421.914 21.162 421.542 21.042 421.266 20.802C420.99 20.55 420.852 20.208 420.852 19.776C420.852 19.356 420.99 19.02 421.266 18.768C421.542 18.516 421.914 18.39 422.382 18.39Z" fill="#272727"/>
</svg>
