<svg width="1020" height="54" viewBox="0 0 1020 54" fill="none" xmlns="http://www.w3.org/2000/svg">
<path d="M100.584 17.224H106.152V19H98.376V8.44H100.584V17.224ZM111.269 10.84C112.079 10.84 112.789 11.0053 113.397 11.336C114.015 11.6667 114.495 12.1413 114.837 12.76C115.189 13.3787 115.365 14.1253 115.365 15C115.365 15.864 115.189 16.6107 114.837 17.24C114.495 17.8587 114.015 18.3333 113.397 18.664C112.789 18.9947 112.079 19.16 111.269 19.16C110.469 19.16 109.759 18.9947 109.141 18.664C108.522 18.3333 108.037 17.8587 107.685 17.24C107.343 16.6107 107.173 15.864 107.173 15C107.173 14.1253 107.343 13.3787 107.685 12.76C108.037 12.1413 108.522 11.6667 109.141 11.336C109.759 11.0053 110.469 10.84 111.269 10.84ZM111.269 12.472C110.863 12.472 110.517 12.568 110.229 12.76C109.951 12.9413 109.738 13.2187 109.589 13.592C109.439 13.9653 109.365 14.4347 109.365 15C109.365 15.5653 109.439 16.0347 109.589 16.408C109.738 16.7813 109.951 17.064 110.229 17.256C110.517 17.4373 110.863 17.528 111.269 17.528C111.663 17.528 111.999 17.4373 112.277 17.256C112.565 17.064 112.783 16.7813 112.933 16.408C113.082 16.0347 113.157 15.5653 113.157 15C113.157 14.4347 113.082 13.9653 112.933 13.592C112.783 13.2187 112.565 12.9413 112.277 12.76C111.999 12.568 111.663 12.472 111.269 12.472ZM117.199 19V11H119.103L119.247 12.568C119.46 12.0133 119.77 11.5867 120.175 11.288C120.591 10.9893 121.108 10.84 121.727 10.84C121.908 10.84 122.074 10.856 122.223 10.888C122.372 10.92 122.495 10.9627 122.591 11.016L122.335 12.856C122.228 12.8133 122.095 12.7813 121.935 12.76C121.786 12.7387 121.588 12.728 121.343 12.728C121.023 12.728 120.714 12.808 120.415 12.968C120.116 13.1173 119.871 13.352 119.679 13.672C119.487 13.9813 119.391 14.376 119.391 14.856V19H117.199ZM127.505 19.16C126.662 19.16 125.926 18.9947 125.297 18.664C124.678 18.3333 124.198 17.8587 123.857 17.24C123.515 16.6213 123.345 15.8747 123.345 15C123.345 14.1253 123.515 13.3787 123.857 12.76C124.198 12.1413 124.673 11.6667 125.281 11.336C125.899 11.0053 126.603 10.84 127.393 10.84C128.203 10.84 128.891 11.0053 129.457 11.336C130.022 11.656 130.454 12.0987 130.753 12.664C131.051 13.2187 131.201 13.8533 131.201 14.568C131.201 14.7813 131.195 14.984 131.185 15.176C131.174 15.368 131.158 15.5387 131.137 15.688H124.753V14.168H130.177L129.121 14.552C129.121 13.88 128.966 13.3627 128.657 13C128.358 12.6373 127.931 12.456 127.377 12.456C126.971 12.456 126.619 12.552 126.321 12.744C126.033 12.936 125.814 13.224 125.665 13.608C125.515 13.9813 125.441 14.456 125.441 15.032C125.441 15.5973 125.521 16.0667 125.681 16.44C125.851 16.8027 126.086 17.0747 126.385 17.256C126.694 17.4373 127.062 17.528 127.489 17.528C127.958 17.528 128.337 17.4373 128.625 17.256C128.913 17.0747 129.137 16.824 129.297 16.504L131.041 17.176C130.87 17.592 130.609 17.9493 130.257 18.248C129.915 18.5467 129.505 18.776 129.025 18.936C128.555 19.0853 128.049 19.16 127.505 19.16ZM133.058 19V11H135.026L135.106 12.44C135.373 11.9067 135.736 11.5067 136.194 11.24C136.664 10.9733 137.181 10.84 137.746 10.84C138.322 10.84 138.84 10.9733 139.298 11.24C139.768 11.5067 140.12 11.9013 140.354 12.424C140.525 12.072 140.754 11.7787 141.042 11.544C141.33 11.3093 141.65 11.1333 142.002 11.016C142.354 10.8987 142.712 10.84 143.074 10.84C143.597 10.84 144.072 10.9467 144.498 11.16C144.936 11.3733 145.282 11.6933 145.538 12.12C145.794 12.5467 145.922 13.0907 145.922 13.752V19H143.73V14.184C143.73 13.5973 143.602 13.1813 143.346 12.936C143.09 12.6907 142.76 12.568 142.354 12.568C142.034 12.568 141.736 12.648 141.458 12.808C141.192 12.968 140.978 13.208 140.818 13.528C140.669 13.8373 140.594 14.2267 140.594 14.696V19H138.402V14.184C138.402 13.5973 138.269 13.1813 138.002 12.936C137.746 12.6907 137.416 12.568 137.01 12.568C136.733 12.568 136.456 12.6427 136.178 12.792C135.912 12.9413 135.688 13.176 135.506 13.496C135.336 13.816 135.25 14.2373 135.25 14.76V19H133.058ZM155.506 8.44V19H153.298V8.44H155.506ZM157.98 22.36V11H159.948L160.092 13.544L159.82 13.256C159.916 12.7867 160.092 12.3707 160.348 12.008C160.615 11.6453 160.951 11.3627 161.356 11.16C161.761 10.9467 162.215 10.84 162.716 10.84C163.367 10.84 163.948 11.0053 164.46 11.336C164.972 11.6667 165.372 12.1413 165.66 12.76C165.959 13.368 166.108 14.1093 166.108 14.984C166.108 15.8587 165.959 16.6107 165.66 17.24C165.361 17.8587 164.951 18.3333 164.428 18.664C163.916 18.9947 163.329 19.16 162.668 19.16C161.964 19.16 161.377 18.9627 160.908 18.568C160.449 18.1733 160.135 17.6773 159.964 17.08L160.172 16.744V22.36H157.98ZM162.028 17.48C162.615 17.48 163.073 17.272 163.404 16.856C163.745 16.4293 163.916 15.8107 163.916 15C163.916 14.1893 163.751 13.576 163.42 13.16C163.1 12.7333 162.647 12.52 162.06 12.52C161.687 12.52 161.356 12.6213 161.068 12.824C160.791 13.016 160.572 13.2987 160.412 13.672C160.252 14.0347 160.172 14.4773 160.172 15C160.172 15.512 160.247 15.9547 160.396 16.328C160.545 16.7013 160.759 16.9893 161.036 17.192C161.324 17.384 161.655 17.48 162.028 17.48ZM171.211 19.16C170.401 19.16 169.659 19.016 168.987 18.728C168.326 18.44 167.787 18.0347 167.371 17.512L168.635 16.232C168.891 16.616 169.233 16.9307 169.659 17.176C170.086 17.4213 170.593 17.544 171.179 17.544C171.595 17.544 171.926 17.4853 172.171 17.368C172.427 17.24 172.555 17.0427 172.555 16.776C172.555 16.6053 172.497 16.4613 172.379 16.344C172.262 16.216 172.027 16.1147 171.675 16.04L170.267 15.752C169.339 15.56 168.678 15.272 168.283 14.888C167.899 14.4933 167.707 13.9867 167.707 13.368C167.707 12.9307 167.835 12.52 168.091 12.136C168.358 11.752 168.753 11.4427 169.275 11.208C169.798 10.9627 170.449 10.84 171.227 10.84C172.027 10.84 172.721 10.968 173.307 11.224C173.905 11.4693 174.374 11.8373 174.715 12.328L173.403 13.608C173.169 13.2347 172.859 12.952 172.475 12.76C172.102 12.5573 171.707 12.456 171.291 12.456C170.993 12.456 170.737 12.488 170.523 12.552C170.31 12.616 170.15 12.7067 170.043 12.824C169.937 12.9307 169.883 13.0693 169.883 13.24C169.883 13.4107 169.958 13.56 170.107 13.688C170.257 13.8053 170.529 13.9067 170.923 13.992L172.555 14.328C173.345 14.488 173.91 14.76 174.251 15.144C174.593 15.5173 174.763 15.9707 174.763 16.504C174.763 17.016 174.625 17.4747 174.347 17.88C174.081 18.2747 173.681 18.5893 173.147 18.824C172.625 19.048 171.979 19.16 171.211 19.16ZM179.295 19.16C178.762 19.16 178.282 19.064 177.855 18.872C177.429 18.68 177.087 18.376 176.831 17.96C176.586 17.5333 176.463 16.984 176.463 16.312V11H178.655V15.784C178.655 16.4027 178.783 16.8347 179.039 17.08C179.295 17.3147 179.663 17.432 180.143 17.432C180.367 17.432 180.586 17.3947 180.799 17.32C181.013 17.2347 181.199 17.1067 181.359 16.936C181.53 16.7653 181.663 16.5467 181.759 16.28C181.855 16.0027 181.903 15.6773 181.903 15.304V11H184.095V19H182.143L182.063 17.608C181.797 18.1413 181.429 18.536 180.959 18.792C180.501 19.0373 179.946 19.16 179.295 19.16ZM186.402 19V11H188.37L188.45 12.44C188.717 11.9067 189.079 11.5067 189.538 11.24C190.007 10.9733 190.525 10.84 191.09 10.84C191.666 10.84 192.183 10.9733 192.642 11.24C193.111 11.5067 193.463 11.9013 193.698 12.424C193.869 12.072 194.098 11.7787 194.386 11.544C194.674 11.3093 194.994 11.1333 195.346 11.016C195.698 10.8987 196.055 10.84 196.418 10.84C196.941 10.84 197.415 10.9467 197.842 11.16C198.279 11.3733 198.626 11.6933 198.882 12.12C199.138 12.5467 199.266 13.0907 199.266 13.752V19H197.074V14.184C197.074 13.5973 196.946 13.1813 196.69 12.936C196.434 12.6907 196.103 12.568 195.698 12.568C195.378 12.568 195.079 12.648 194.802 12.808C194.535 12.968 194.322 13.208 194.162 13.528C194.013 13.8373 193.938 14.2267 193.938 14.696V19H191.746V14.184C191.746 13.5973 191.613 13.1813 191.346 12.936C191.09 12.6907 190.759 12.568 190.354 12.568C190.077 12.568 189.799 12.6427 189.522 12.792C189.255 12.9413 189.031 13.176 188.85 13.496C188.679 13.816 188.594 14.2373 188.594 14.76V19H186.402ZM102.456 34.44C104.109 34.44 105.389 34.8987 106.296 35.816C107.203 36.7227 107.656 38.024 107.656 39.72C107.656 41.4053 107.203 42.7067 106.296 43.624C105.389 44.5413 104.109 45 102.456 45H98.376V34.44H102.456ZM102.344 43.24C103.347 43.24 104.099 42.9413 104.6 42.344C105.112 41.736 105.368 40.8613 105.368 39.72C105.368 38.5787 105.112 37.7093 104.6 37.112C104.099 36.504 103.347 36.2 102.344 36.2H100.584V43.24H102.344ZM113.3 36.84C114.111 36.84 114.82 37.0053 115.428 37.336C116.047 37.6667 116.527 38.1413 116.868 38.76C117.22 39.3787 117.396 40.1253 117.396 41C117.396 41.864 117.22 42.6107 116.868 43.24C116.527 43.8587 116.047 44.3333 115.428 44.664C114.82 44.9947 114.111 45.16 113.3 45.16C112.5 45.16 111.791 44.9947 111.172 44.664C110.553 44.3333 110.068 43.8587 109.716 43.24C109.375 42.6107 109.204 41.864 109.204 41C109.204 40.1253 109.375 39.3787 109.716 38.76C110.068 38.1413 110.553 37.6667 111.172 37.336C111.791 37.0053 112.5 36.84 113.3 36.84ZM113.3 38.472C112.895 38.472 112.548 38.568 112.26 38.76C111.983 38.9413 111.769 39.2187 111.62 39.592C111.471 39.9653 111.396 40.4347 111.396 41C111.396 41.5653 111.471 42.0347 111.62 42.408C111.769 42.7813 111.983 43.064 112.26 43.256C112.548 43.4373 112.895 43.528 113.3 43.528C113.695 43.528 114.031 43.4373 114.308 43.256C114.596 43.064 114.815 42.7813 114.964 42.408C115.113 42.0347 115.188 41.5653 115.188 41C115.188 40.4347 115.113 39.9653 114.964 39.592C114.815 39.2187 114.596 38.9413 114.308 38.76C114.031 38.568 113.695 38.472 113.3 38.472ZM121.39 33.496V42.536C121.39 42.9093 121.454 43.1707 121.582 43.32C121.71 43.4693 121.923 43.544 122.222 43.544C122.403 43.544 122.553 43.5333 122.67 43.512C122.787 43.48 122.937 43.4373 123.118 43.384L122.926 44.824C122.745 44.9307 122.515 45.0107 122.238 45.064C121.971 45.128 121.705 45.16 121.438 45.16C120.659 45.16 120.089 44.9733 119.726 44.6C119.374 44.216 119.198 43.608 119.198 42.776V33.496H121.39ZM127.988 36.84C128.798 36.84 129.508 37.0053 130.116 37.336C130.734 37.6667 131.214 38.1413 131.556 38.76C131.908 39.3787 132.084 40.1253 132.084 41C132.084 41.864 131.908 42.6107 131.556 43.24C131.214 43.8587 130.734 44.3333 130.116 44.664C129.508 44.9947 128.798 45.16 127.988 45.16C127.188 45.16 126.478 44.9947 125.86 44.664C125.241 44.3333 124.756 43.8587 124.404 43.24C124.062 42.6107 123.892 41.864 123.892 41C123.892 40.1253 124.062 39.3787 124.404 38.76C124.756 38.1413 125.241 37.6667 125.86 37.336C126.478 37.0053 127.188 36.84 127.988 36.84ZM127.988 38.472C127.582 38.472 127.236 38.568 126.948 38.76C126.67 38.9413 126.457 39.2187 126.308 39.592C126.158 39.9653 126.084 40.4347 126.084 41C126.084 41.5653 126.158 42.0347 126.308 42.408C126.457 42.7813 126.67 43.064 126.948 43.256C127.236 43.4373 127.582 43.528 127.988 43.528C128.382 43.528 128.718 43.4373 128.996 43.256C129.284 43.064 129.502 42.7813 129.652 42.408C129.801 42.0347 129.876 41.5653 129.876 41C129.876 40.4347 129.801 39.9653 129.652 39.592C129.502 39.2187 129.284 38.9413 128.996 38.76C128.718 38.568 128.382 38.472 127.988 38.472ZM133.918 45V37H135.822L135.966 38.568C136.179 38.0133 136.488 37.5867 136.894 37.288C137.31 36.9893 137.827 36.84 138.446 36.84C138.627 36.84 138.792 36.856 138.942 36.888C139.091 36.92 139.214 36.9627 139.31 37.016L139.054 38.856C138.947 38.8133 138.814 38.7813 138.654 38.76C138.504 38.7387 138.307 38.728 138.062 38.728C137.742 38.728 137.432 38.808 137.134 38.968C136.835 39.1173 136.59 39.352 136.398 39.672C136.206 39.9813 136.11 40.376 136.11 40.856V45H133.918ZM144.223 45.16C143.381 45.16 142.645 44.9947 142.015 44.664C141.397 44.3333 140.917 43.8587 140.575 43.24C140.234 42.6213 140.063 41.8747 140.063 41C140.063 40.1253 140.234 39.3787 140.575 38.76C140.917 38.1413 141.391 37.6667 141.999 37.336C142.618 37.0053 143.322 36.84 144.111 36.84C144.922 36.84 145.61 37.0053 146.175 37.336C146.741 37.656 147.173 38.0987 147.471 38.664C147.77 39.2187 147.919 39.8533 147.919 40.568C147.919 40.7813 147.914 40.984 147.903 41.176C147.893 41.368 147.877 41.5387 147.855 41.688H141.471V40.168H146.895L145.839 40.552C145.839 39.88 145.685 39.3627 145.375 39C145.077 38.6373 144.65 38.456 144.095 38.456C143.69 38.456 143.338 38.552 143.039 38.744C142.751 38.936 142.533 39.224 142.383 39.608C142.234 39.9813 142.159 40.456 142.159 41.032C142.159 41.5973 142.239 42.0667 142.399 42.44C142.57 42.8027 142.805 43.0747 143.103 43.256C143.413 43.4373 143.781 43.528 144.207 43.528C144.677 43.528 145.055 43.4373 145.343 43.256C145.631 43.0747 145.855 42.824 146.015 42.504L147.759 43.176C147.589 43.592 147.327 43.9493 146.975 44.248C146.634 44.5467 146.223 44.776 145.743 44.936C145.274 45.0853 144.767 45.16 144.223 45.16ZM149.777 45V37H151.745L151.825 38.44C152.092 37.9067 152.454 37.5067 152.913 37.24C153.382 36.9733 153.9 36.84 154.465 36.84C155.041 36.84 155.558 36.9733 156.017 37.24C156.486 37.5067 156.838 37.9013 157.073 38.424C157.244 38.072 157.473 37.7787 157.761 37.544C158.049 37.3093 158.369 37.1333 158.721 37.016C159.073 36.8987 159.43 36.84 159.793 36.84C160.316 36.84 160.79 36.9467 161.217 37.16C161.654 37.3733 162.001 37.6933 162.257 38.12C162.513 38.5467 162.641 39.0907 162.641 39.752V45H160.449V40.184C160.449 39.5973 160.321 39.1813 160.065 38.936C159.809 38.6907 159.478 38.568 159.073 38.568C158.753 38.568 158.454 38.648 158.177 38.808C157.91 38.968 157.697 39.208 157.537 39.528C157.388 39.8373 157.313 40.2267 157.313 40.696V45H155.121V40.184C155.121 39.5973 154.988 39.1813 154.721 38.936C154.465 38.6907 154.134 38.568 153.729 38.568C153.452 38.568 153.174 38.6427 152.897 38.792C152.63 38.9413 152.406 39.176 152.225 39.496C152.054 39.816 151.969 40.2373 151.969 40.76V45H149.777ZM174.353 39.896C174.353 39.4373 174.219 39.08 173.953 38.824C173.697 38.568 173.355 38.44 172.929 38.44C172.534 38.44 172.187 38.5413 171.889 38.744C171.59 38.9467 171.371 39.2827 171.233 39.752L169.361 39.176C169.542 38.472 169.937 37.9067 170.545 37.48C171.163 37.0533 171.99 36.84 173.025 36.84C173.729 36.84 174.342 36.952 174.865 37.176C175.387 37.3893 175.793 37.7147 176.081 38.152C176.379 38.5893 176.529 39.1387 176.529 39.8V43.048C176.529 43.4533 176.721 43.656 177.105 43.656C177.286 43.656 177.457 43.6293 177.617 43.576L177.489 44.936C177.211 45.0747 176.865 45.144 176.449 45.144C176.075 45.144 175.739 45.08 175.441 44.952C175.142 44.824 174.907 44.632 174.737 44.376C174.566 44.1093 174.481 43.7787 174.481 43.384V43.32L174.865 43.256C174.801 43.6613 174.625 44.008 174.337 44.296C174.049 44.5733 173.697 44.7867 173.281 44.936C172.875 45.0853 172.454 45.16 172.017 45.16C171.473 45.16 171.003 45.08 170.609 44.92C170.214 44.7493 169.91 44.504 169.697 44.184C169.483 43.864 169.377 43.4693 169.377 43C169.377 42.4027 169.569 41.9173 169.953 41.544C170.337 41.16 170.886 40.8987 171.601 40.76L174.609 40.152L174.593 41.512L172.673 41.896C172.31 41.9707 172.033 42.072 171.841 42.2C171.659 42.3173 171.569 42.5147 171.569 42.792C171.569 43.0587 171.665 43.2613 171.857 43.4C172.059 43.5387 172.299 43.608 172.577 43.608C172.801 43.608 173.019 43.5813 173.233 43.528C173.446 43.4747 173.638 43.3893 173.809 43.272C173.979 43.1547 174.113 42.9947 174.209 42.792C174.305 42.5893 174.353 42.344 174.353 42.056V39.896ZM178.98 48.36V37H180.948L181.092 39.544L180.82 39.256C180.916 38.7867 181.092 38.3707 181.348 38.008C181.615 37.6453 181.951 37.3627 182.356 37.16C182.761 36.9467 183.215 36.84 183.716 36.84C184.367 36.84 184.948 37.0053 185.46 37.336C185.972 37.6667 186.372 38.1413 186.66 38.76C186.959 39.368 187.108 40.1093 187.108 40.984C187.108 41.8587 186.959 42.6107 186.66 43.24C186.361 43.8587 185.951 44.3333 185.428 44.664C184.916 44.9947 184.329 45.16 183.668 45.16C182.964 45.16 182.377 44.9627 181.908 44.568C181.449 44.1733 181.135 43.6773 180.964 43.08L181.172 42.744V48.36H178.98ZM183.028 43.48C183.615 43.48 184.073 43.272 184.404 42.856C184.745 42.4293 184.916 41.8107 184.916 41C184.916 40.1893 184.751 39.576 184.42 39.16C184.1 38.7333 183.647 38.52 183.06 38.52C182.687 38.52 182.356 38.6213 182.068 38.824C181.791 39.016 181.572 39.2987 181.412 39.672C181.252 40.0347 181.172 40.4773 181.172 41C181.172 41.512 181.247 41.9547 181.396 42.328C181.545 42.7013 181.759 42.9893 182.036 43.192C182.324 43.384 182.655 43.48 183.028 43.48ZM192.211 45.16C191.401 45.16 190.659 45.016 189.987 44.728C189.326 44.44 188.787 44.0347 188.371 43.512L189.635 42.232C189.891 42.616 190.233 42.9307 190.659 43.176C191.086 43.4213 191.593 43.544 192.179 43.544C192.595 43.544 192.926 43.4853 193.171 43.368C193.427 43.24 193.555 43.0427 193.555 42.776C193.555 42.6053 193.497 42.4613 193.379 42.344C193.262 42.216 193.027 42.1147 192.675 42.04L191.267 41.752C190.339 41.56 189.678 41.272 189.283 40.888C188.899 40.4933 188.707 39.9867 188.707 39.368C188.707 38.9307 188.835 38.52 189.091 38.136C189.358 37.752 189.753 37.4427 190.275 37.208C190.798 36.9627 191.449 36.84 192.227 36.84C193.027 36.84 193.721 36.968 194.307 37.224C194.905 37.4693 195.374 37.8373 195.715 38.328L194.403 39.608C194.169 39.2347 193.859 38.952 193.475 38.76C193.102 38.5573 192.707 38.456 192.291 38.456C191.993 38.456 191.737 38.488 191.523 38.552C191.31 38.616 191.15 38.7067 191.043 38.824C190.937 38.9307 190.883 39.0693 190.883 39.24C190.883 39.4107 190.958 39.56 191.107 39.688C191.257 39.8053 191.529 39.9067 191.923 39.992L193.555 40.328C194.345 40.488 194.91 40.76 195.251 41.144C195.593 41.5173 195.763 41.9707 195.763 42.504C195.763 43.016 195.625 43.4747 195.347 43.88C195.081 44.2747 194.681 44.5893 194.147 44.824C193.625 45.048 192.979 45.16 192.211 45.16ZM201.192 45.16C200.349 45.16 199.613 44.9947 198.984 44.664C198.365 44.3333 197.885 43.8587 197.544 43.24C197.203 42.6213 197.032 41.8747 197.032 41C197.032 40.1253 197.203 39.3787 197.544 38.76C197.885 38.1413 198.36 37.6667 198.968 37.336C199.587 37.0053 200.291 36.84 201.08 36.84C201.891 36.84 202.579 37.0053 203.144 37.336C203.709 37.656 204.141 38.0987 204.44 38.664C204.739 39.2187 204.888 39.8533 204.888 40.568C204.888 40.7813 204.883 40.984 204.872 41.176C204.861 41.368 204.845 41.5387 204.824 41.688H198.44V40.168H203.864L202.808 40.552C202.808 39.88 202.653 39.3627 202.344 39C202.045 38.6373 201.619 38.456 201.064 38.456C200.659 38.456 200.307 38.552 200.008 38.744C199.72 38.936 199.501 39.224 199.352 39.608C199.203 39.9813 199.128 40.456 199.128 41.032C199.128 41.5973 199.208 42.0667 199.368 42.44C199.539 42.8027 199.773 43.0747 200.072 43.256C200.381 43.4373 200.749 43.528 201.176 43.528C201.645 43.528 202.024 43.4373 202.312 43.256C202.6 43.0747 202.824 42.824 202.984 42.504L204.728 43.176C204.557 43.592 204.296 43.9493 203.944 44.248C203.603 44.5467 203.192 44.776 202.712 44.936C202.243 45.0853 201.736 45.16 201.192 45.16ZM209.437 34.552V42.392C209.437 42.776 209.533 43.0587 209.725 43.24C209.928 43.4107 210.2 43.496 210.541 43.496C210.808 43.496 211.042 43.4587 211.245 43.384C211.448 43.2987 211.629 43.1867 211.789 43.048L212.141 44.504C211.885 44.7067 211.565 44.8667 211.181 44.984C210.797 45.1013 210.392 45.16 209.965 45.16C209.432 45.16 208.957 45.08 208.541 44.92C208.136 44.76 207.816 44.504 207.581 44.152C207.357 43.8 207.245 43.3307 207.245 42.744V35.16L209.437 34.552ZM211.997 37V38.632H205.773V37H211.997Z" fill="white"/>
<path d="M18.9 46.84C13.66 46.84 9.54 44.86 6.54 40.9C3.58 36.9 2.1 31.6 2.1 25C2.1 18.4 3.58 13.12 6.54 9.16C9.54 5.16 13.66 3.16 18.9 3.16C24.18 3.16 28.3 5.16 31.26 9.16C34.22 13.12 35.7 18.4 35.7 25C35.7 31.6 34.22 36.9 31.26 40.9C28.3 44.86 24.18 46.84 18.9 46.84ZM12.54 35.26C13.98 37.58 16.1 38.74 18.9 38.74C21.7 38.74 23.82 37.56 25.26 35.2C26.74 32.84 27.48 29.44 27.48 25C27.48 20.52 26.74 17.1 25.26 14.74C23.82 12.38 21.7 11.2 18.9 11.2C16.1 11.2 13.98 12.38 12.54 14.74C11.1 17.1 10.38 20.52 10.38 25C10.38 29.48 11.1 32.9 12.54 35.26ZM48.3211 4H55.5211V46H47.2411V12.76L39.3211 14.98L37.2811 7.9L48.3211 4Z" fill="#FCD54C"/>
<path d="M490.584 18.224H496.152V20H488.376V9.44H490.584V18.224ZM501.269 11.84C502.079 11.84 502.789 12.0053 503.397 12.336C504.015 12.6667 504.495 13.1413 504.837 13.76C505.189 14.3787 505.365 15.1253 505.365 16C505.365 16.864 505.189 17.6107 504.837 18.24C504.495 18.8587 504.015 19.3333 503.397 19.664C502.789 19.9947 502.079 20.16 501.269 20.16C500.469 20.16 499.759 19.9947 499.141 19.664C498.522 19.3333 498.037 18.8587 497.685 18.24C497.343 17.6107 497.173 16.864 497.173 16C497.173 15.1253 497.343 14.3787 497.685 13.76C498.037 13.1413 498.522 12.6667 499.141 12.336C499.759 12.0053 500.469 11.84 501.269 11.84ZM501.269 13.472C500.863 13.472 500.517 13.568 500.229 13.76C499.951 13.9413 499.738 14.2187 499.589 14.592C499.439 14.9653 499.365 15.4347 499.365 16C499.365 16.5653 499.439 17.0347 499.589 17.408C499.738 17.7813 499.951 18.064 500.229 18.256C500.517 18.4373 500.863 18.528 501.269 18.528C501.663 18.528 501.999 18.4373 502.277 18.256C502.565 18.064 502.783 17.7813 502.933 17.408C503.082 17.0347 503.157 16.5653 503.157 16C503.157 15.4347 503.082 14.9653 502.933 14.592C502.783 14.2187 502.565 13.9413 502.277 13.76C501.999 13.568 501.663 13.472 501.269 13.472ZM507.199 20V12H509.103L509.247 13.568C509.46 13.0133 509.77 12.5867 510.175 12.288C510.591 11.9893 511.108 11.84 511.727 11.84C511.908 11.84 512.074 11.856 512.223 11.888C512.372 11.92 512.495 11.9627 512.591 12.016L512.335 13.856C512.228 13.8133 512.095 13.7813 511.935 13.76C511.786 13.7387 511.588 13.728 511.343 13.728C511.023 13.728 510.714 13.808 510.415 13.968C510.116 14.1173 509.871 14.352 509.679 14.672C509.487 14.9813 509.391 15.376 509.391 15.856V20H507.199ZM517.505 20.16C516.662 20.16 515.926 19.9947 515.297 19.664C514.678 19.3333 514.198 18.8587 513.857 18.24C513.515 17.6213 513.345 16.8747 513.345 16C513.345 15.1253 513.515 14.3787 513.857 13.76C514.198 13.1413 514.673 12.6667 515.281 12.336C515.899 12.0053 516.603 11.84 517.393 11.84C518.203 11.84 518.891 12.0053 519.457 12.336C520.022 12.656 520.454 13.0987 520.753 13.664C521.051 14.2187 521.201 14.8533 521.201 15.568C521.201 15.7813 521.195 15.984 521.185 16.176C521.174 16.368 521.158 16.5387 521.137 16.688H514.753V15.168H520.177L519.121 15.552C519.121 14.88 518.966 14.3627 518.657 14C518.358 13.6373 517.931 13.456 517.377 13.456C516.971 13.456 516.619 13.552 516.321 13.744C516.033 13.936 515.814 14.224 515.665 14.608C515.515 14.9813 515.441 15.456 515.441 16.032C515.441 16.5973 515.521 17.0667 515.681 17.44C515.851 17.8027 516.086 18.0747 516.385 18.256C516.694 18.4373 517.062 18.528 517.489 18.528C517.958 18.528 518.337 18.4373 518.625 18.256C518.913 18.0747 519.137 17.824 519.297 17.504L521.041 18.176C520.87 18.592 520.609 18.9493 520.257 19.248C519.915 19.5467 519.505 19.776 519.025 19.936C518.555 20.0853 518.049 20.16 517.505 20.16ZM523.058 20V12H525.026L525.106 13.44C525.373 12.9067 525.736 12.5067 526.194 12.24C526.664 11.9733 527.181 11.84 527.746 11.84C528.322 11.84 528.84 11.9733 529.298 12.24C529.768 12.5067 530.12 12.9013 530.354 13.424C530.525 13.072 530.754 12.7787 531.042 12.544C531.33 12.3093 531.65 12.1333 532.002 12.016C532.354 11.8987 532.712 11.84 533.074 11.84C533.597 11.84 534.072 11.9467 534.498 12.16C534.936 12.3733 535.282 12.6933 535.538 13.12C535.794 13.5467 535.922 14.0907 535.922 14.752V20H533.73V15.184C533.73 14.5973 533.602 14.1813 533.346 13.936C533.09 13.6907 532.76 13.568 532.354 13.568C532.034 13.568 531.736 13.648 531.458 13.808C531.192 13.968 530.978 14.208 530.818 14.528C530.669 14.8373 530.594 15.2267 530.594 15.696V20H528.402V15.184C528.402 14.5973 528.269 14.1813 528.002 13.936C527.746 13.6907 527.416 13.568 527.01 13.568C526.733 13.568 526.456 13.6427 526.178 13.792C525.912 13.9413 525.688 14.176 525.506 14.496C525.336 14.816 525.25 15.2373 525.25 15.76V20H523.058ZM545.506 9.44V20H543.298V9.44H545.506ZM547.98 23.36V12H549.948L550.092 14.544L549.82 14.256C549.916 13.7867 550.092 13.3707 550.348 13.008C550.615 12.6453 550.951 12.3627 551.356 12.16C551.761 11.9467 552.215 11.84 552.716 11.84C553.367 11.84 553.948 12.0053 554.46 12.336C554.972 12.6667 555.372 13.1413 555.66 13.76C555.959 14.368 556.108 15.1093 556.108 15.984C556.108 16.8587 555.959 17.6107 555.66 18.24C555.361 18.8587 554.951 19.3333 554.428 19.664C553.916 19.9947 553.329 20.16 552.668 20.16C551.964 20.16 551.377 19.9627 550.908 19.568C550.449 19.1733 550.135 18.6773 549.964 18.08L550.172 17.744V23.36H547.98ZM552.028 18.48C552.615 18.48 553.073 18.272 553.404 17.856C553.745 17.4293 553.916 16.8107 553.916 16C553.916 15.1893 553.751 14.576 553.42 14.16C553.1 13.7333 552.647 13.52 552.06 13.52C551.687 13.52 551.356 13.6213 551.068 13.824C550.791 14.016 550.572 14.2987 550.412 14.672C550.252 15.0347 550.172 15.4773 550.172 16C550.172 16.512 550.247 16.9547 550.396 17.328C550.545 17.7013 550.759 17.9893 551.036 18.192C551.324 18.384 551.655 18.48 552.028 18.48ZM561.211 20.16C560.401 20.16 559.659 20.016 558.987 19.728C558.326 19.44 557.787 19.0347 557.371 18.512L558.635 17.232C558.891 17.616 559.233 17.9307 559.659 18.176C560.086 18.4213 560.593 18.544 561.179 18.544C561.595 18.544 561.926 18.4853 562.171 18.368C562.427 18.24 562.555 18.0427 562.555 17.776C562.555 17.6053 562.497 17.4613 562.379 17.344C562.262 17.216 562.027 17.1147 561.675 17.04L560.267 16.752C559.339 16.56 558.678 16.272 558.283 15.888C557.899 15.4933 557.707 14.9867 557.707 14.368C557.707 13.9307 557.835 13.52 558.091 13.136C558.358 12.752 558.753 12.4427 559.275 12.208C559.798 11.9627 560.449 11.84 561.227 11.84C562.027 11.84 562.721 11.968 563.307 12.224C563.905 12.4693 564.374 12.8373 564.715 13.328L563.403 14.608C563.169 14.2347 562.859 13.952 562.475 13.76C562.102 13.5573 561.707 13.456 561.291 13.456C560.993 13.456 560.737 13.488 560.523 13.552C560.31 13.616 560.15 13.7067 560.043 13.824C559.937 13.9307 559.883 14.0693 559.883 14.24C559.883 14.4107 559.958 14.56 560.107 14.688C560.257 14.8053 560.529 14.9067 560.923 14.992L562.555 15.328C563.345 15.488 563.91 15.76 564.251 16.144C564.593 16.5173 564.763 16.9707 564.763 17.504C564.763 18.016 564.625 18.4747 564.347 18.88C564.081 19.2747 563.681 19.5893 563.147 19.824C562.625 20.048 561.979 20.16 561.211 20.16ZM569.295 20.16C568.762 20.16 568.282 20.064 567.855 19.872C567.429 19.68 567.087 19.376 566.831 18.96C566.586 18.5333 566.463 17.984 566.463 17.312V12H568.655V16.784C568.655 17.4027 568.783 17.8347 569.039 18.08C569.295 18.3147 569.663 18.432 570.143 18.432C570.367 18.432 570.586 18.3947 570.799 18.32C571.013 18.2347 571.199 18.1067 571.359 17.936C571.53 17.7653 571.663 17.5467 571.759 17.28C571.855 17.0027 571.903 16.6773 571.903 16.304V12H574.095V20H572.143L572.063 18.608C571.797 19.1413 571.429 19.536 570.959 19.792C570.501 20.0373 569.946 20.16 569.295 20.16ZM576.402 20V12H578.37L578.45 13.44C578.717 12.9067 579.079 12.5067 579.538 12.24C580.007 11.9733 580.525 11.84 581.09 11.84C581.666 11.84 582.183 11.9733 582.642 12.24C583.111 12.5067 583.463 12.9013 583.698 13.424C583.869 13.072 584.098 12.7787 584.386 12.544C584.674 12.3093 584.994 12.1333 585.346 12.016C585.698 11.8987 586.055 11.84 586.418 11.84C586.941 11.84 587.415 11.9467 587.842 12.16C588.279 12.3733 588.626 12.6933 588.882 13.12C589.138 13.5467 589.266 14.0907 589.266 14.752V20H587.074V15.184C587.074 14.5973 586.946 14.1813 586.69 13.936C586.434 13.6907 586.103 13.568 585.698 13.568C585.378 13.568 585.079 13.648 584.802 13.808C584.535 13.968 584.322 14.208 584.162 14.528C584.013 14.8373 583.938 15.2267 583.938 15.696V20H581.746V15.184C581.746 14.5973 581.613 14.1813 581.346 13.936C581.09 13.6907 580.759 13.568 580.354 13.568C580.077 13.568 579.799 13.6427 579.522 13.792C579.255 13.9413 579.031 14.176 578.85 14.496C578.679 14.816 578.594 15.2373 578.594 15.76V20H576.402ZM492.456 35.44C494.109 35.44 495.389 35.8987 496.296 36.816C497.203 37.7227 497.656 39.024 497.656 40.72C497.656 42.4053 497.203 43.7067 496.296 44.624C495.389 45.5413 494.109 46 492.456 46H488.376V35.44H492.456ZM492.344 44.24C493.347 44.24 494.099 43.9413 494.6 43.344C495.112 42.736 495.368 41.8613 495.368 40.72C495.368 39.5787 495.112 38.7093 494.6 38.112C494.099 37.504 493.347 37.2 492.344 37.2H490.584V44.24H492.344ZM503.3 37.84C504.111 37.84 504.82 38.0053 505.428 38.336C506.047 38.6667 506.527 39.1413 506.868 39.76C507.22 40.3787 507.396 41.1253 507.396 42C507.396 42.864 507.22 43.6107 506.868 44.24C506.527 44.8587 506.047 45.3333 505.428 45.664C504.82 45.9947 504.111 46.16 503.3 46.16C502.5 46.16 501.791 45.9947 501.172 45.664C500.553 45.3333 500.068 44.8587 499.716 44.24C499.375 43.6107 499.204 42.864 499.204 42C499.204 41.1253 499.375 40.3787 499.716 39.76C500.068 39.1413 500.553 38.6667 501.172 38.336C501.791 38.0053 502.5 37.84 503.3 37.84ZM503.3 39.472C502.895 39.472 502.548 39.568 502.26 39.76C501.983 39.9413 501.769 40.2187 501.62 40.592C501.471 40.9653 501.396 41.4347 501.396 42C501.396 42.5653 501.471 43.0347 501.62 43.408C501.769 43.7813 501.983 44.064 502.26 44.256C502.548 44.4373 502.895 44.528 503.3 44.528C503.695 44.528 504.031 44.4373 504.308 44.256C504.596 44.064 504.815 43.7813 504.964 43.408C505.113 43.0347 505.188 42.5653 505.188 42C505.188 41.4347 505.113 40.9653 504.964 40.592C504.815 40.2187 504.596 39.9413 504.308 39.76C504.031 39.568 503.695 39.472 503.3 39.472ZM511.39 34.496V43.536C511.39 43.9093 511.454 44.1707 511.582 44.32C511.71 44.4693 511.923 44.544 512.222 44.544C512.403 44.544 512.553 44.5333 512.67 44.512C512.787 44.48 512.937 44.4373 513.118 44.384L512.926 45.824C512.745 45.9307 512.515 46.0107 512.238 46.064C511.971 46.128 511.705 46.16 511.438 46.16C510.659 46.16 510.089 45.9733 509.726 45.6C509.374 45.216 509.198 44.608 509.198 43.776V34.496H511.39ZM517.988 37.84C518.798 37.84 519.508 38.0053 520.116 38.336C520.734 38.6667 521.214 39.1413 521.556 39.76C521.908 40.3787 522.084 41.1253 522.084 42C522.084 42.864 521.908 43.6107 521.556 44.24C521.214 44.8587 520.734 45.3333 520.116 45.664C519.508 45.9947 518.798 46.16 517.988 46.16C517.188 46.16 516.478 45.9947 515.86 45.664C515.241 45.3333 514.756 44.8587 514.404 44.24C514.062 43.6107 513.892 42.864 513.892 42C513.892 41.1253 514.062 40.3787 514.404 39.76C514.756 39.1413 515.241 38.6667 515.86 38.336C516.478 38.0053 517.188 37.84 517.988 37.84ZM517.988 39.472C517.582 39.472 517.236 39.568 516.948 39.76C516.67 39.9413 516.457 40.2187 516.308 40.592C516.158 40.9653 516.084 41.4347 516.084 42C516.084 42.5653 516.158 43.0347 516.308 43.408C516.457 43.7813 516.67 44.064 516.948 44.256C517.236 44.4373 517.582 44.528 517.988 44.528C518.382 44.528 518.718 44.4373 518.996 44.256C519.284 44.064 519.502 43.7813 519.652 43.408C519.801 43.0347 519.876 42.5653 519.876 42C519.876 41.4347 519.801 40.9653 519.652 40.592C519.502 40.2187 519.284 39.9413 518.996 39.76C518.718 39.568 518.382 39.472 517.988 39.472ZM523.918 46V38H525.822L525.966 39.568C526.179 39.0133 526.488 38.5867 526.894 38.288C527.31 37.9893 527.827 37.84 528.446 37.84C528.627 37.84 528.792 37.856 528.942 37.888C529.091 37.92 529.214 37.9627 529.31 38.016L529.054 39.856C528.947 39.8133 528.814 39.7813 528.654 39.76C528.504 39.7387 528.307 39.728 528.062 39.728C527.742 39.728 527.432 39.808 527.134 39.968C526.835 40.1173 526.59 40.352 526.398 40.672C526.206 40.9813 526.11 41.376 526.11 41.856V46H523.918ZM534.223 46.16C533.381 46.16 532.645 45.9947 532.015 45.664C531.397 45.3333 530.917 44.8587 530.575 44.24C530.234 43.6213 530.063 42.8747 530.063 42C530.063 41.1253 530.234 40.3787 530.575 39.76C530.917 39.1413 531.391 38.6667 531.999 38.336C532.618 38.0053 533.322 37.84 534.111 37.84C534.922 37.84 535.61 38.0053 536.175 38.336C536.741 38.656 537.173 39.0987 537.471 39.664C537.77 40.2187 537.919 40.8533 537.919 41.568C537.919 41.7813 537.914 41.984 537.903 42.176C537.893 42.368 537.877 42.5387 537.855 42.688H531.471V41.168H536.895L535.839 41.552C535.839 40.88 535.685 40.3627 535.375 40C535.077 39.6373 534.65 39.456 534.095 39.456C533.69 39.456 533.338 39.552 533.039 39.744C532.751 39.936 532.533 40.224 532.383 40.608C532.234 40.9813 532.159 41.456 532.159 42.032C532.159 42.5973 532.239 43.0667 532.399 43.44C532.57 43.8027 532.805 44.0747 533.103 44.256C533.413 44.4373 533.781 44.528 534.207 44.528C534.677 44.528 535.055 44.4373 535.343 44.256C535.631 44.0747 535.855 43.824 536.015 43.504L537.759 44.176C537.589 44.592 537.327 44.9493 536.975 45.248C536.634 45.5467 536.223 45.776 535.743 45.936C535.274 46.0853 534.767 46.16 534.223 46.16ZM539.777 46V38H541.745L541.825 39.44C542.092 38.9067 542.454 38.5067 542.913 38.24C543.382 37.9733 543.9 37.84 544.465 37.84C545.041 37.84 545.558 37.9733 546.017 38.24C546.486 38.5067 546.838 38.9013 547.073 39.424C547.244 39.072 547.473 38.7787 547.761 38.544C548.049 38.3093 548.369 38.1333 548.721 38.016C549.073 37.8987 549.43 37.84 549.793 37.84C550.316 37.84 550.79 37.9467 551.217 38.16C551.654 38.3733 552.001 38.6933 552.257 39.12C552.513 39.5467 552.641 40.0907 552.641 40.752V46H550.449V41.184C550.449 40.5973 550.321 40.1813 550.065 39.936C549.809 39.6907 549.478 39.568 549.073 39.568C548.753 39.568 548.454 39.648 548.177 39.808C547.91 39.968 547.697 40.208 547.537 40.528C547.388 40.8373 547.313 41.2267 547.313 41.696V46H545.121V41.184C545.121 40.5973 544.988 40.1813 544.721 39.936C544.465 39.6907 544.134 39.568 543.729 39.568C543.452 39.568 543.174 39.6427 542.897 39.792C542.63 39.9413 542.406 40.176 542.225 40.496C542.054 40.816 541.969 41.2373 541.969 41.76V46H539.777ZM564.353 40.896C564.353 40.4373 564.219 40.08 563.953 39.824C563.697 39.568 563.355 39.44 562.929 39.44C562.534 39.44 562.187 39.5413 561.889 39.744C561.59 39.9467 561.371 40.2827 561.233 40.752L559.361 40.176C559.542 39.472 559.937 38.9067 560.545 38.48C561.163 38.0533 561.99 37.84 563.025 37.84C563.729 37.84 564.342 37.952 564.865 38.176C565.387 38.3893 565.793 38.7147 566.081 39.152C566.379 39.5893 566.529 40.1387 566.529 40.8V44.048C566.529 44.4533 566.721 44.656 567.105 44.656C567.286 44.656 567.457 44.6293 567.617 44.576L567.489 45.936C567.211 46.0747 566.865 46.144 566.449 46.144C566.075 46.144 565.739 46.08 565.441 45.952C565.142 45.824 564.907 45.632 564.737 45.376C564.566 45.1093 564.481 44.7787 564.481 44.384V44.32L564.865 44.256C564.801 44.6613 564.625 45.008 564.337 45.296C564.049 45.5733 563.697 45.7867 563.281 45.936C562.875 46.0853 562.454 46.16 562.017 46.16C561.473 46.16 561.003 46.08 560.609 45.92C560.214 45.7493 559.91 45.504 559.697 45.184C559.483 44.864 559.377 44.4693 559.377 44C559.377 43.4027 559.569 42.9173 559.953 42.544C560.337 42.16 560.886 41.8987 561.601 41.76L564.609 41.152L564.593 42.512L562.673 42.896C562.31 42.9707 562.033 43.072 561.841 43.2C561.659 43.3173 561.569 43.5147 561.569 43.792C561.569 44.0587 561.665 44.2613 561.857 44.4C562.059 44.5387 562.299 44.608 562.577 44.608C562.801 44.608 563.019 44.5813 563.233 44.528C563.446 44.4747 563.638 44.3893 563.809 44.272C563.979 44.1547 564.113 43.9947 564.209 43.792C564.305 43.5893 564.353 43.344 564.353 43.056V40.896ZM568.98 49.36V38H570.948L571.092 40.544L570.82 40.256C570.916 39.7867 571.092 39.3707 571.348 39.008C571.615 38.6453 571.951 38.3627 572.356 38.16C572.761 37.9467 573.215 37.84 573.716 37.84C574.367 37.84 574.948 38.0053 575.46 38.336C575.972 38.6667 576.372 39.1413 576.66 39.76C576.959 40.368 577.108 41.1093 577.108 41.984C577.108 42.8587 576.959 43.6107 576.66 44.24C576.361 44.8587 575.951 45.3333 575.428 45.664C574.916 45.9947 574.329 46.16 573.668 46.16C572.964 46.16 572.377 45.9627 571.908 45.568C571.449 45.1733 571.135 44.6773 570.964 44.08L571.172 43.744V49.36H568.98ZM573.028 44.48C573.615 44.48 574.073 44.272 574.404 43.856C574.745 43.4293 574.916 42.8107 574.916 42C574.916 41.1893 574.751 40.576 574.42 40.16C574.1 39.7333 573.647 39.52 573.06 39.52C572.687 39.52 572.356 39.6213 572.068 39.824C571.791 40.016 571.572 40.2987 571.412 40.672C571.252 41.0347 571.172 41.4773 571.172 42C571.172 42.512 571.247 42.9547 571.396 43.328C571.545 43.7013 571.759 43.9893 572.036 44.192C572.324 44.384 572.655 44.48 573.028 44.48ZM582.211 46.16C581.401 46.16 580.659 46.016 579.987 45.728C579.326 45.44 578.787 45.0347 578.371 44.512L579.635 43.232C579.891 43.616 580.233 43.9307 580.659 44.176C581.086 44.4213 581.593 44.544 582.179 44.544C582.595 44.544 582.926 44.4853 583.171 44.368C583.427 44.24 583.555 44.0427 583.555 43.776C583.555 43.6053 583.497 43.4613 583.379 43.344C583.262 43.216 583.027 43.1147 582.675 43.04L581.267 42.752C580.339 42.56 579.678 42.272 579.283 41.888C578.899 41.4933 578.707 40.9867 578.707 40.368C578.707 39.9307 578.835 39.52 579.091 39.136C579.358 38.752 579.753 38.4427 580.275 38.208C580.798 37.9627 581.449 37.84 582.227 37.84C583.027 37.84 583.721 37.968 584.307 38.224C584.905 38.4693 585.374 38.8373 585.715 39.328L584.403 40.608C584.169 40.2347 583.859 39.952 583.475 39.76C583.102 39.5573 582.707 39.456 582.291 39.456C581.993 39.456 581.737 39.488 581.523 39.552C581.31 39.616 581.15 39.7067 581.043 39.824C580.937 39.9307 580.883 40.0693 580.883 40.24C580.883 40.4107 580.958 40.56 581.107 40.688C581.257 40.8053 581.529 40.9067 581.923 40.992L583.555 41.328C584.345 41.488 584.91 41.76 585.251 42.144C585.593 42.5173 585.763 42.9707 585.763 43.504C585.763 44.016 585.625 44.4747 585.347 44.88C585.081 45.2747 584.681 45.5893 584.147 45.824C583.625 46.048 582.979 46.16 582.211 46.16ZM591.192 46.16C590.349 46.16 589.613 45.9947 588.984 45.664C588.365 45.3333 587.885 44.8587 587.544 44.24C587.203 43.6213 587.032 42.8747 587.032 42C587.032 41.1253 587.203 40.3787 587.544 39.76C587.885 39.1413 588.36 38.6667 588.968 38.336C589.587 38.0053 590.291 37.84 591.08 37.84C591.891 37.84 592.579 38.0053 593.144 38.336C593.709 38.656 594.141 39.0987 594.44 39.664C594.739 40.2187 594.888 40.8533 594.888 41.568C594.888 41.7813 594.883 41.984 594.872 42.176C594.861 42.368 594.845 42.5387 594.824 42.688H588.44V41.168H593.864L592.808 41.552C592.808 40.88 592.653 40.3627 592.344 40C592.045 39.6373 591.619 39.456 591.064 39.456C590.659 39.456 590.307 39.552 590.008 39.744C589.72 39.936 589.501 40.224 589.352 40.608C589.203 40.9813 589.128 41.456 589.128 42.032C589.128 42.5973 589.208 43.0667 589.368 43.44C589.539 43.8027 589.773 44.0747 590.072 44.256C590.381 44.4373 590.749 44.528 591.176 44.528C591.645 44.528 592.024 44.4373 592.312 44.256C592.6 44.0747 592.824 43.824 592.984 43.504L594.728 44.176C594.557 44.592 594.296 44.9493 593.944 45.248C593.603 45.5467 593.192 45.776 592.712 45.936C592.243 46.0853 591.736 46.16 591.192 46.16ZM599.437 35.552V43.392C599.437 43.776 599.533 44.0587 599.725 44.24C599.928 44.4107 600.2 44.496 600.541 44.496C600.808 44.496 601.042 44.4587 601.245 44.384C601.448 44.2987 601.629 44.1867 601.789 44.048L602.141 45.504C601.885 45.7067 601.565 45.8667 601.181 45.984C600.797 46.1013 600.392 46.16 599.965 46.16C599.432 46.16 598.957 46.08 598.541 45.92C598.136 45.76 597.816 45.504 597.581 45.152C597.357 44.8 597.245 44.3307 597.245 43.744V36.16L599.437 35.552ZM601.997 38V39.632H595.773V38H601.997Z" fill="white"/>
<path d="M402.9 45.84C397.66 45.84 393.54 43.86 390.54 39.9C387.58 35.9 386.1 30.6 386.1 24C386.1 17.4 387.58 12.12 390.54 8.16C393.54 4.16 397.66 2.16 402.9 2.16C408.18 2.16 412.3 4.16 415.26 8.16C418.22 12.12 419.7 17.4 419.7 24C419.7 30.6 418.22 35.9 415.26 39.9C412.3 43.86 408.18 45.84 402.9 45.84ZM396.54 34.26C397.98 36.58 400.1 37.74 402.9 37.74C405.7 37.74 407.82 36.56 409.26 34.2C410.74 31.84 411.48 28.44 411.48 24C411.48 19.52 410.74 16.1 409.26 13.74C407.82 11.38 405.7 10.2 402.9 10.2C400.1 10.2 397.98 11.38 396.54 13.74C395.1 16.1 394.38 19.52 394.38 24C394.38 28.48 395.1 31.9 396.54 34.26ZM422.358 45V38.82L436.698 24.06C439.898 20.7 441.498 17.9 441.498 15.66C441.498 14.02 440.978 12.7 439.938 11.7C438.938 10.7 437.638 10.2 436.038 10.2C432.878 10.2 430.538 11.84 429.018 15.12L422.058 11.04C423.378 8.16 425.278 5.96 427.758 4.44C430.238 2.92 432.958 2.16 435.918 2.16C439.718 2.16 442.978 3.36 445.698 5.76C448.418 8.12 449.778 11.32 449.778 15.36C449.778 19.72 447.478 24.2 442.878 28.8L434.658 37.02H450.438V45H422.358Z" fill="white"/>
<path d="M869.584 16.224H875.152V18H867.376V7.44H869.584V16.224ZM880.269 9.84C881.079 9.84 881.789 10.0053 882.397 10.336C883.015 10.6667 883.495 11.1413 883.837 11.76C884.189 12.3787 884.365 13.1253 884.365 14C884.365 14.864 884.189 15.6107 883.837 16.24C883.495 16.8587 883.015 17.3333 882.397 17.664C881.789 17.9947 881.079 18.16 880.269 18.16C879.469 18.16 878.759 17.9947 878.141 17.664C877.522 17.3333 877.037 16.8587 876.685 16.24C876.343 15.6107 876.173 14.864 876.173 14C876.173 13.1253 876.343 12.3787 876.685 11.76C877.037 11.1413 877.522 10.6667 878.141 10.336C878.759 10.0053 879.469 9.84 880.269 9.84ZM880.269 11.472C879.863 11.472 879.517 11.568 879.229 11.76C878.951 11.9413 878.738 12.2187 878.589 12.592C878.439 12.9653 878.365 13.4347 878.365 14C878.365 14.5653 878.439 15.0347 878.589 15.408C878.738 15.7813 878.951 16.064 879.229 16.256C879.517 16.4373 879.863 16.528 880.269 16.528C880.663 16.528 880.999 16.4373 881.277 16.256C881.565 16.064 881.783 15.7813 881.933 15.408C882.082 15.0347 882.157 14.5653 882.157 14C882.157 13.4347 882.082 12.9653 881.933 12.592C881.783 12.2187 881.565 11.9413 881.277 11.76C880.999 11.568 880.663 11.472 880.269 11.472ZM886.199 18V10H888.103L888.247 11.568C888.46 11.0133 888.77 10.5867 889.175 10.288C889.591 9.98933 890.108 9.84 890.727 9.84C890.908 9.84 891.074 9.856 891.223 9.888C891.372 9.92 891.495 9.96267 891.591 10.016L891.335 11.856C891.228 11.8133 891.095 11.7813 890.935 11.76C890.786 11.7387 890.588 11.728 890.343 11.728C890.023 11.728 889.714 11.808 889.415 11.968C889.116 12.1173 888.871 12.352 888.679 12.672C888.487 12.9813 888.391 13.376 888.391 13.856V18H886.199ZM896.505 18.16C895.662 18.16 894.926 17.9947 894.297 17.664C893.678 17.3333 893.198 16.8587 892.857 16.24C892.515 15.6213 892.345 14.8747 892.345 14C892.345 13.1253 892.515 12.3787 892.857 11.76C893.198 11.1413 893.673 10.6667 894.281 10.336C894.899 10.0053 895.603 9.84 896.393 9.84C897.203 9.84 897.891 10.0053 898.457 10.336C899.022 10.656 899.454 11.0987 899.753 11.664C900.051 12.2187 900.201 12.8533 900.201 13.568C900.201 13.7813 900.195 13.984 900.185 14.176C900.174 14.368 900.158 14.5387 900.137 14.688H893.753V13.168H899.177L898.121 13.552C898.121 12.88 897.966 12.3627 897.657 12C897.358 11.6373 896.931 11.456 896.377 11.456C895.971 11.456 895.619 11.552 895.321 11.744C895.033 11.936 894.814 12.224 894.665 12.608C894.515 12.9813 894.441 13.456 894.441 14.032C894.441 14.5973 894.521 15.0667 894.681 15.44C894.851 15.8027 895.086 16.0747 895.385 16.256C895.694 16.4373 896.062 16.528 896.489 16.528C896.958 16.528 897.337 16.4373 897.625 16.256C897.913 16.0747 898.137 15.824 898.297 15.504L900.041 16.176C899.87 16.592 899.609 16.9493 899.257 17.248C898.915 17.5467 898.505 17.776 898.025 17.936C897.555 18.0853 897.049 18.16 896.505 18.16ZM902.058 18V10H904.026L904.106 11.44C904.373 10.9067 904.736 10.5067 905.194 10.24C905.664 9.97333 906.181 9.84 906.746 9.84C907.322 9.84 907.84 9.97333 908.298 10.24C908.768 10.5067 909.12 10.9013 909.354 11.424C909.525 11.072 909.754 10.7787 910.042 10.544C910.33 10.3093 910.65 10.1333 911.002 10.016C911.354 9.89867 911.712 9.84 912.074 9.84C912.597 9.84 913.072 9.94667 913.498 10.16C913.936 10.3733 914.282 10.6933 914.538 11.12C914.794 11.5467 914.922 12.0907 914.922 12.752V18H912.73V13.184C912.73 12.5973 912.602 12.1813 912.346 11.936C912.09 11.6907 911.76 11.568 911.354 11.568C911.034 11.568 910.736 11.648 910.458 11.808C910.192 11.968 909.978 12.208 909.818 12.528C909.669 12.8373 909.594 13.2267 909.594 13.696V18H907.402V13.184C907.402 12.5973 907.269 12.1813 907.002 11.936C906.746 11.6907 906.416 11.568 906.01 11.568C905.733 11.568 905.456 11.6427 905.178 11.792C904.912 11.9413 904.688 12.176 904.506 12.496C904.336 12.816 904.25 13.2373 904.25 13.76V18H902.058ZM924.506 7.44V18H922.298V7.44H924.506ZM926.98 21.36V10H928.948L929.092 12.544L928.82 12.256C928.916 11.7867 929.092 11.3707 929.348 11.008C929.615 10.6453 929.951 10.3627 930.356 10.16C930.761 9.94667 931.215 9.84 931.716 9.84C932.367 9.84 932.948 10.0053 933.46 10.336C933.972 10.6667 934.372 11.1413 934.66 11.76C934.959 12.368 935.108 13.1093 935.108 13.984C935.108 14.8587 934.959 15.6107 934.66 16.24C934.361 16.8587 933.951 17.3333 933.428 17.664C932.916 17.9947 932.329 18.16 931.668 18.16C930.964 18.16 930.377 17.9627 929.908 17.568C929.449 17.1733 929.135 16.6773 928.964 16.08L929.172 15.744V21.36H926.98ZM931.028 16.48C931.615 16.48 932.073 16.272 932.404 15.856C932.745 15.4293 932.916 14.8107 932.916 14C932.916 13.1893 932.751 12.576 932.42 12.16C932.1 11.7333 931.647 11.52 931.06 11.52C930.687 11.52 930.356 11.6213 930.068 11.824C929.791 12.016 929.572 12.2987 929.412 12.672C929.252 13.0347 929.172 13.4773 929.172 14C929.172 14.512 929.247 14.9547 929.396 15.328C929.545 15.7013 929.759 15.9893 930.036 16.192C930.324 16.384 930.655 16.48 931.028 16.48ZM940.211 18.16C939.401 18.16 938.659 18.016 937.987 17.728C937.326 17.44 936.787 17.0347 936.371 16.512L937.635 15.232C937.891 15.616 938.233 15.9307 938.659 16.176C939.086 16.4213 939.593 16.544 940.179 16.544C940.595 16.544 940.926 16.4853 941.171 16.368C941.427 16.24 941.555 16.0427 941.555 15.776C941.555 15.6053 941.497 15.4613 941.379 15.344C941.262 15.216 941.027 15.1147 940.675 15.04L939.267 14.752C938.339 14.56 937.678 14.272 937.283 13.888C936.899 13.4933 936.707 12.9867 936.707 12.368C936.707 11.9307 936.835 11.52 937.091 11.136C937.358 10.752 937.753 10.4427 938.275 10.208C938.798 9.96267 939.449 9.84 940.227 9.84C941.027 9.84 941.721 9.968 942.307 10.224C942.905 10.4693 943.374 10.8373 943.715 11.328L942.403 12.608C942.169 12.2347 941.859 11.952 941.475 11.76C941.102 11.5573 940.707 11.456 940.291 11.456C939.993 11.456 939.737 11.488 939.523 11.552C939.31 11.616 939.15 11.7067 939.043 11.824C938.937 11.9307 938.883 12.0693 938.883 12.24C938.883 12.4107 938.958 12.56 939.107 12.688C939.257 12.8053 939.529 12.9067 939.923 12.992L941.555 13.328C942.345 13.488 942.91 13.76 943.251 14.144C943.593 14.5173 943.763 14.9707 943.763 15.504C943.763 16.016 943.625 16.4747 943.347 16.88C943.081 17.2747 942.681 17.5893 942.147 17.824C941.625 18.048 940.979 18.16 940.211 18.16ZM948.295 18.16C947.762 18.16 947.282 18.064 946.855 17.872C946.429 17.68 946.087 17.376 945.831 16.96C945.586 16.5333 945.463 15.984 945.463 15.312V10H947.655V14.784C947.655 15.4027 947.783 15.8347 948.039 16.08C948.295 16.3147 948.663 16.432 949.143 16.432C949.367 16.432 949.586 16.3947 949.799 16.32C950.013 16.2347 950.199 16.1067 950.359 15.936C950.53 15.7653 950.663 15.5467 950.759 15.28C950.855 15.0027 950.903 14.6773 950.903 14.304V10H953.095V18H951.143L951.063 16.608C950.797 17.1413 950.429 17.536 949.959 17.792C949.501 18.0373 948.946 18.16 948.295 18.16ZM955.402 18V10H957.37L957.45 11.44C957.717 10.9067 958.079 10.5067 958.538 10.24C959.007 9.97333 959.525 9.84 960.09 9.84C960.666 9.84 961.183 9.97333 961.642 10.24C962.111 10.5067 962.463 10.9013 962.698 11.424C962.869 11.072 963.098 10.7787 963.386 10.544C963.674 10.3093 963.994 10.1333 964.346 10.016C964.698 9.89867 965.055 9.84 965.418 9.84C965.941 9.84 966.415 9.94667 966.842 10.16C967.279 10.3733 967.626 10.6933 967.882 11.12C968.138 11.5467 968.266 12.0907 968.266 12.752V18H966.074V13.184C966.074 12.5973 965.946 12.1813 965.69 11.936C965.434 11.6907 965.103 11.568 964.698 11.568C964.378 11.568 964.079 11.648 963.802 11.808C963.535 11.968 963.322 12.208 963.162 12.528C963.013 12.8373 962.938 13.2267 962.938 13.696V18H960.746V13.184C960.746 12.5973 960.613 12.1813 960.346 11.936C960.09 11.6907 959.759 11.568 959.354 11.568C959.077 11.568 958.799 11.6427 958.522 11.792C958.255 11.9413 958.031 12.176 957.85 12.496C957.679 12.816 957.594 13.2373 957.594 13.76V18H955.402ZM871.456 33.44C873.109 33.44 874.389 33.8987 875.296 34.816C876.203 35.7227 876.656 37.024 876.656 38.72C876.656 40.4053 876.203 41.7067 875.296 42.624C874.389 43.5413 873.109 44 871.456 44H867.376V33.44H871.456ZM871.344 42.24C872.347 42.24 873.099 41.9413 873.6 41.344C874.112 40.736 874.368 39.8613 874.368 38.72C874.368 37.5787 874.112 36.7093 873.6 36.112C873.099 35.504 872.347 35.2 871.344 35.2H869.584V42.24H871.344ZM882.3 35.84C883.111 35.84 883.82 36.0053 884.428 36.336C885.047 36.6667 885.527 37.1413 885.868 37.76C886.22 38.3787 886.396 39.1253 886.396 40C886.396 40.864 886.22 41.6107 885.868 42.24C885.527 42.8587 885.047 43.3333 884.428 43.664C883.82 43.9947 883.111 44.16 882.3 44.16C881.5 44.16 880.791 43.9947 880.172 43.664C879.553 43.3333 879.068 42.8587 878.716 42.24C878.375 41.6107 878.204 40.864 878.204 40C878.204 39.1253 878.375 38.3787 878.716 37.76C879.068 37.1413 879.553 36.6667 880.172 36.336C880.791 36.0053 881.5 35.84 882.3 35.84ZM882.3 37.472C881.895 37.472 881.548 37.568 881.26 37.76C880.983 37.9413 880.769 38.2187 880.62 38.592C880.471 38.9653 880.396 39.4347 880.396 40C880.396 40.5653 880.471 41.0347 880.62 41.408C880.769 41.7813 880.983 42.064 881.26 42.256C881.548 42.4373 881.895 42.528 882.3 42.528C882.695 42.528 883.031 42.4373 883.308 42.256C883.596 42.064 883.815 41.7813 883.964 41.408C884.113 41.0347 884.188 40.5653 884.188 40C884.188 39.4347 884.113 38.9653 883.964 38.592C883.815 38.2187 883.596 37.9413 883.308 37.76C883.031 37.568 882.695 37.472 882.3 37.472ZM890.39 32.496V41.536C890.39 41.9093 890.454 42.1707 890.582 42.32C890.71 42.4693 890.923 42.544 891.222 42.544C891.403 42.544 891.553 42.5333 891.67 42.512C891.787 42.48 891.937 42.4373 892.118 42.384L891.926 43.824C891.745 43.9307 891.515 44.0107 891.238 44.064C890.971 44.128 890.705 44.16 890.438 44.16C889.659 44.16 889.089 43.9733 888.726 43.6C888.374 43.216 888.198 42.608 888.198 41.776V32.496H890.39ZM896.988 35.84C897.798 35.84 898.508 36.0053 899.116 36.336C899.734 36.6667 900.214 37.1413 900.556 37.76C900.908 38.3787 901.084 39.1253 901.084 40C901.084 40.864 900.908 41.6107 900.556 42.24C900.214 42.8587 899.734 43.3333 899.116 43.664C898.508 43.9947 897.798 44.16 896.988 44.16C896.188 44.16 895.478 43.9947 894.86 43.664C894.241 43.3333 893.756 42.8587 893.404 42.24C893.062 41.6107 892.892 40.864 892.892 40C892.892 39.1253 893.062 38.3787 893.404 37.76C893.756 37.1413 894.241 36.6667 894.86 36.336C895.478 36.0053 896.188 35.84 896.988 35.84ZM896.988 37.472C896.582 37.472 896.236 37.568 895.948 37.76C895.67 37.9413 895.457 38.2187 895.308 38.592C895.158 38.9653 895.084 39.4347 895.084 40C895.084 40.5653 895.158 41.0347 895.308 41.408C895.457 41.7813 895.67 42.064 895.948 42.256C896.236 42.4373 896.582 42.528 896.988 42.528C897.382 42.528 897.718 42.4373 897.996 42.256C898.284 42.064 898.502 41.7813 898.652 41.408C898.801 41.0347 898.876 40.5653 898.876 40C898.876 39.4347 898.801 38.9653 898.652 38.592C898.502 38.2187 898.284 37.9413 897.996 37.76C897.718 37.568 897.382 37.472 896.988 37.472ZM902.918 44V36H904.822L904.966 37.568C905.179 37.0133 905.488 36.5867 905.894 36.288C906.31 35.9893 906.827 35.84 907.446 35.84C907.627 35.84 907.792 35.856 907.942 35.888C908.091 35.92 908.214 35.9627 908.31 36.016L908.054 37.856C907.947 37.8133 907.814 37.7813 907.654 37.76C907.504 37.7387 907.307 37.728 907.062 37.728C906.742 37.728 906.432 37.808 906.134 37.968C905.835 38.1173 905.59 38.352 905.398 38.672C905.206 38.9813 905.11 39.376 905.11 39.856V44H902.918ZM913.223 44.16C912.381 44.16 911.645 43.9947 911.015 43.664C910.397 43.3333 909.917 42.8587 909.575 42.24C909.234 41.6213 909.063 40.8747 909.063 40C909.063 39.1253 909.234 38.3787 909.575 37.76C909.917 37.1413 910.391 36.6667 910.999 36.336C911.618 36.0053 912.322 35.84 913.111 35.84C913.922 35.84 914.61 36.0053 915.175 36.336C915.741 36.656 916.173 37.0987 916.471 37.664C916.77 38.2187 916.919 38.8533 916.919 39.568C916.919 39.7813 916.914 39.984 916.903 40.176C916.893 40.368 916.877 40.5387 916.855 40.688H910.471V39.168H915.895L914.839 39.552C914.839 38.88 914.685 38.3627 914.375 38C914.077 37.6373 913.65 37.456 913.095 37.456C912.69 37.456 912.338 37.552 912.039 37.744C911.751 37.936 911.533 38.224 911.383 38.608C911.234 38.9813 911.159 39.456 911.159 40.032C911.159 40.5973 911.239 41.0667 911.399 41.44C911.57 41.8027 911.805 42.0747 912.103 42.256C912.413 42.4373 912.781 42.528 913.207 42.528C913.677 42.528 914.055 42.4373 914.343 42.256C914.631 42.0747 914.855 41.824 915.015 41.504L916.759 42.176C916.589 42.592 916.327 42.9493 915.975 43.248C915.634 43.5467 915.223 43.776 914.743 43.936C914.274 44.0853 913.767 44.16 913.223 44.16ZM918.777 44V36H920.745L920.825 37.44C921.092 36.9067 921.454 36.5067 921.913 36.24C922.382 35.9733 922.9 35.84 923.465 35.84C924.041 35.84 924.558 35.9733 925.017 36.24C925.486 36.5067 925.838 36.9013 926.073 37.424C926.244 37.072 926.473 36.7787 926.761 36.544C927.049 36.3093 927.369 36.1333 927.721 36.016C928.073 35.8987 928.43 35.84 928.793 35.84C929.316 35.84 929.79 35.9467 930.217 36.16C930.654 36.3733 931.001 36.6933 931.257 37.12C931.513 37.5467 931.641 38.0907 931.641 38.752V44H929.449V39.184C929.449 38.5973 929.321 38.1813 929.065 37.936C928.809 37.6907 928.478 37.568 928.073 37.568C927.753 37.568 927.454 37.648 927.177 37.808C926.91 37.968 926.697 38.208 926.537 38.528C926.388 38.8373 926.313 39.2267 926.313 39.696V44H924.121V39.184C924.121 38.5973 923.988 38.1813 923.721 37.936C923.465 37.6907 923.134 37.568 922.729 37.568C922.452 37.568 922.174 37.6427 921.897 37.792C921.63 37.9413 921.406 38.176 921.225 38.496C921.054 38.816 920.969 39.2373 920.969 39.76V44H918.777ZM943.353 38.896C943.353 38.4373 943.219 38.08 942.953 37.824C942.697 37.568 942.355 37.44 941.929 37.44C941.534 37.44 941.187 37.5413 940.889 37.744C940.59 37.9467 940.371 38.2827 940.233 38.752L938.361 38.176C938.542 37.472 938.937 36.9067 939.545 36.48C940.163 36.0533 940.99 35.84 942.025 35.84C942.729 35.84 943.342 35.952 943.865 36.176C944.387 36.3893 944.793 36.7147 945.081 37.152C945.379 37.5893 945.529 38.1387 945.529 38.8V42.048C945.529 42.4533 945.721 42.656 946.105 42.656C946.286 42.656 946.457 42.6293 946.617 42.576L946.489 43.936C946.211 44.0747 945.865 44.144 945.449 44.144C945.075 44.144 944.739 44.08 944.441 43.952C944.142 43.824 943.907 43.632 943.737 43.376C943.566 43.1093 943.481 42.7787 943.481 42.384V42.32L943.865 42.256C943.801 42.6613 943.625 43.008 943.337 43.296C943.049 43.5733 942.697 43.7867 942.281 43.936C941.875 44.0853 941.454 44.16 941.017 44.16C940.473 44.16 940.003 44.08 939.609 43.92C939.214 43.7493 938.91 43.504 938.697 43.184C938.483 42.864 938.377 42.4693 938.377 42C938.377 41.4027 938.569 40.9173 938.953 40.544C939.337 40.16 939.886 39.8987 940.601 39.76L943.609 39.152L943.593 40.512L941.673 40.896C941.31 40.9707 941.033 41.072 940.841 41.2C940.659 41.3173 940.569 41.5147 940.569 41.792C940.569 42.0587 940.665 42.2613 940.857 42.4C941.059 42.5387 941.299 42.608 941.577 42.608C941.801 42.608 942.019 42.5813 942.233 42.528C942.446 42.4747 942.638 42.3893 942.809 42.272C942.979 42.1547 943.113 41.9947 943.209 41.792C943.305 41.5893 943.353 41.344 943.353 41.056V38.896ZM947.98 47.36V36H949.948L950.092 38.544L949.82 38.256C949.916 37.7867 950.092 37.3707 950.348 37.008C950.615 36.6453 950.951 36.3627 951.356 36.16C951.761 35.9467 952.215 35.84 952.716 35.84C953.367 35.84 953.948 36.0053 954.46 36.336C954.972 36.6667 955.372 37.1413 955.66 37.76C955.959 38.368 956.108 39.1093 956.108 39.984C956.108 40.8587 955.959 41.6107 955.66 42.24C955.361 42.8587 954.951 43.3333 954.428 43.664C953.916 43.9947 953.329 44.16 952.668 44.16C951.964 44.16 951.377 43.9627 950.908 43.568C950.449 43.1733 950.135 42.6773 949.964 42.08L950.172 41.744V47.36H947.98ZM952.028 42.48C952.615 42.48 953.073 42.272 953.404 41.856C953.745 41.4293 953.916 40.8107 953.916 40C953.916 39.1893 953.751 38.576 953.42 38.16C953.1 37.7333 952.647 37.52 952.06 37.52C951.687 37.52 951.356 37.6213 951.068 37.824C950.791 38.016 950.572 38.2987 950.412 38.672C950.252 39.0347 950.172 39.4773 950.172 40C950.172 40.512 950.247 40.9547 950.396 41.328C950.545 41.7013 950.759 41.9893 951.036 42.192C951.324 42.384 951.655 42.48 952.028 42.48ZM961.211 44.16C960.401 44.16 959.659 44.016 958.987 43.728C958.326 43.44 957.787 43.0347 957.371 42.512L958.635 41.232C958.891 41.616 959.233 41.9307 959.659 42.176C960.086 42.4213 960.593 42.544 961.179 42.544C961.595 42.544 961.926 42.4853 962.171 42.368C962.427 42.24 962.555 42.0427 962.555 41.776C962.555 41.6053 962.497 41.4613 962.379 41.344C962.262 41.216 962.027 41.1147 961.675 41.04L960.267 40.752C959.339 40.56 958.678 40.272 958.283 39.888C957.899 39.4933 957.707 38.9867 957.707 38.368C957.707 37.9307 957.835 37.52 958.091 37.136C958.358 36.752 958.753 36.4427 959.275 36.208C959.798 35.9627 960.449 35.84 961.227 35.84C962.027 35.84 962.721 35.968 963.307 36.224C963.905 36.4693 964.374 36.8373 964.715 37.328L963.403 38.608C963.169 38.2347 962.859 37.952 962.475 37.76C962.102 37.5573 961.707 37.456 961.291 37.456C960.993 37.456 960.737 37.488 960.523 37.552C960.31 37.616 960.15 37.7067 960.043 37.824C959.937 37.9307 959.883 38.0693 959.883 38.24C959.883 38.4107 959.958 38.56 960.107 38.688C960.257 38.8053 960.529 38.9067 960.923 38.992L962.555 39.328C963.345 39.488 963.91 39.76 964.251 40.144C964.593 40.5173 964.763 40.9707 964.763 41.504C964.763 42.016 964.625 42.4747 964.347 42.88C964.081 43.2747 963.681 43.5893 963.147 43.824C962.625 44.048 961.979 44.16 961.211 44.16ZM970.192 44.16C969.349 44.16 968.613 43.9947 967.984 43.664C967.365 43.3333 966.885 42.8587 966.544 42.24C966.203 41.6213 966.032 40.8747 966.032 40C966.032 39.1253 966.203 38.3787 966.544 37.76C966.885 37.1413 967.36 36.6667 967.968 36.336C968.587 36.0053 969.291 35.84 970.08 35.84C970.891 35.84 971.579 36.0053 972.144 36.336C972.709 36.656 973.141 37.0987 973.44 37.664C973.739 38.2187 973.888 38.8533 973.888 39.568C973.888 39.7813 973.883 39.984 973.872 40.176C973.861 40.368 973.845 40.5387 973.824 40.688H967.44V39.168H972.864L971.808 39.552C971.808 38.88 971.653 38.3627 971.344 38C971.045 37.6373 970.619 37.456 970.064 37.456C969.659 37.456 969.307 37.552 969.008 37.744C968.72 37.936 968.501 38.224 968.352 38.608C968.203 38.9813 968.128 39.456 968.128 40.032C968.128 40.5973 968.208 41.0667 968.368 41.44C968.539 41.8027 968.773 42.0747 969.072 42.256C969.381 42.4373 969.749 42.528 970.176 42.528C970.645 42.528 971.024 42.4373 971.312 42.256C971.6 42.0747 971.824 41.824 971.984 41.504L973.728 42.176C973.557 42.592 973.296 42.9493 972.944 43.248C972.603 43.5467 972.192 43.776 971.712 43.936C971.243 44.0853 970.736 44.16 970.192 44.16ZM978.437 33.552V41.392C978.437 41.776 978.533 42.0587 978.725 42.24C978.928 42.4107 979.2 42.496 979.541 42.496C979.808 42.496 980.042 42.4587 980.245 42.384C980.448 42.2987 980.629 42.1867 980.789 42.048L981.141 43.504C980.885 43.7067 980.565 43.8667 980.181 43.984C979.797 44.1013 979.392 44.16 978.965 44.16C978.432 44.16 977.957 44.08 977.541 43.92C977.136 43.76 976.816 43.504 976.581 43.152C976.357 42.8 976.245 42.3307 976.245 41.744V34.16L978.437 33.552ZM980.997 36V37.632H974.773V36H980.997Z" fill="white"/>
<path d="M782.9 46.84C777.66 46.84 773.54 44.86 770.54 40.9C767.58 36.9 766.1 31.6 766.1 25C766.1 18.4 767.58 13.12 770.54 9.16C773.54 5.16 777.66 3.16 782.9 3.16C788.18 3.16 792.3 5.16 795.26 9.16C798.22 13.12 799.7 18.4 799.7 25C799.7 31.6 798.22 36.9 795.26 40.9C792.3 44.86 788.18 46.84 782.9 46.84ZM776.54 35.26C777.98 37.58 780.1 38.74 782.9 38.74C785.7 38.74 787.82 37.56 789.26 35.2C790.74 32.84 791.48 29.44 791.48 25C791.48 20.52 790.74 17.1 789.26 14.74C787.82 12.38 785.7 11.2 782.9 11.2C780.1 11.2 777.98 12.38 776.54 14.74C775.1 17.1 774.38 20.52 774.38 25C774.38 29.48 775.1 32.9 776.54 35.26ZM821.274 21.04C824.114 21.88 826.414 23.36 828.174 25.48C829.974 27.56 830.874 30.08 830.874 33.04C830.874 37.36 829.414 40.74 826.494 43.18C823.614 45.62 820.074 46.84 815.874 46.84C812.594 46.84 809.654 46.1 807.054 44.62C804.494 43.1 802.634 40.88 801.474 37.96L808.554 33.88C809.594 37.12 812.034 38.74 815.874 38.74C817.994 38.74 819.634 38.24 820.794 37.24C821.994 36.2 822.594 34.8 822.594 33.04C822.594 31.32 821.994 29.94 820.794 28.9C819.634 27.86 817.994 27.34 815.874 27.34H814.074L810.894 22.54L819.174 11.74H802.734V4H829.134V10.84L821.274 21.04Z" fill="white"/>
</svg>
