<svg width="1110" height="313" viewBox="0 0 1110 313" fill="none" xmlns="http://www.w3.org/2000/svg">
<rect x="0.5" y="0.5" width="1109" height="312" stroke="#FCD54C"/>
<path d="M98.8 89.75L100.6 83H102.4L101.2 89.75H98.8ZM103 89.75L104.8 83H106.6L105.4 89.75H103ZM118.896 83C121.756 83 124.116 84.02 125.976 86.06C127.856 88.08 128.796 90.56 128.796 93.5C128.796 96.44 127.856 98.93 125.976 100.97C124.116 102.99 121.756 104 118.896 104H110.796V83H118.896ZM118.896 102.02C121.196 102.02 123.076 101.2 124.536 99.56C126.016 97.92 126.756 95.9 126.756 93.5C126.756 91.1 126.016 89.08 124.536 87.44C123.076 85.8 121.196 84.98 118.896 84.98H112.896V102.02H118.896ZM144.658 102.11C143.138 103.61 141.278 104.36 139.078 104.36C136.878 104.36 135.008 103.61 133.468 102.11C131.948 100.59 131.188 98.72 131.188 96.5C131.188 94.28 131.948 92.42 133.468 90.92C135.008 89.4 136.878 88.64 139.078 88.64C141.278 88.64 143.138 89.4 144.658 90.92C146.198 92.42 146.968 94.28 146.968 96.5C146.968 98.72 146.198 100.59 144.658 102.11ZM134.878 100.73C136.018 101.87 137.418 102.44 139.078 102.44C140.738 102.44 142.138 101.87 143.278 100.73C144.418 99.57 144.988 98.16 144.988 96.5C144.988 94.84 144.418 93.44 143.278 92.3C142.138 91.14 140.738 90.56 139.078 90.56C137.418 90.56 136.018 91.14 134.878 92.3C133.738 93.44 133.168 94.84 133.168 96.5C133.168 98.16 133.738 99.57 134.878 100.73ZM157.302 88.64C159.122 88.64 160.552 89.2 161.592 90.32C162.652 91.42 163.182 92.91 163.182 94.79V104H161.202V94.79C161.202 93.45 160.842 92.41 160.122 91.67C159.422 90.93 158.422 90.56 157.122 90.56C155.682 90.56 154.512 91.02 153.612 91.94C152.712 92.84 152.262 94.24 152.262 96.14V104H150.282V89H152.262V91.34C153.382 89.54 155.062 88.64 157.302 88.64ZM168.816 83L167.016 89.75H165.216L166.416 83H168.816ZM180.673 90.92H176.353V100.01C176.353 100.83 176.513 101.42 176.833 101.78C177.153 102.12 177.633 102.3 178.273 102.32C178.913 102.32 179.713 102.3 180.673 102.26V104C178.573 104.32 176.993 104.17 175.933 103.55C174.893 102.93 174.373 101.75 174.373 100.01V90.92H171.223V89H174.373V85.4L176.353 84.8V89H180.673V90.92ZM191.473 104V82.1H193.453V104H191.473ZM199.665 85.4C199.385 85.68 199.045 85.82 198.645 85.82C198.245 85.82 197.905 85.68 197.625 85.4C197.345 85.12 197.205 84.78 197.205 84.38C197.205 83.98 197.345 83.64 197.625 83.36C197.905 83.08 198.245 82.94 198.645 82.94C199.045 82.94 199.385 83.08 199.665 83.36C199.945 83.64 200.085 83.98 200.085 84.38C200.085 84.78 199.945 85.12 199.665 85.4ZM197.655 104V89H199.635V104H197.655ZM219.826 88.64C221.506 88.64 222.856 89.18 223.876 90.26C224.916 91.34 225.436 92.8 225.436 94.64V104H223.456V94.64C223.456 93.34 223.116 92.34 222.436 91.64C221.776 90.92 220.896 90.56 219.796 90.56C218.556 90.56 217.546 90.98 216.766 91.82C216.006 92.64 215.626 93.93 215.626 95.69V104H213.646V94.64C213.646 93.32 213.326 92.31 212.686 91.61C212.066 90.91 211.216 90.56 210.136 90.56C208.936 90.56 207.916 90.98 207.076 91.82C206.236 92.66 205.816 93.95 205.816 95.69V104H203.836V89H205.816V91.19C206.896 89.49 208.426 88.64 210.406 88.64C212.566 88.64 214.086 89.55 214.966 91.37C216.046 89.55 217.666 88.64 219.826 88.64ZM231.276 85.4C230.996 85.68 230.656 85.82 230.256 85.82C229.856 85.82 229.516 85.68 229.236 85.4C228.956 85.12 228.816 84.78 228.816 84.38C228.816 83.98 228.956 83.64 229.236 83.36C229.516 83.08 229.856 82.94 230.256 82.94C230.656 82.94 230.996 83.08 231.276 83.36C231.556 83.64 231.696 83.98 231.696 84.38C231.696 84.78 231.556 85.12 231.276 85.4ZM229.266 104V89H231.246V104H229.266ZM243.398 90.92H239.078V100.01C239.078 100.83 239.238 101.42 239.558 101.78C239.878 102.12 240.358 102.3 240.998 102.32C241.638 102.32 242.438 102.3 243.398 102.26V104C241.298 104.32 239.718 104.17 238.658 103.55C237.618 102.93 237.098 101.75 237.098 100.01V90.92H233.948V89H237.098V85.4L239.078 84.8V89H243.398V90.92ZM264.998 89H267.098L260.678 105.38C260.098 106.86 259.268 108.02 258.188 108.86C257.128 109.72 255.938 110.1 254.618 110V108.14C256.418 108.34 257.788 107.3 258.728 105.02L259.118 104.09L252.398 89H254.498L260.138 101.57L264.998 89ZM281.475 102.11C279.955 103.61 278.095 104.36 275.895 104.36C273.695 104.36 271.825 103.61 270.285 102.11C268.765 100.59 268.005 98.72 268.005 96.5C268.005 94.28 268.765 92.42 270.285 90.92C271.825 89.4 273.695 88.64 275.895 88.64C278.095 88.64 279.955 89.4 281.475 90.92C283.015 92.42 283.785 94.28 283.785 96.5C283.785 98.72 283.015 100.59 281.475 102.11ZM271.695 100.73C272.835 101.87 274.235 102.44 275.895 102.44C277.555 102.44 278.955 101.87 280.095 100.73C281.235 99.57 281.805 98.16 281.805 96.5C281.805 94.84 281.235 93.44 280.095 92.3C278.955 91.14 277.555 90.56 275.895 90.56C274.235 90.56 272.835 91.14 271.695 92.3C270.555 93.44 269.985 94.84 269.985 96.5C269.985 98.16 270.555 99.57 271.695 100.73ZM297.658 89H299.638V104H297.658V101.66C296.538 103.46 294.858 104.36 292.618 104.36C290.798 104.36 289.358 103.81 288.298 102.71C287.258 101.59 286.738 100.09 286.738 98.21V89H288.718V98.21C288.718 99.55 289.068 100.59 289.768 101.33C290.488 102.07 291.498 102.44 292.798 102.44C294.238 102.44 295.408 101.99 296.308 101.09C297.208 100.17 297.658 98.76 297.658 96.86V89ZM305.807 91.49C306.727 89.67 308.307 88.76 310.547 88.76V90.68C309.187 90.68 308.057 91.08 307.157 91.88C306.257 92.68 305.807 93.94 305.807 95.66V104H303.827V89H305.807V91.49ZM314.234 92.93C314.234 93.61 314.534 94.15 315.134 94.55C315.734 94.95 316.464 95.26 317.324 95.48C318.184 95.7 319.044 95.95 319.904 96.23C320.764 96.49 321.494 96.94 322.094 97.58C322.694 98.2 322.994 99.02 322.994 100.04C322.994 101.32 322.484 102.36 321.464 103.16C320.464 103.96 319.164 104.36 317.564 104.36C316.124 104.36 314.894 104.04 313.874 103.4C312.874 102.76 312.174 101.93 311.774 100.91L313.454 99.92C313.734 100.7 314.234 101.32 314.954 101.78C315.694 102.22 316.564 102.44 317.564 102.44C318.544 102.44 319.364 102.25 320.024 101.87C320.684 101.47 321.014 100.86 321.014 100.04C321.014 99.36 320.714 98.82 320.114 98.42C319.514 98.02 318.784 97.71 317.924 97.49C317.064 97.27 316.204 97.03 315.344 96.77C314.484 96.49 313.754 96.04 313.154 95.42C312.554 94.78 312.254 93.95 312.254 92.93C312.254 91.71 312.734 90.69 313.694 89.87C314.674 89.05 315.904 88.64 317.384 88.64C318.604 88.64 319.674 88.92 320.594 89.48C321.514 90.02 322.194 90.76 322.634 91.7L320.984 92.66C320.404 91.26 319.204 90.56 317.384 90.56C316.524 90.56 315.784 90.77 315.164 91.19C314.544 91.59 314.234 92.17 314.234 92.93ZM332.788 88.64C335.008 88.64 336.798 89.43 338.158 91.01C339.538 92.57 340.228 94.42 340.228 96.56C340.228 96.78 340.208 97.09 340.168 97.49H326.998C327.198 99.01 327.838 100.22 328.918 101.12C330.018 102 331.368 102.44 332.968 102.44C334.108 102.44 335.088 102.21 335.908 101.75C336.748 101.27 337.378 100.65 337.798 99.89L339.538 100.91C338.878 101.97 337.978 102.81 336.838 103.43C335.698 104.05 334.398 104.36 332.938 104.36C330.578 104.36 328.658 103.62 327.178 102.14C325.698 100.66 324.958 98.78 324.958 96.5C324.958 94.26 325.688 92.39 327.148 90.89C328.608 89.39 330.488 88.64 332.788 88.64ZM332.788 90.56C331.228 90.56 329.918 91.03 328.858 91.97C327.818 92.89 327.198 94.09 326.998 95.57H338.188C337.988 93.99 337.378 92.76 336.358 91.88C335.338 91 334.148 90.56 332.788 90.56ZM343.377 104V82.1H345.357V104H343.377ZM357.059 84.56C355.599 84.44 354.509 84.69 353.789 85.31C353.089 85.93 352.739 86.96 352.739 88.4V89H357.059V90.92H352.739V104H350.759V90.92H348.209V89H350.759V88.4C350.759 86.44 351.299 84.96 352.379 83.96C353.479 82.94 355.039 82.5 357.059 82.64V84.56ZM359.901 103.82C359.581 104.14 359.191 104.3 358.731 104.3C358.271 104.3 357.881 104.14 357.561 103.82C357.241 103.5 357.081 103.11 357.081 102.65C357.081 102.19 357.241 101.8 357.561 101.48C357.881 101.16 358.271 101 358.731 101C359.191 101 359.581 101.16 359.901 101.48C360.221 101.8 360.381 102.19 360.381 102.65C360.381 103.11 360.221 103.5 359.901 103.82ZM391.295 83V104H389.195V86.18L381.845 98.48H381.545L374.195 86.18V104H372.095V83H374.705L381.695 94.7L388.685 83H391.295ZM408.689 89H410.669V104H408.689V101.06C407.309 103.26 405.289 104.36 402.629 104.36C400.489 104.36 398.659 103.6 397.139 102.08C395.639 100.56 394.889 98.7 394.889 96.5C394.889 94.3 395.639 92.44 397.139 90.92C398.659 89.4 400.489 88.64 402.629 88.64C405.289 88.64 407.309 89.74 408.689 91.94V89ZM398.579 100.73C399.719 101.87 401.119 102.44 402.779 102.44C404.439 102.44 405.839 101.87 406.979 100.73C408.119 99.57 408.689 98.16 408.689 96.5C408.689 94.84 408.119 93.44 406.979 92.3C405.839 91.14 404.439 90.56 402.779 90.56C401.119 90.56 399.719 91.14 398.579 92.3C397.439 93.44 396.869 94.84 396.869 96.5C396.869 98.16 397.439 99.57 398.579 100.73ZM421.882 88.64C423.702 88.64 425.132 89.2 426.172 90.32C427.232 91.42 427.762 92.91 427.762 94.79V104H425.782V94.79C425.782 93.45 425.422 92.41 424.702 91.67C424.002 90.93 423.002 90.56 421.702 90.56C420.262 90.56 419.092 91.02 418.192 91.94C417.292 92.84 416.842 94.24 416.842 96.14V104H414.862V89H416.842V91.34C417.962 89.54 419.642 88.64 421.882 88.64ZM442.097 89H444.197L437.777 105.38C437.197 106.86 436.367 108.02 435.287 108.86C434.227 109.72 433.037 110.1 431.717 110V108.14C433.517 108.34 434.887 107.3 435.827 105.02L436.217 104.09L429.497 89H431.597L437.237 101.57L442.097 89ZM462.13 88.64C464.27 88.64 466.09 89.4 467.59 90.92C469.11 92.44 469.87 94.3 469.87 96.5C469.87 98.7 469.11 100.56 467.59 102.08C466.09 103.6 464.27 104.36 462.13 104.36C459.47 104.36 457.45 103.26 456.07 101.06V110H454.09V89H456.07V91.94C457.45 89.74 459.47 88.64 462.13 88.64ZM457.78 100.73C458.92 101.87 460.32 102.44 461.98 102.44C463.64 102.44 465.04 101.87 466.18 100.73C467.32 99.57 467.89 98.16 467.89 96.5C467.89 94.84 467.32 93.44 466.18 92.3C465.04 91.14 463.64 90.56 461.98 90.56C460.32 90.56 458.92 91.14 457.78 92.3C456.64 93.44 456.07 94.84 456.07 96.5C456.07 98.16 456.64 99.57 457.78 100.73ZM480.093 88.64C482.313 88.64 484.103 89.43 485.463 91.01C486.843 92.57 487.533 94.42 487.533 96.56C487.533 96.78 487.513 97.09 487.473 97.49H474.303C474.503 99.01 475.143 100.22 476.223 101.12C477.323 102 478.673 102.44 480.273 102.44C481.413 102.44 482.393 102.21 483.213 101.75C484.053 101.27 484.683 100.65 485.103 99.89L486.843 100.91C486.183 101.97 485.283 102.81 484.143 103.43C483.003 104.05 481.703 104.36 480.243 104.36C477.883 104.36 475.963 103.62 474.483 102.14C473.003 100.66 472.263 98.78 472.263 96.5C472.263 94.26 472.993 92.39 474.453 90.89C475.913 89.39 477.793 88.64 480.093 88.64ZM480.093 90.56C478.533 90.56 477.223 91.03 476.163 91.97C475.123 92.89 474.503 94.09 474.303 95.57H485.493C485.293 93.99 484.683 92.76 483.663 91.88C482.643 91 481.453 90.56 480.093 90.56ZM503.252 102.11C501.732 103.61 499.872 104.36 497.672 104.36C495.472 104.36 493.602 103.61 492.062 102.11C490.542 100.59 489.782 98.72 489.782 96.5C489.782 94.28 490.542 92.42 492.062 90.92C493.602 89.4 495.472 88.64 497.672 88.64C499.872 88.64 501.732 89.4 503.252 90.92C504.792 92.42 505.562 94.28 505.562 96.5C505.562 98.72 504.792 100.59 503.252 102.11ZM493.472 100.73C494.612 101.87 496.012 102.44 497.672 102.44C499.332 102.44 500.732 101.87 501.872 100.73C503.012 99.57 503.582 98.16 503.582 96.5C503.582 94.84 503.012 93.44 501.872 92.3C500.732 91.14 499.332 90.56 497.672 90.56C496.012 90.56 494.612 91.14 493.472 92.3C492.332 93.44 491.762 94.84 491.762 96.5C491.762 98.16 492.332 99.57 493.472 100.73ZM516.915 88.64C519.055 88.64 520.875 89.4 522.375 90.92C523.895 92.44 524.655 94.3 524.655 96.5C524.655 98.7 523.895 100.56 522.375 102.08C520.875 103.6 519.055 104.36 516.915 104.36C514.255 104.36 512.235 103.26 510.855 101.06V110H508.875V89H510.855V91.94C512.235 89.74 514.255 88.64 516.915 88.64ZM512.565 100.73C513.705 101.87 515.105 102.44 516.765 102.44C518.425 102.44 519.825 101.87 520.965 100.73C522.105 99.57 522.675 98.16 522.675 96.5C522.675 94.84 522.105 93.44 520.965 92.3C519.825 91.14 518.425 90.56 516.765 90.56C515.105 90.56 513.705 91.14 512.565 92.3C511.425 93.44 510.855 94.84 510.855 96.5C510.855 98.16 511.425 99.57 512.565 100.73ZM527.948 104V82.1H529.928V104H527.948ZM541.059 88.64C543.279 88.64 545.069 89.43 546.429 91.01C547.809 92.57 548.499 94.42 548.499 96.56C548.499 96.78 548.479 97.09 548.439 97.49H535.269C535.469 99.01 536.109 100.22 537.189 101.12C538.289 102 539.639 102.44 541.239 102.44C542.379 102.44 543.359 102.21 544.179 101.75C545.019 101.27 545.649 100.65 546.069 99.89L547.809 100.91C547.149 101.97 546.249 102.81 545.109 103.43C543.969 104.05 542.669 104.36 541.209 104.36C538.849 104.36 536.929 103.62 535.449 102.14C533.969 100.66 533.229 98.78 533.229 96.5C533.229 94.26 533.959 92.39 535.419 90.89C536.879 89.39 538.759 88.64 541.059 88.64ZM541.059 90.56C539.499 90.56 538.189 91.03 537.129 91.97C536.089 92.89 535.469 94.09 535.269 95.57H546.459C546.259 93.99 545.649 92.76 544.629 91.88C543.609 91 542.419 90.56 541.059 90.56ZM559.149 104V82.1H561.129V104H559.149ZM567.34 85.4C567.06 85.68 566.72 85.82 566.32 85.82C565.92 85.82 565.58 85.68 565.3 85.4C565.02 85.12 564.88 84.78 564.88 84.38C564.88 83.98 565.02 83.64 565.3 83.36C565.58 83.08 565.92 82.94 566.32 82.94C566.72 82.94 567.06 83.08 567.34 83.36C567.62 83.64 567.76 83.98 567.76 84.38C567.76 84.78 567.62 85.12 567.34 85.4ZM565.33 104V89H567.31V104H565.33ZM587.502 88.64C589.182 88.64 590.532 89.18 591.552 90.26C592.592 91.34 593.112 92.8 593.112 94.64V104H591.132V94.64C591.132 93.34 590.792 92.34 590.112 91.64C589.452 90.92 588.572 90.56 587.472 90.56C586.232 90.56 585.222 90.98 584.442 91.82C583.682 92.64 583.302 93.93 583.302 95.69V104H581.322V94.64C581.322 93.32 581.002 92.31 580.362 91.61C579.742 90.91 578.892 90.56 577.812 90.56C576.612 90.56 575.592 90.98 574.752 91.82C573.912 92.66 573.492 93.95 573.492 95.69V104H571.512V89H573.492V91.19C574.572 89.49 576.102 88.64 578.082 88.64C580.242 88.64 581.762 89.55 582.642 91.37C583.722 89.55 585.342 88.64 587.502 88.64ZM598.952 85.4C598.672 85.68 598.332 85.82 597.932 85.82C597.532 85.82 597.192 85.68 596.912 85.4C596.632 85.12 596.492 84.78 596.492 84.38C596.492 83.98 596.632 83.64 596.912 83.36C597.192 83.08 597.532 82.94 597.932 82.94C598.332 82.94 598.672 83.08 598.952 83.36C599.232 83.64 599.372 83.98 599.372 84.38C599.372 84.78 599.232 85.12 598.952 85.4ZM596.942 104V89H598.922V104H596.942ZM611.073 90.92H606.753V100.01C606.753 100.83 606.913 101.42 607.233 101.78C607.553 102.12 608.033 102.3 608.673 102.32C609.313 102.32 610.113 102.3 611.073 102.26V104C608.973 104.32 607.393 104.17 606.333 103.55C605.293 102.93 604.773 101.75 604.773 100.01V90.92H601.623V89H604.773V85.4L606.753 84.8V89H611.073V90.92ZM629.823 90.92H625.503V100.01C625.503 100.83 625.663 101.42 625.983 101.78C626.303 102.12 626.783 102.3 627.423 102.32C628.063 102.32 628.863 102.3 629.823 102.26V104C627.723 104.32 626.143 104.17 625.083 103.55C624.043 102.93 623.523 101.75 623.523 100.01V90.92H620.373V89H623.523V85.4L625.503 84.8V89H629.823V90.92ZM640.143 88.64C641.963 88.64 643.393 89.2 644.433 90.32C645.493 91.42 646.023 92.91 646.023 94.79V104H644.043V94.79C644.043 93.45 643.683 92.41 642.963 91.67C642.263 90.93 641.263 90.56 639.963 90.56C638.523 90.56 637.353 91.02 636.453 91.94C635.553 92.84 635.103 94.24 635.103 96.14V104H633.123V83H635.103V91.34C636.223 89.54 637.903 88.64 640.143 88.64ZM656.782 88.64C659.002 88.64 660.792 89.43 662.152 91.01C663.532 92.57 664.222 94.42 664.222 96.56C664.222 96.78 664.202 97.09 664.162 97.49H650.992C651.192 99.01 651.832 100.22 652.912 101.12C654.012 102 655.362 102.44 656.962 102.44C658.102 102.44 659.082 102.21 659.902 101.75C660.742 101.27 661.372 100.65 661.792 99.89L663.532 100.91C662.872 101.97 661.972 102.81 660.832 103.43C659.692 104.05 658.392 104.36 656.932 104.36C654.572 104.36 652.652 103.62 651.172 102.14C649.692 100.66 648.952 98.78 648.952 96.5C648.952 94.26 649.682 92.39 651.142 90.89C652.602 89.39 654.482 88.64 656.782 88.64ZM656.782 90.56C655.222 90.56 653.912 91.03 652.852 91.97C651.812 92.89 651.192 94.09 650.992 95.57H662.182C661.982 93.99 661.372 92.76 660.352 91.88C659.332 91 658.142 90.56 656.782 90.56ZM683.361 88.64C685.041 88.64 686.391 89.18 687.411 90.26C688.451 91.34 688.971 92.8 688.971 94.64V104H686.991V94.64C686.991 93.34 686.651 92.34 685.971 91.64C685.311 90.92 684.431 90.56 683.331 90.56C682.091 90.56 681.081 90.98 680.301 91.82C679.541 92.64 679.161 93.93 679.161 95.69V104H677.181V94.64C677.181 93.32 676.861 92.31 676.221 91.61C675.601 90.91 674.751 90.56 673.671 90.56C672.471 90.56 671.451 90.98 670.611 91.82C669.771 92.66 669.351 93.95 669.351 95.69V104H667.371V89H669.351V91.19C670.431 89.49 671.961 88.64 673.941 88.64C676.101 88.64 677.621 89.55 678.501 91.37C679.581 89.55 681.201 88.64 683.361 88.64ZM694.361 92.93C694.361 93.61 694.661 94.15 695.261 94.55C695.861 94.95 696.591 95.26 697.451 95.48C698.311 95.7 699.171 95.95 700.031 96.23C700.891 96.49 701.621 96.94 702.221 97.58C702.821 98.2 703.121 99.02 703.121 100.04C703.121 101.32 702.611 102.36 701.591 103.16C700.591 103.96 699.291 104.36 697.691 104.36C696.251 104.36 695.021 104.04 694.001 103.4C693.001 102.76 692.301 101.93 691.901 100.91L693.581 99.92C693.861 100.7 694.361 101.32 695.081 101.78C695.821 102.22 696.691 102.44 697.691 102.44C698.671 102.44 699.491 102.25 700.151 101.87C700.811 101.47 701.141 100.86 701.141 100.04C701.141 99.36 700.841 98.82 700.241 98.42C699.641 98.02 698.911 97.71 698.051 97.49C697.191 97.27 696.331 97.03 695.471 96.77C694.611 96.49 693.881 96.04 693.281 95.42C692.681 94.78 692.381 93.95 692.381 92.93C692.381 91.71 692.861 90.69 693.821 89.87C694.801 89.05 696.031 88.64 697.511 88.64C698.731 88.64 699.801 88.92 700.721 89.48C701.641 90.02 702.321 90.76 702.761 91.7L701.111 92.66C700.531 91.26 699.331 90.56 697.511 90.56C696.651 90.56 695.911 90.77 695.291 91.19C694.671 91.59 694.361 92.17 694.361 92.93ZM712.915 88.64C715.135 88.64 716.925 89.43 718.285 91.01C719.665 92.57 720.355 94.42 720.355 96.56C720.355 96.78 720.335 97.09 720.295 97.49H707.125C707.325 99.01 707.965 100.22 709.045 101.12C710.145 102 711.495 102.44 713.095 102.44C714.235 102.44 715.215 102.21 716.035 101.75C716.875 101.27 717.505 100.65 717.925 99.89L719.665 100.91C719.005 101.97 718.105 102.81 716.965 103.43C715.825 104.05 714.525 104.36 713.065 104.36C710.705 104.36 708.785 103.62 707.305 102.14C705.825 100.66 705.085 98.78 705.085 96.5C705.085 94.26 705.815 92.39 707.275 90.89C708.735 89.39 710.615 88.64 712.915 88.64ZM712.915 90.56C711.355 90.56 710.045 91.03 708.985 91.97C707.945 92.89 707.325 94.09 707.125 95.57H718.315C718.115 93.99 717.505 92.76 716.485 91.88C715.465 91 714.275 90.56 712.915 90.56ZM723.504 104V82.1H725.484V104H723.504ZM740.486 89H742.586L736.436 104H734.036L727.886 89H729.986L735.236 101.93L740.486 89ZM751.323 88.64C753.543 88.64 755.333 89.43 756.693 91.01C758.073 92.57 758.763 94.42 758.763 96.56C758.763 96.78 758.743 97.09 758.703 97.49H745.533C745.733 99.01 746.373 100.22 747.453 101.12C748.553 102 749.903 102.44 751.503 102.44C752.643 102.44 753.623 102.21 754.443 101.75C755.283 101.27 755.913 100.65 756.333 99.89L758.073 100.91C757.413 101.97 756.513 102.81 755.373 103.43C754.233 104.05 752.933 104.36 751.473 104.36C749.113 104.36 747.193 103.62 745.713 102.14C744.233 100.66 743.493 98.78 743.493 96.5C743.493 94.26 744.223 92.39 745.683 90.89C747.143 89.39 749.023 88.64 751.323 88.64ZM751.323 90.56C749.763 90.56 748.453 91.03 747.393 91.97C746.353 92.89 745.733 94.09 745.533 95.57H756.723C756.523 93.99 755.913 92.76 754.893 91.88C753.873 91 752.683 90.56 751.323 90.56ZM762.887 92.93C762.887 93.61 763.187 94.15 763.787 94.55C764.387 94.95 765.117 95.26 765.977 95.48C766.837 95.7 767.697 95.95 768.557 96.23C769.417 96.49 770.147 96.94 770.747 97.58C771.347 98.2 771.647 99.02 771.647 100.04C771.647 101.32 771.137 102.36 770.117 103.16C769.117 103.96 767.817 104.36 766.217 104.36C764.777 104.36 763.547 104.04 762.527 103.4C761.527 102.76 760.827 101.93 760.427 100.91L762.107 99.92C762.387 100.7 762.887 101.32 763.607 101.78C764.347 102.22 765.217 102.44 766.217 102.44C767.197 102.44 768.017 102.25 768.677 101.87C769.337 101.47 769.667 100.86 769.667 100.04C769.667 99.36 769.367 98.82 768.767 98.42C768.167 98.02 767.437 97.71 766.577 97.49C765.717 97.27 764.857 97.03 763.997 96.77C763.137 96.49 762.407 96.04 761.807 95.42C761.207 94.78 760.907 93.95 760.907 92.93C760.907 91.71 761.387 90.69 762.347 89.87C763.327 89.05 764.557 88.64 766.037 88.64C767.257 88.64 768.327 88.92 769.247 89.48C770.167 90.02 770.847 90.76 771.287 91.7L769.637 92.66C769.057 91.26 767.857 90.56 766.037 90.56C765.177 90.56 764.437 90.77 763.817 91.19C763.197 91.59 762.887 92.17 762.887 92.93ZM790.4 90.92H786.08V100.01C786.08 100.83 786.24 101.42 786.56 101.78C786.88 102.12 787.36 102.3 788 102.32C788.64 102.32 789.44 102.3 790.4 102.26V104C788.3 104.32 786.72 104.17 785.66 103.55C784.62 102.93 784.1 101.75 784.1 100.01V90.92H780.95V89H784.1V85.4L786.08 84.8V89H790.4V90.92ZM805.361 102.11C803.841 103.61 801.981 104.36 799.781 104.36C797.581 104.36 795.711 103.61 794.171 102.11C792.651 100.59 791.891 98.72 791.891 96.5C791.891 94.28 792.651 92.42 794.171 90.92C795.711 89.4 797.581 88.64 799.781 88.64C801.981 88.64 803.841 89.4 805.361 90.92C806.901 92.42 807.671 94.28 807.671 96.5C807.671 98.72 806.901 100.59 805.361 102.11ZM795.581 100.73C796.721 101.87 798.121 102.44 799.781 102.44C801.441 102.44 802.841 101.87 803.981 100.73C805.121 99.57 805.691 98.16 805.691 96.5C805.691 94.84 805.121 93.44 803.981 92.3C802.841 91.14 801.441 90.56 799.781 90.56C798.121 90.56 796.721 91.14 795.581 92.3C794.441 93.44 793.871 94.84 793.871 96.5C793.871 98.16 794.441 99.57 795.581 100.73ZM836.545 89H838.585L833.965 104H831.805L827.935 91.91L824.065 104H821.905L817.285 89H819.325L823.015 101.45L826.945 89H828.925L832.855 101.45L836.545 89ZM848.591 88.64C850.411 88.64 851.841 89.2 852.881 90.32C853.941 91.42 854.471 92.91 854.471 94.79V104H852.491V94.79C852.491 93.45 852.131 92.41 851.411 91.67C850.711 90.93 849.711 90.56 848.411 90.56C846.971 90.56 845.801 91.02 844.901 91.94C844.001 92.84 843.551 94.24 843.551 96.14V104H841.571V83H843.551V91.34C844.671 89.54 846.351 88.64 848.591 88.64ZM871.199 89H873.179V104H871.199V101.06C869.819 103.26 867.799 104.36 865.139 104.36C862.999 104.36 861.169 103.6 859.649 102.08C858.149 100.56 857.399 98.7 857.399 96.5C857.399 94.3 858.149 92.44 859.649 90.92C861.169 89.4 862.999 88.64 865.139 88.64C867.799 88.64 869.819 89.74 871.199 91.94V89ZM861.089 100.73C862.229 101.87 863.629 102.44 865.289 102.44C866.949 102.44 868.349 101.87 869.489 100.73C870.629 99.57 871.199 98.16 871.199 96.5C871.199 94.84 870.629 93.44 869.489 92.3C868.349 91.14 866.949 90.56 865.289 90.56C863.629 90.56 862.229 91.14 861.089 92.3C859.949 93.44 859.379 94.84 859.379 96.5C859.379 98.16 859.949 99.57 861.089 100.73ZM885.321 90.92H881.001V100.01C881.001 100.83 881.161 101.42 881.481 101.78C881.801 102.12 882.281 102.3 882.921 102.32C883.561 102.32 884.361 102.3 885.321 102.26V104C883.221 104.32 881.641 104.17 880.581 103.55C879.541 102.93 879.021 101.75 879.021 100.01V90.92H875.871V89H879.021V85.4L881.001 84.8V89H885.321V90.92ZM904.071 90.92H899.751V100.01C899.751 100.83 899.911 101.42 900.231 101.78C900.551 102.12 901.031 102.3 901.671 102.32C902.311 102.32 903.111 102.3 904.071 102.26V104C901.971 104.32 900.391 104.17 899.331 103.55C898.291 102.93 897.771 101.75 897.771 100.01V90.92H894.621V89H897.771V85.4L899.751 84.8V89H904.071V90.92ZM914.391 88.64C916.211 88.64 917.641 89.2 918.681 90.32C919.741 91.42 920.271 92.91 920.271 94.79V104H918.291V94.79C918.291 93.45 917.931 92.41 917.211 91.67C916.511 90.93 915.511 90.56 914.211 90.56C912.771 90.56 911.601 91.02 910.701 91.94C909.801 92.84 909.351 94.24 909.351 96.14V104H907.371V83H909.351V91.34C910.471 89.54 912.151 88.64 914.391 88.64ZM931.03 88.64C933.25 88.64 935.04 89.43 936.4 91.01C937.78 92.57 938.47 94.42 938.47 96.56C938.47 96.78 938.45 97.09 938.41 97.49H925.24C925.44 99.01 926.08 100.22 927.16 101.12C928.26 102 929.61 102.44 931.21 102.44C932.35 102.44 933.33 102.21 934.15 101.75C934.99 101.27 935.62 100.65 936.04 99.89L937.78 100.91C937.12 101.97 936.22 102.81 935.08 103.43C933.94 104.05 932.64 104.36 931.18 104.36C928.82 104.36 926.9 103.62 925.42 102.14C923.94 100.66 923.2 98.78 923.2 96.5C923.2 94.26 923.93 92.39 925.39 90.89C926.85 89.39 928.73 88.64 931.03 88.64ZM931.03 90.56C929.47 90.56 928.16 91.03 927.1 91.97C926.06 92.89 925.44 94.09 925.24 95.57H936.43C936.23 93.99 935.62 92.76 934.6 91.88C933.58 91 932.39 90.56 931.03 90.56ZM951.834 89H953.934L947.514 105.38C946.934 106.86 946.104 108.02 945.024 108.86C943.964 109.72 942.774 110.1 941.454 110V108.14C943.254 108.34 944.624 107.3 945.564 105.02L945.954 104.09L939.234 89H941.334L946.974 101.57L951.834 89ZM107.05 138.92H102.73V148.01C102.73 148.83 102.89 149.42 103.21 149.78C103.53 150.12 104.01 150.3 104.65 150.32C105.29 150.32 106.09 150.3 107.05 150.26V152C104.95 152.32 103.37 152.17 102.31 151.55C101.27 150.93 100.75 149.75 100.75 148.01V138.92H97.6V137H100.75V133.4L102.73 132.8V137H107.05V138.92ZM117.37 136.64C119.19 136.64 120.62 137.2 121.66 138.32C122.72 139.42 123.25 140.91 123.25 142.79V152H121.27V142.79C121.27 141.45 120.91 140.41 120.19 139.67C119.49 138.93 118.49 138.56 117.19 138.56C115.75 138.56 114.58 139.02 113.68 139.94C112.78 140.84 112.33 142.24 112.33 144.14V152H110.35V131H112.33V139.34C113.45 137.54 115.13 136.64 117.37 136.64ZM129.089 133.4C128.809 133.68 128.469 133.82 128.069 133.82C127.669 133.82 127.329 133.68 127.049 133.4C126.769 133.12 126.629 132.78 126.629 132.38C126.629 131.98 126.769 131.64 127.049 131.36C127.329 131.08 127.669 130.94 128.069 130.94C128.469 130.94 128.809 131.08 129.089 131.36C129.369 131.64 129.509 131.98 129.509 132.38C129.509 132.78 129.369 133.12 129.089 133.4ZM127.079 152V137H129.059V152H127.079ZM140.28 136.64C142.1 136.64 143.53 137.2 144.57 138.32C145.63 139.42 146.16 140.91 146.16 142.79V152H144.18V142.79C144.18 141.45 143.82 140.41 143.1 139.67C142.4 138.93 141.4 138.56 140.1 138.56C138.66 138.56 137.49 139.02 136.59 139.94C135.69 140.84 135.24 142.24 135.24 144.14V152H133.26V137H135.24V139.34C136.36 137.54 138.04 136.64 140.28 136.64ZM162.109 152H159.469L151.969 144.77V152H149.989V131H151.969V143.63L159.109 137H161.809L154.069 144.2L162.109 152ZM180.263 138.92H175.943V148.01C175.943 148.83 176.103 149.42 176.423 149.78C176.743 150.12 177.223 150.3 177.863 150.32C178.503 150.32 179.303 150.3 180.263 150.26V152C178.163 152.32 176.583 152.17 175.523 151.55C174.483 150.93 173.963 149.75 173.963 148.01V138.92H170.813V137H173.963V133.4L175.943 132.8V137H180.263V138.92ZM190.583 136.64C192.403 136.64 193.833 137.2 194.873 138.32C195.933 139.42 196.463 140.91 196.463 142.79V152H194.483V142.79C194.483 141.45 194.123 140.41 193.403 139.67C192.703 138.93 191.703 138.56 190.403 138.56C188.963 138.56 187.793 139.02 186.893 139.94C185.993 140.84 185.543 142.24 185.543 144.14V152H183.563V131H185.543V139.34C186.663 137.54 188.343 136.64 190.583 136.64ZM207.221 136.64C209.441 136.64 211.231 137.43 212.591 139.01C213.971 140.57 214.661 142.42 214.661 144.56C214.661 144.78 214.641 145.09 214.601 145.49H201.431C201.631 147.01 202.271 148.22 203.351 149.12C204.451 150 205.801 150.44 207.401 150.44C208.541 150.44 209.521 150.21 210.341 149.75C211.181 149.27 211.811 148.65 212.231 147.89L213.971 148.91C213.311 149.97 212.411 150.81 211.271 151.43C210.131 152.05 208.831 152.36 207.371 152.36C205.011 152.36 203.091 151.62 201.611 150.14C200.131 148.66 199.391 146.78 199.391 144.5C199.391 142.26 200.121 140.39 201.581 138.89C203.041 137.39 204.921 136.64 207.221 136.64ZM207.221 138.56C205.661 138.56 204.351 139.03 203.291 139.97C202.251 140.89 201.631 142.09 201.431 143.57H212.621C212.421 141.99 211.811 140.76 210.791 139.88C209.771 139 208.581 138.56 207.221 138.56ZM228.025 137H230.125L223.705 153.38C223.125 154.86 222.295 156.02 221.215 156.86C220.155 157.72 218.965 158.1 217.645 158V156.14C219.445 156.34 220.815 155.3 221.755 153.02L222.145 152.09L215.425 137H217.525L223.165 149.57L228.025 137ZM247.008 152.36C244.748 152.36 242.868 151.61 241.368 150.11C239.868 148.59 239.118 146.72 239.118 144.5C239.118 142.28 239.868 140.42 241.368 138.92C242.868 137.4 244.748 136.64 247.008 136.64C248.488 136.64 249.818 137 250.998 137.72C252.178 138.42 253.038 139.37 253.578 140.57L251.958 141.5C251.558 140.6 250.908 139.89 250.008 139.37C249.128 138.83 248.128 138.56 247.008 138.56C245.348 138.56 243.948 139.14 242.808 140.3C241.668 141.44 241.098 142.84 241.098 144.5C241.098 146.16 241.668 147.57 242.808 148.73C243.948 149.87 245.348 150.44 247.008 150.44C248.128 150.44 249.128 150.18 250.008 149.66C250.888 149.12 251.578 148.4 252.078 147.5L253.728 148.46C253.108 149.66 252.198 150.61 250.998 151.31C249.798 152.01 248.468 152.36 247.008 152.36ZM269.324 137H271.304V152H269.324V149.06C267.944 151.26 265.924 152.36 263.264 152.36C261.124 152.36 259.294 151.6 257.774 150.08C256.274 148.56 255.524 146.7 255.524 144.5C255.524 142.3 256.274 140.44 257.774 138.92C259.294 137.4 261.124 136.64 263.264 136.64C265.924 136.64 267.944 137.74 269.324 139.94V137ZM259.214 148.73C260.354 149.87 261.754 150.44 263.414 150.44C265.074 150.44 266.474 149.87 267.614 148.73C268.754 147.57 269.324 146.16 269.324 144.5C269.324 142.84 268.754 141.44 267.614 140.3C266.474 139.14 265.074 138.56 263.414 138.56C261.754 138.56 260.354 139.14 259.214 140.3C258.074 141.44 257.504 142.84 257.504 144.5C257.504 146.16 258.074 147.57 259.214 148.73ZM282.516 136.64C284.336 136.64 285.766 137.2 286.806 138.32C287.866 139.42 288.396 140.91 288.396 142.79V152H286.416V142.79C286.416 141.45 286.056 140.41 285.336 139.67C284.636 138.93 283.636 138.56 282.336 138.56C280.896 138.56 279.726 139.02 278.826 139.94C277.926 140.84 277.476 142.24 277.476 144.14V152H275.496V137H277.476V139.34C278.596 137.54 280.276 136.64 282.516 136.64ZM312.625 131H314.605V152H312.625V149.06C311.245 151.26 309.225 152.36 306.565 152.36C304.425 152.36 302.595 151.6 301.075 150.08C299.575 148.56 298.825 146.7 298.825 144.5C298.825 142.3 299.575 140.44 301.075 138.92C302.595 137.4 304.425 136.64 306.565 136.64C309.225 136.64 311.245 137.74 312.625 139.94V131ZM302.515 148.73C303.655 149.87 305.055 150.44 306.715 150.44C308.375 150.44 309.775 149.87 310.915 148.73C312.055 147.57 312.625 146.16 312.625 144.5C312.625 142.84 312.055 141.44 310.915 140.3C309.775 139.14 308.375 138.56 306.715 138.56C305.055 138.56 303.655 139.14 302.515 140.3C301.375 141.44 300.805 142.84 300.805 144.5C300.805 146.16 301.375 147.57 302.515 148.73ZM331.367 150.11C329.847 151.61 327.987 152.36 325.787 152.36C323.587 152.36 321.717 151.61 320.177 150.11C318.657 148.59 317.897 146.72 317.897 144.5C317.897 142.28 318.657 140.42 320.177 138.92C321.717 137.4 323.587 136.64 325.787 136.64C327.987 136.64 329.847 137.4 331.367 138.92C332.907 140.42 333.677 142.28 333.677 144.5C333.677 146.72 332.907 148.59 331.367 150.11ZM321.587 148.73C322.727 149.87 324.127 150.44 325.787 150.44C327.447 150.44 328.847 149.87 329.987 148.73C331.127 147.57 331.697 146.16 331.697 144.5C331.697 142.84 331.127 141.44 329.987 140.3C328.847 139.14 327.447 138.56 325.787 138.56C324.127 138.56 322.727 139.14 321.587 140.3C320.447 141.44 319.877 142.84 319.877 144.5C319.877 146.16 320.447 147.57 321.587 148.73ZM338.309 151.82C337.989 152.14 337.599 152.3 337.139 152.3C336.679 152.3 336.289 152.14 335.969 151.82C335.649 151.5 335.489 151.11 335.489 150.65C335.489 150.19 335.649 149.8 335.969 149.48C336.289 149.16 336.679 149 337.139 149C337.599 149 337.989 149.16 338.309 149.48C338.629 149.8 338.789 150.19 338.789 150.65C338.789 151.11 338.629 151.5 338.309 151.82ZM365.654 131L358.064 143.39V152H355.964V143.33L348.404 131H350.774L357.044 141.29L363.284 131H365.654ZM377.627 150.11C376.107 151.61 374.247 152.36 372.047 152.36C369.847 152.36 367.977 151.61 366.437 150.11C364.917 148.59 364.157 146.72 364.157 144.5C364.157 142.28 364.917 140.42 366.437 138.92C367.977 137.4 369.847 136.64 372.047 136.64C374.247 136.64 376.107 137.4 377.627 138.92C379.167 140.42 379.937 142.28 379.937 144.5C379.937 146.72 379.167 148.59 377.627 150.11ZM367.847 148.73C368.987 149.87 370.387 150.44 372.047 150.44C373.707 150.44 375.107 149.87 376.247 148.73C377.387 147.57 377.957 146.16 377.957 144.5C377.957 142.84 377.387 141.44 376.247 140.3C375.107 139.14 373.707 138.56 372.047 138.56C370.387 138.56 368.987 139.14 367.847 140.3C366.707 141.44 366.137 142.84 366.137 144.5C366.137 146.16 366.707 147.57 367.847 148.73ZM393.81 137H395.79V152H393.81V149.66C392.69 151.46 391.01 152.36 388.77 152.36C386.95 152.36 385.51 151.81 384.45 150.71C383.41 149.59 382.89 148.09 382.89 146.21V137H384.87V146.21C384.87 147.55 385.22 148.59 385.92 149.33C386.64 150.07 387.65 150.44 388.95 150.44C390.39 150.44 391.56 149.99 392.46 149.09C393.36 148.17 393.81 146.76 393.81 144.86V137ZM414.469 152.36C412.209 152.36 410.329 151.61 408.829 150.11C407.329 148.59 406.579 146.72 406.579 144.5C406.579 142.28 407.329 140.42 408.829 138.92C410.329 137.4 412.209 136.64 414.469 136.64C415.949 136.64 417.279 137 418.459 137.72C419.639 138.42 420.499 139.37 421.039 140.57L419.419 141.5C419.019 140.6 418.369 139.89 417.469 139.37C416.589 138.83 415.589 138.56 414.469 138.56C412.809 138.56 411.409 139.14 410.269 140.3C409.129 141.44 408.559 142.84 408.559 144.5C408.559 146.16 409.129 147.57 410.269 148.73C411.409 149.87 412.809 150.44 414.469 150.44C415.589 150.44 416.589 150.18 417.469 149.66C418.349 149.12 419.039 148.4 419.539 147.5L421.189 148.46C420.569 149.66 419.659 150.61 418.459 151.31C417.259 152.01 415.929 152.36 414.469 152.36ZM436.785 137H438.765V152H436.785V149.06C435.405 151.26 433.385 152.36 430.725 152.36C428.585 152.36 426.755 151.6 425.235 150.08C423.735 148.56 422.985 146.7 422.985 144.5C422.985 142.3 423.735 140.44 425.235 138.92C426.755 137.4 428.585 136.64 430.725 136.64C433.385 136.64 435.405 137.74 436.785 139.94V137ZM426.675 148.73C427.815 149.87 429.215 150.44 430.875 150.44C432.535 150.44 433.935 149.87 435.075 148.73C436.215 147.57 436.785 146.16 436.785 144.5C436.785 142.84 436.215 141.44 435.075 140.3C433.935 139.14 432.535 138.56 430.875 138.56C429.215 138.56 427.815 139.14 426.675 140.3C425.535 141.44 424.965 142.84 424.965 144.5C424.965 146.16 425.535 147.57 426.675 148.73ZM449.977 136.64C451.797 136.64 453.227 137.2 454.267 138.32C455.327 139.42 455.857 140.91 455.857 142.79V152H453.877V142.79C453.877 141.45 453.517 140.41 452.797 139.67C452.097 138.93 451.097 138.56 449.797 138.56C448.357 138.56 447.187 139.02 446.287 139.94C445.387 140.84 444.937 142.24 444.937 144.14V152H442.957V137H444.937V139.34C446.057 137.54 447.737 136.64 449.977 136.64ZM480.086 137H482.066V151.4C482.066 153.56 481.326 155.26 479.846 156.5C478.366 157.74 476.596 158.36 474.536 158.36C471.016 158.36 468.646 157.14 467.426 154.7L469.166 153.71C470.066 155.53 471.856 156.44 474.536 156.44C476.256 156.44 477.606 155.98 478.586 155.06C479.586 154.16 480.086 152.94 480.086 151.4V149.06C478.706 151.26 476.686 152.36 474.026 152.36C471.886 152.36 470.056 151.6 468.536 150.08C467.036 148.56 466.286 146.7 466.286 144.5C466.286 142.3 467.036 140.44 468.536 138.92C470.056 137.4 471.886 136.64 474.026 136.64C476.686 136.64 478.706 137.74 480.086 139.94V137ZM469.976 148.73C471.116 149.87 472.516 150.44 474.176 150.44C475.836 150.44 477.236 149.87 478.376 148.73C479.516 147.57 480.086 146.16 480.086 144.5C480.086 142.84 479.516 141.44 478.376 140.3C477.236 139.14 475.836 138.56 474.176 138.56C472.516 138.56 471.116 139.14 469.976 140.3C468.836 141.44 468.266 142.84 468.266 144.5C468.266 146.16 468.836 147.57 469.976 148.73ZM498.828 150.11C497.308 151.61 495.448 152.36 493.248 152.36C491.048 152.36 489.178 151.61 487.638 150.11C486.118 148.59 485.358 146.72 485.358 144.5C485.358 142.28 486.118 140.42 487.638 138.92C489.178 137.4 491.048 136.64 493.248 136.64C495.448 136.64 497.308 137.4 498.828 138.92C500.368 140.42 501.138 142.28 501.138 144.5C501.138 146.72 500.368 148.59 498.828 150.11ZM489.048 148.73C490.188 149.87 491.588 150.44 493.248 150.44C494.908 150.44 496.308 149.87 497.448 148.73C498.588 147.57 499.158 146.16 499.158 144.5C499.158 142.84 498.588 141.44 497.448 140.3C496.308 139.14 494.908 138.56 493.248 138.56C491.588 138.56 490.188 139.14 489.048 140.3C487.908 141.44 487.338 142.84 487.338 144.5C487.338 146.16 487.908 147.57 489.048 148.73ZM524.852 137H526.832V152H524.852V149.06C523.472 151.26 521.452 152.36 518.792 152.36C516.652 152.36 514.822 151.6 513.302 150.08C511.802 148.56 511.052 146.7 511.052 144.5C511.052 142.3 511.802 140.44 513.302 138.92C514.822 137.4 516.652 136.64 518.792 136.64C521.452 136.64 523.472 137.74 524.852 139.94V137ZM514.742 148.73C515.882 149.87 517.282 150.44 518.942 150.44C520.602 150.44 522.002 149.87 523.142 148.73C524.282 147.57 524.852 146.16 524.852 144.5C524.852 142.84 524.282 141.44 523.142 140.3C522.002 139.14 520.602 138.56 518.942 138.56C517.282 138.56 515.882 139.14 514.742 140.3C513.602 141.44 513.032 142.84 513.032 144.5C513.032 146.16 513.602 147.57 514.742 148.73ZM532.584 140.93C532.584 141.61 532.884 142.15 533.484 142.55C534.084 142.95 534.814 143.26 535.674 143.48C536.534 143.7 537.394 143.95 538.254 144.23C539.114 144.49 539.844 144.94 540.444 145.58C541.044 146.2 541.344 147.02 541.344 148.04C541.344 149.32 540.834 150.36 539.814 151.16C538.814 151.96 537.514 152.36 535.914 152.36C534.474 152.36 533.244 152.04 532.224 151.4C531.224 150.76 530.524 149.93 530.124 148.91L531.804 147.92C532.084 148.7 532.584 149.32 533.304 149.78C534.044 150.22 534.914 150.44 535.914 150.44C536.894 150.44 537.714 150.25 538.374 149.87C539.034 149.47 539.364 148.86 539.364 148.04C539.364 147.36 539.064 146.82 538.464 146.42C537.864 146.02 537.134 145.71 536.274 145.49C535.414 145.27 534.554 145.03 533.694 144.77C532.834 144.49 532.104 144.04 531.504 143.42C530.904 142.78 530.604 141.95 530.604 140.93C530.604 139.71 531.084 138.69 532.044 137.87C533.024 137.05 534.254 136.64 535.734 136.64C536.954 136.64 538.024 136.92 538.944 137.48C539.864 138.02 540.544 138.76 540.984 139.7L539.334 140.66C538.754 139.26 537.554 138.56 535.734 138.56C534.874 138.56 534.134 138.77 533.514 139.19C532.894 139.59 532.584 140.17 532.584 140.93ZM559.647 132.56C558.187 132.44 557.097 132.69 556.377 133.31C555.677 133.93 555.327 134.96 555.327 136.4V137H559.647V138.92H555.327V152H553.347V138.92H550.797V137H553.347V136.4C553.347 134.44 553.887 132.96 554.967 131.96C556.067 130.94 557.627 130.5 559.647 130.64V132.56ZM573.748 137H575.728V152H573.748V149.06C572.368 151.26 570.348 152.36 567.688 152.36C565.548 152.36 563.718 151.6 562.198 150.08C560.698 148.56 559.948 146.7 559.948 144.5C559.948 142.3 560.698 140.44 562.198 138.92C563.718 137.4 565.548 136.64 567.688 136.64C570.348 136.64 572.368 137.74 573.748 139.94V137ZM563.638 148.73C564.778 149.87 566.178 150.44 567.838 150.44C569.498 150.44 570.898 149.87 572.038 148.73C573.178 147.57 573.748 146.16 573.748 144.5C573.748 142.84 573.178 141.44 572.038 140.3C570.898 139.14 569.498 138.56 567.838 138.56C566.178 138.56 564.778 139.14 563.638 140.3C562.498 141.44 561.928 142.84 561.928 144.5C561.928 146.16 562.498 147.57 563.638 148.73ZM581.9 139.49C582.82 137.67 584.4 136.76 586.64 136.76V138.68C585.28 138.68 584.15 139.08 583.25 139.88C582.35 140.68 581.9 141.94 581.9 143.66V152H579.92V137H581.9V139.49ZM609.754 137H611.734V152H609.754V149.06C608.374 151.26 606.354 152.36 603.694 152.36C601.554 152.36 599.724 151.6 598.204 150.08C596.704 148.56 595.954 146.7 595.954 144.5C595.954 142.3 596.704 140.44 598.204 138.92C599.724 137.4 601.554 136.64 603.694 136.64C606.354 136.64 608.374 137.74 609.754 139.94V137ZM599.644 148.73C600.784 149.87 602.184 150.44 603.844 150.44C605.504 150.44 606.904 149.87 608.044 148.73C609.184 147.57 609.754 146.16 609.754 144.5C609.754 142.84 609.184 141.44 608.044 140.3C606.904 139.14 605.504 138.56 603.844 138.56C602.184 138.56 600.784 139.14 599.644 140.3C598.504 141.44 597.934 142.84 597.934 144.5C597.934 146.16 598.504 147.57 599.644 148.73ZM617.486 140.93C617.486 141.61 617.786 142.15 618.386 142.55C618.986 142.95 619.716 143.26 620.576 143.48C621.436 143.7 622.296 143.95 623.156 144.23C624.016 144.49 624.746 144.94 625.346 145.58C625.946 146.2 626.246 147.02 626.246 148.04C626.246 149.32 625.736 150.36 624.716 151.16C623.716 151.96 622.416 152.36 620.816 152.36C619.376 152.36 618.146 152.04 617.126 151.4C616.126 150.76 615.426 149.93 615.026 148.91L616.706 147.92C616.986 148.7 617.486 149.32 618.206 149.78C618.946 150.22 619.816 150.44 620.816 150.44C621.796 150.44 622.616 150.25 623.276 149.87C623.936 149.47 624.266 148.86 624.266 148.04C624.266 147.36 623.966 146.82 623.366 146.42C622.766 146.02 622.036 145.71 621.176 145.49C620.316 145.27 619.456 145.03 618.596 144.77C617.736 144.49 617.006 144.04 616.406 143.42C615.806 142.78 615.506 141.95 615.506 140.93C615.506 139.71 615.986 138.69 616.946 137.87C617.926 137.05 619.156 136.64 620.636 136.64C621.856 136.64 622.926 136.92 623.846 137.48C624.766 138.02 625.446 138.76 625.886 139.7L624.236 140.66C623.656 139.26 622.456 138.56 620.636 138.56C619.776 138.56 619.036 138.77 618.416 139.19C617.796 139.59 617.486 140.17 617.486 140.93ZM647.849 137H649.949L643.529 153.38C642.949 154.86 642.119 156.02 641.039 156.86C639.979 157.72 638.789 158.1 637.469 158V156.14C639.269 156.34 640.639 155.3 641.579 153.02L641.969 152.09L635.249 137H637.349L642.989 149.57L647.849 137ZM664.326 150.11C662.806 151.61 660.946 152.36 658.746 152.36C656.546 152.36 654.676 151.61 653.136 150.11C651.616 148.59 650.856 146.72 650.856 144.5C650.856 142.28 651.616 140.42 653.136 138.92C654.676 137.4 656.546 136.64 658.746 136.64C660.946 136.64 662.806 137.4 664.326 138.92C665.866 140.42 666.636 142.28 666.636 144.5C666.636 146.72 665.866 148.59 664.326 150.11ZM654.546 148.73C655.686 149.87 657.086 150.44 658.746 150.44C660.406 150.44 661.806 149.87 662.946 148.73C664.086 147.57 664.656 146.16 664.656 144.5C664.656 142.84 664.086 141.44 662.946 140.3C661.806 139.14 660.406 138.56 658.746 138.56C657.086 138.56 655.686 139.14 654.546 140.3C653.406 141.44 652.836 142.84 652.836 144.5C652.836 146.16 653.406 147.57 654.546 148.73ZM680.51 137H682.49V152H680.51V149.66C679.39 151.46 677.71 152.36 675.47 152.36C673.65 152.36 672.21 151.81 671.15 150.71C670.11 149.59 669.59 148.09 669.59 146.21V137H671.57V146.21C671.57 147.55 671.92 148.59 672.62 149.33C673.34 150.07 674.35 150.44 675.65 150.44C677.09 150.44 678.26 149.99 679.16 149.09C680.06 148.17 680.51 146.76 680.51 144.86V137ZM688.658 139.49C689.578 137.67 691.158 136.76 693.398 136.76V138.68C692.038 138.68 690.908 139.08 690.008 139.88C689.108 140.68 688.658 141.94 688.658 143.66V152H686.678V137H688.658V139.49ZM719.602 136.64C721.282 136.64 722.632 137.18 723.652 138.26C724.692 139.34 725.212 140.8 725.212 142.64V152H723.232V142.64C723.232 141.34 722.892 140.34 722.212 139.64C721.552 138.92 720.672 138.56 719.572 138.56C718.332 138.56 717.322 138.98 716.542 139.82C715.782 140.64 715.402 141.93 715.402 143.69V152H713.422V142.64C713.422 141.32 713.102 140.31 712.462 139.61C711.842 138.91 710.992 138.56 709.912 138.56C708.712 138.56 707.692 138.98 706.852 139.82C706.012 140.66 705.592 141.95 705.592 143.69V152H703.612V137H705.592V139.19C706.672 137.49 708.202 136.64 710.182 136.64C712.342 136.64 713.862 137.55 714.742 139.37C715.822 137.55 717.442 136.64 719.602 136.64ZM731.051 133.4C730.771 133.68 730.431 133.82 730.031 133.82C729.631 133.82 729.291 133.68 729.011 133.4C728.731 133.12 728.591 132.78 728.591 132.38C728.591 131.98 728.731 131.64 729.011 131.36C729.291 131.08 729.631 130.94 730.031 130.94C730.431 130.94 730.771 131.08 731.051 131.36C731.331 131.64 731.471 131.98 731.471 132.38C731.471 132.78 731.331 133.12 731.051 133.4ZM729.041 152V137H731.021V152H729.041ZM742.243 136.64C744.063 136.64 745.493 137.2 746.533 138.32C747.593 139.42 748.123 140.91 748.123 142.79V152H746.143V142.79C746.143 141.45 745.783 140.41 745.063 139.67C744.363 138.93 743.363 138.56 742.063 138.56C740.623 138.56 739.453 139.02 738.553 139.94C737.653 140.84 737.203 142.24 737.203 144.14V152H735.223V137H737.203V139.34C738.323 137.54 740.003 136.64 742.243 136.64ZM764.852 131H766.832V152H764.852V149.06C763.472 151.26 761.452 152.36 758.792 152.36C756.652 152.36 754.822 151.6 753.302 150.08C751.802 148.56 751.052 146.7 751.052 144.5C751.052 142.3 751.802 140.44 753.302 138.92C754.822 137.4 756.652 136.64 758.792 136.64C761.452 136.64 763.472 137.74 764.852 139.94V131ZM754.742 148.73C755.882 149.87 757.282 150.44 758.942 150.44C760.602 150.44 762.002 149.87 763.142 148.73C764.282 147.57 764.852 146.16 764.852 144.5C764.852 142.84 764.282 141.44 763.142 140.3C762.002 139.14 760.602 138.56 758.942 138.56C757.282 138.56 755.882 139.14 754.742 140.3C753.602 141.44 753.032 142.84 753.032 144.5C753.032 146.16 753.602 147.57 754.742 148.73ZM778.524 152V130.1H780.504V152H778.524ZM791.635 136.64C793.855 136.64 795.645 137.43 797.005 139.01C798.385 140.57 799.075 142.42 799.075 144.56C799.075 144.78 799.055 145.09 799.015 145.49H785.845C786.045 147.01 786.685 148.22 787.765 149.12C788.865 150 790.215 150.44 791.815 150.44C792.955 150.44 793.935 150.21 794.755 149.75C795.595 149.27 796.225 148.65 796.645 147.89L798.385 148.91C797.725 149.97 796.825 150.81 795.685 151.43C794.545 152.05 793.245 152.36 791.785 152.36C789.425 152.36 787.505 151.62 786.025 150.14C784.545 148.66 783.805 146.78 783.805 144.5C783.805 142.26 784.535 140.39 785.995 138.89C787.455 137.39 789.335 136.64 791.635 136.64ZM791.635 138.56C790.075 138.56 788.765 139.03 787.705 139.97C786.665 140.89 786.045 142.09 785.845 143.57H797.035C796.835 141.99 796.225 140.76 795.205 139.88C794.185 139 792.995 138.56 791.635 138.56ZM809.736 138.92H805.416V148.01C805.416 148.83 805.576 149.42 805.896 149.78C806.216 150.12 806.696 150.3 807.336 150.32C807.976 150.32 808.776 150.3 809.736 150.26V152C807.636 152.32 806.056 152.17 804.996 151.55C803.956 150.93 803.436 149.75 803.436 148.01V138.92H800.286V137H803.436V133.4L805.416 132.8V137H809.736V138.92ZM813.687 140.93C813.687 141.61 813.987 142.15 814.587 142.55C815.187 142.95 815.917 143.26 816.777 143.48C817.637 143.7 818.497 143.95 819.357 144.23C820.217 144.49 820.947 144.94 821.547 145.58C822.147 146.2 822.447 147.02 822.447 148.04C822.447 149.32 821.937 150.36 820.917 151.16C819.917 151.96 818.617 152.36 817.017 152.36C815.577 152.36 814.347 152.04 813.327 151.4C812.327 150.76 811.627 149.93 811.227 148.91L812.907 147.92C813.187 148.7 813.687 149.32 814.407 149.78C815.147 150.22 816.017 150.44 817.017 150.44C817.997 150.44 818.817 150.25 819.477 149.87C820.137 149.47 820.467 148.86 820.467 148.04C820.467 147.36 820.167 146.82 819.567 146.42C818.967 146.02 818.237 145.71 817.377 145.49C816.517 145.27 815.657 145.03 814.797 144.77C813.937 144.49 813.207 144.04 812.607 143.42C812.007 142.78 811.707 141.95 811.707 140.93C811.707 139.71 812.187 138.69 813.147 137.87C814.127 137.05 815.357 136.64 816.837 136.64C818.057 136.64 819.127 136.92 820.047 137.48C820.967 138.02 821.647 138.76 822.087 139.7L820.437 140.66C819.857 139.26 818.657 138.56 816.837 138.56C815.977 138.56 815.237 138.77 814.617 139.19C813.997 139.59 813.687 140.17 813.687 140.93ZM844.05 137H846.15L839.73 153.38C839.15 154.86 838.32 156.02 837.24 156.86C836.18 157.72 834.99 158.1 833.67 158V156.14C835.47 156.34 836.84 155.3 837.78 153.02L838.17 152.09L831.45 137H833.55L839.19 149.57L844.05 137ZM860.527 150.11C859.007 151.61 857.147 152.36 854.947 152.36C852.747 152.36 850.877 151.61 849.337 150.11C847.817 148.59 847.057 146.72 847.057 144.5C847.057 142.28 847.817 140.42 849.337 138.92C850.877 137.4 852.747 136.64 854.947 136.64C857.147 136.64 859.007 137.4 860.527 138.92C862.067 140.42 862.837 142.28 862.837 144.5C862.837 146.72 862.067 148.59 860.527 150.11ZM850.747 148.73C851.887 149.87 853.287 150.44 854.947 150.44C856.607 150.44 858.007 149.87 859.147 148.73C860.287 147.57 860.857 146.16 860.857 144.5C860.857 142.84 860.287 141.44 859.147 140.3C858.007 139.14 856.607 138.56 854.947 138.56C853.287 138.56 851.887 139.14 850.747 140.3C849.607 141.44 849.037 142.84 849.037 144.5C849.037 146.16 849.607 147.57 850.747 148.73ZM876.711 137H878.691V152H876.711V149.66C875.591 151.46 873.911 152.36 871.671 152.36C869.851 152.36 868.411 151.81 867.351 150.71C866.311 149.59 865.791 148.09 865.791 146.21V137H867.771V146.21C867.771 147.55 868.121 148.59 868.821 149.33C869.541 150.07 870.551 150.44 871.851 150.44C873.291 150.44 874.461 149.99 875.361 149.09C876.261 148.17 876.711 146.76 876.711 144.86V137ZM885.399 151.82C885.079 152.14 884.689 152.3 884.229 152.3C883.769 152.3 883.379 152.14 883.059 151.82C882.739 151.5 882.579 151.11 882.579 150.65C882.579 150.19 882.739 149.8 883.059 149.48C883.379 149.16 883.769 149 884.229 149C884.689 149 885.079 149.16 885.399 149.48C885.719 149.8 885.879 150.19 885.879 150.65C885.879 151.11 885.719 151.5 885.399 151.82ZM902.183 152L896.093 131H898.313L903.503 149.15L908.963 131H911.423L916.883 149.15L922.073 131H924.293L918.203 152H915.683L910.193 133.76L904.703 152H902.183ZM933.727 136.64C935.547 136.64 936.977 137.2 938.017 138.32C939.077 139.42 939.607 140.91 939.607 142.79V152H937.627V142.79C937.627 141.45 937.267 140.41 936.547 139.67C935.847 138.93 934.847 138.56 933.547 138.56C932.107 138.56 930.937 139.02 930.037 139.94C929.137 140.84 928.687 142.24 928.687 144.14V152H926.707V131H928.687V139.34C929.807 137.54 931.487 136.64 933.727 136.64ZM956.336 137H958.316V152H956.336V149.06C954.956 151.26 952.936 152.36 950.276 152.36C948.136 152.36 946.306 151.6 944.786 150.08C943.286 148.56 942.536 146.7 942.536 144.5C942.536 142.3 943.286 140.44 944.786 138.92C946.306 137.4 948.136 136.64 950.276 136.64C952.936 136.64 954.956 137.74 956.336 139.94V137ZM946.226 148.73C947.366 149.87 948.766 150.44 950.426 150.44C952.086 150.44 953.486 149.87 954.626 148.73C955.766 147.57 956.336 146.16 956.336 144.5C956.336 142.84 955.766 141.44 954.626 140.3C953.486 139.14 952.086 138.56 950.426 138.56C948.766 138.56 947.366 139.14 946.226 140.3C945.086 141.44 944.516 142.84 944.516 144.5C944.516 146.16 945.086 147.57 946.226 148.73ZM970.458 138.92H966.138V148.01C966.138 148.83 966.298 149.42 966.618 149.78C966.938 150.12 967.418 150.3 968.058 150.32C968.698 150.32 969.498 150.3 970.458 150.26V152C968.358 152.32 966.778 152.17 965.718 151.55C964.678 150.93 964.158 149.75 964.158 148.01V138.92H961.008V137H964.158V133.4L966.138 132.8V137H970.458V138.92ZM109.9 185H112L105.58 201.38C105 202.86 104.17 204.02 103.09 204.86C102.03 205.72 100.84 206.1 99.52 206V204.14C101.32 204.34 102.69 203.3 103.63 201.02L104.02 200.09L97.3 185H99.4L105.04 197.57L109.9 185ZM126.377 198.11C124.857 199.61 122.997 200.36 120.797 200.36C118.597 200.36 116.727 199.61 115.187 198.11C113.667 196.59 112.907 194.72 112.907 192.5C112.907 190.28 113.667 188.42 115.187 186.92C116.727 185.4 118.597 184.64 120.797 184.64C122.997 184.64 124.857 185.4 126.377 186.92C127.917 188.42 128.687 190.28 128.687 192.5C128.687 194.72 127.917 196.59 126.377 198.11ZM116.597 196.73C117.737 197.87 119.137 198.44 120.797 198.44C122.457 198.44 123.857 197.87 124.997 196.73C126.137 195.57 126.707 194.16 126.707 192.5C126.707 190.84 126.137 189.44 124.997 188.3C123.857 187.14 122.457 186.56 120.797 186.56C119.137 186.56 117.737 187.14 116.597 188.3C115.457 189.44 114.887 190.84 114.887 192.5C114.887 194.16 115.457 195.57 116.597 196.73ZM142.56 185H144.54V200H142.56V197.66C141.44 199.46 139.76 200.36 137.52 200.36C135.7 200.36 134.26 199.81 133.2 198.71C132.16 197.59 131.64 196.09 131.64 194.21V185H133.62V194.21C133.62 195.55 133.97 196.59 134.67 197.33C135.39 198.07 136.4 198.44 137.7 198.44C139.14 198.44 140.31 197.99 141.21 197.09C142.11 196.17 142.56 194.76 142.56 192.86V185ZM164.269 184.64C166.409 184.64 168.229 185.4 169.729 186.92C171.249 188.44 172.009 190.3 172.009 192.5C172.009 194.7 171.249 196.56 169.729 198.08C168.229 199.6 166.409 200.36 164.269 200.36C161.609 200.36 159.589 199.26 158.209 197.06V200H156.229V179H158.209V187.94C159.589 185.74 161.609 184.64 164.269 184.64ZM159.919 196.73C161.059 197.87 162.459 198.44 164.119 198.44C165.779 198.44 167.179 197.87 168.319 196.73C169.459 195.57 170.029 194.16 170.029 192.5C170.029 190.84 169.459 189.44 168.319 188.3C167.179 187.14 165.779 186.56 164.119 186.56C162.459 186.56 161.059 187.14 159.919 188.3C158.779 189.44 158.209 190.84 158.209 192.5C158.209 194.16 158.779 195.57 159.919 196.73ZM182.231 184.64C184.451 184.64 186.241 185.43 187.601 187.01C188.981 188.57 189.671 190.42 189.671 192.56C189.671 192.78 189.651 193.09 189.611 193.49H176.441C176.641 195.01 177.281 196.22 178.361 197.12C179.461 198 180.811 198.44 182.411 198.44C183.551 198.44 184.531 198.21 185.351 197.75C186.191 197.27 186.821 196.65 187.241 195.89L188.981 196.91C188.321 197.97 187.421 198.81 186.281 199.43C185.141 200.05 183.841 200.36 182.381 200.36C180.021 200.36 178.101 199.62 176.621 198.14C175.141 196.66 174.401 194.78 174.401 192.5C174.401 190.26 175.131 188.39 176.591 186.89C178.051 185.39 179.931 184.64 182.231 184.64ZM182.231 186.56C180.671 186.56 179.361 187.03 178.301 187.97C177.261 188.89 176.641 190.09 176.441 191.57H187.631C187.431 189.99 186.821 188.76 185.801 187.88C184.781 187 183.591 186.56 182.231 186.56ZM192.821 200V178.1H194.801V200H192.821ZM201.012 181.4C200.732 181.68 200.392 181.82 199.992 181.82C199.592 181.82 199.252 181.68 198.972 181.4C198.692 181.12 198.552 180.78 198.552 180.38C198.552 179.98 198.692 179.64 198.972 179.36C199.252 179.08 199.592 178.94 199.992 178.94C200.392 178.94 200.732 179.08 201.012 179.36C201.292 179.64 201.432 179.98 201.432 180.38C201.432 180.78 201.292 181.12 201.012 181.4ZM199.002 200V185H200.982V200H199.002ZM212.114 184.64C214.334 184.64 216.124 185.43 217.484 187.01C218.864 188.57 219.554 190.42 219.554 192.56C219.554 192.78 219.534 193.09 219.494 193.49H206.324C206.524 195.01 207.164 196.22 208.244 197.12C209.344 198 210.694 198.44 212.294 198.44C213.434 198.44 214.414 198.21 215.234 197.75C216.074 197.27 216.704 196.65 217.124 195.89L218.864 196.91C218.204 197.97 217.304 198.81 216.164 199.43C215.024 200.05 213.724 200.36 212.264 200.36C209.904 200.36 207.984 199.62 206.504 198.14C205.024 196.66 204.284 194.78 204.284 192.5C204.284 190.26 205.014 188.39 206.474 186.89C207.934 185.39 209.814 184.64 212.114 184.64ZM212.114 186.56C210.554 186.56 209.244 187.03 208.184 187.97C207.144 188.89 206.524 190.09 206.324 191.57H217.514C217.314 189.99 216.704 188.76 215.684 187.88C214.664 187 213.474 186.56 212.114 186.56ZM232.918 185H235.018L228.868 200H226.468L220.318 185H222.418L227.668 197.93L232.918 185ZM243.755 184.64C245.975 184.64 247.765 185.43 249.125 187.01C250.505 188.57 251.195 190.42 251.195 192.56C251.195 192.78 251.175 193.09 251.135 193.49H237.965C238.165 195.01 238.805 196.22 239.885 197.12C240.985 198 242.335 198.44 243.935 198.44C245.075 198.44 246.055 198.21 246.875 197.75C247.715 197.27 248.345 196.65 248.765 195.89L250.505 196.91C249.845 197.97 248.945 198.81 247.805 199.43C246.665 200.05 245.365 200.36 243.905 200.36C241.545 200.36 239.625 199.62 238.145 198.14C236.665 196.66 235.925 194.78 235.925 192.5C235.925 190.26 236.655 188.39 238.115 186.89C239.575 185.39 241.455 184.64 243.755 184.64ZM243.755 186.56C242.195 186.56 240.885 187.03 239.825 187.97C238.785 188.89 238.165 190.09 237.965 191.57H249.155C248.955 189.99 248.345 188.76 247.325 187.88C246.305 187 245.115 186.56 243.755 186.56ZM256.443 197.45L254.643 204.2H252.843L254.043 197.45H256.443ZM269.83 187.49C270.75 185.67 272.33 184.76 274.57 184.76V186.68C273.21 186.68 272.08 187.08 271.18 187.88C270.28 188.68 269.83 189.94 269.83 191.66V200H267.85V185H269.83V187.49ZM283.305 184.64C285.525 184.64 287.315 185.43 288.675 187.01C290.055 188.57 290.745 190.42 290.745 192.56C290.745 192.78 290.725 193.09 290.685 193.49H277.515C277.715 195.01 278.355 196.22 279.435 197.12C280.535 198 281.885 198.44 283.485 198.44C284.625 198.44 285.605 198.21 286.425 197.75C287.265 197.27 287.895 196.65 288.315 195.89L290.055 196.91C289.395 197.97 288.495 198.81 287.355 199.43C286.215 200.05 284.915 200.36 283.455 200.36C281.095 200.36 279.175 199.62 277.695 198.14C276.215 196.66 275.475 194.78 275.475 192.5C275.475 190.26 276.205 188.39 277.665 186.89C279.125 185.39 281.005 184.64 283.305 184.64ZM283.305 186.56C281.745 186.56 280.435 187.03 279.375 187.97C278.335 188.89 277.715 190.09 277.515 191.57H288.705C288.505 189.99 287.895 188.76 286.875 187.88C285.855 187 284.665 186.56 283.305 186.56ZM309.885 184.64C311.565 184.64 312.915 185.18 313.935 186.26C314.975 187.34 315.495 188.8 315.495 190.64V200H313.515V190.64C313.515 189.34 313.175 188.34 312.495 187.64C311.835 186.92 310.955 186.56 309.855 186.56C308.615 186.56 307.605 186.98 306.825 187.82C306.065 188.64 305.685 189.93 305.685 191.69V200H303.705V190.64C303.705 189.32 303.385 188.31 302.745 187.61C302.125 186.91 301.275 186.56 300.195 186.56C298.995 186.56 297.975 186.98 297.135 187.82C296.295 188.66 295.875 189.95 295.875 191.69V200H293.895V185H295.875V187.19C296.955 185.49 298.485 184.64 300.465 184.64C302.625 184.64 304.145 185.55 305.025 187.37C306.105 185.55 307.725 184.64 309.885 184.64ZM326.255 184.64C328.475 184.64 330.265 185.43 331.625 187.01C333.005 188.57 333.695 190.42 333.695 192.56C333.695 192.78 333.675 193.09 333.635 193.49H320.465C320.665 195.01 321.305 196.22 322.385 197.12C323.485 198 324.835 198.44 326.435 198.44C327.575 198.44 328.555 198.21 329.375 197.75C330.215 197.27 330.845 196.65 331.265 195.89L333.005 196.91C332.345 197.97 331.445 198.81 330.305 199.43C329.165 200.05 327.865 200.36 326.405 200.36C324.045 200.36 322.125 199.62 320.645 198.14C319.165 196.66 318.425 194.78 318.425 192.5C318.425 190.26 319.155 188.39 320.615 186.89C322.075 185.39 323.955 184.64 326.255 184.64ZM326.255 186.56C324.695 186.56 323.385 187.03 322.325 187.97C321.285 188.89 320.665 190.09 320.465 191.57H331.655C331.455 189.99 330.845 188.76 329.825 187.88C328.805 187 327.615 186.56 326.255 186.56ZM352.834 184.64C354.514 184.64 355.864 185.18 356.884 186.26C357.924 187.34 358.444 188.8 358.444 190.64V200H356.464V190.64C356.464 189.34 356.124 188.34 355.444 187.64C354.784 186.92 353.904 186.56 352.804 186.56C351.564 186.56 350.554 186.98 349.774 187.82C349.014 188.64 348.634 189.93 348.634 191.69V200H346.654V190.64C346.654 189.32 346.334 188.31 345.694 187.61C345.074 186.91 344.224 186.56 343.144 186.56C341.944 186.56 340.924 186.98 340.084 187.82C339.244 188.66 338.824 189.95 338.824 191.69V200H336.844V185H338.824V187.19C339.904 185.49 341.434 184.64 343.414 184.64C345.574 184.64 347.094 185.55 347.974 187.37C349.054 185.55 350.674 184.64 352.834 184.64ZM370.314 184.64C372.454 184.64 374.274 185.4 375.774 186.92C377.294 188.44 378.054 190.3 378.054 192.5C378.054 194.7 377.294 196.56 375.774 198.08C374.274 199.6 372.454 200.36 370.314 200.36C367.654 200.36 365.634 199.26 364.254 197.06V200H362.274V179H364.254V187.94C365.634 185.74 367.654 184.64 370.314 184.64ZM365.964 196.73C367.104 197.87 368.504 198.44 370.164 198.44C371.824 198.44 373.224 197.87 374.364 196.73C375.504 195.57 376.074 194.16 376.074 192.5C376.074 190.84 375.504 189.44 374.364 188.3C373.224 187.14 371.824 186.56 370.164 186.56C368.504 186.56 367.104 187.14 365.964 188.3C364.824 189.44 364.254 190.84 364.254 192.5C364.254 194.16 364.824 195.57 365.964 196.73ZM388.276 184.64C390.496 184.64 392.286 185.43 393.646 187.01C395.026 188.57 395.716 190.42 395.716 192.56C395.716 192.78 395.696 193.09 395.656 193.49H382.486C382.686 195.01 383.326 196.22 384.406 197.12C385.506 198 386.856 198.44 388.456 198.44C389.596 198.44 390.576 198.21 391.396 197.75C392.236 197.27 392.866 196.65 393.286 195.89L395.026 196.91C394.366 197.97 393.466 198.81 392.326 199.43C391.186 200.05 389.886 200.36 388.426 200.36C386.066 200.36 384.146 199.62 382.666 198.14C381.186 196.66 380.446 194.78 380.446 192.5C380.446 190.26 381.176 188.39 382.636 186.89C384.096 185.39 385.976 184.64 388.276 184.64ZM388.276 186.56C386.716 186.56 385.406 187.03 384.346 187.97C383.306 188.89 382.686 190.09 382.486 191.57H393.676C393.476 189.99 392.866 188.76 391.846 187.88C390.826 187 389.636 186.56 388.276 186.56ZM400.846 187.49C401.766 185.67 403.346 184.76 405.586 184.76V186.68C404.226 186.68 403.096 187.08 402.196 187.88C401.296 188.68 400.846 189.94 400.846 191.66V200H398.866V185H400.846V187.49ZM409.49 197.45L407.69 204.2H405.89L407.09 197.45H409.49ZM431.697 185H433.797L427.377 201.38C426.797 202.86 425.967 204.02 424.887 204.86C423.827 205.72 422.637 206.1 421.317 206V204.14C423.117 204.34 424.487 203.3 425.427 201.02L425.817 200.09L419.097 185H421.197L426.837 197.57L431.697 185ZM448.174 198.11C446.654 199.61 444.794 200.36 442.594 200.36C440.394 200.36 438.524 199.61 436.984 198.11C435.464 196.59 434.704 194.72 434.704 192.5C434.704 190.28 435.464 188.42 436.984 186.92C438.524 185.4 440.394 184.64 442.594 184.64C444.794 184.64 446.654 185.4 448.174 186.92C449.714 188.42 450.484 190.28 450.484 192.5C450.484 194.72 449.714 196.59 448.174 198.11ZM438.394 196.73C439.534 197.87 440.934 198.44 442.594 198.44C444.254 198.44 445.654 197.87 446.794 196.73C447.934 195.57 448.504 194.16 448.504 192.5C448.504 190.84 447.934 189.44 446.794 188.3C445.654 187.14 444.254 186.56 442.594 186.56C440.934 186.56 439.534 187.14 438.394 188.3C437.254 189.44 436.684 190.84 436.684 192.5C436.684 194.16 437.254 195.57 438.394 196.73ZM464.357 185H466.337V200H464.357V197.66C463.237 199.46 461.557 200.36 459.317 200.36C457.497 200.36 456.057 199.81 454.997 198.71C453.957 197.59 453.437 196.09 453.437 194.21V185H455.417V194.21C455.417 195.55 455.767 196.59 456.467 197.33C457.187 198.07 458.197 198.44 459.497 198.44C460.937 198.44 462.107 197.99 463.007 197.09C463.907 196.17 464.357 194.76 464.357 192.86V185ZM485.016 200.36C482.756 200.36 480.876 199.61 479.376 198.11C477.876 196.59 477.126 194.72 477.126 192.5C477.126 190.28 477.876 188.42 479.376 186.92C480.876 185.4 482.756 184.64 485.016 184.64C486.496 184.64 487.826 185 489.006 185.72C490.186 186.42 491.046 187.37 491.586 188.57L489.966 189.5C489.566 188.6 488.916 187.89 488.016 187.37C487.136 186.83 486.136 186.56 485.016 186.56C483.356 186.56 481.956 187.14 480.816 188.3C479.676 189.44 479.106 190.84 479.106 192.5C479.106 194.16 479.676 195.57 480.816 196.73C481.956 197.87 483.356 198.44 485.016 198.44C486.136 198.44 487.136 198.18 488.016 197.66C488.896 197.12 489.586 196.4 490.086 195.5L491.736 196.46C491.116 197.66 490.206 198.61 489.006 199.31C487.806 200.01 486.476 200.36 485.016 200.36ZM507.332 185H509.312V200H507.332V197.06C505.952 199.26 503.932 200.36 501.272 200.36C499.132 200.36 497.302 199.6 495.782 198.08C494.282 196.56 493.532 194.7 493.532 192.5C493.532 190.3 494.282 188.44 495.782 186.92C497.302 185.4 499.132 184.64 501.272 184.64C503.932 184.64 505.952 185.74 507.332 187.94V185ZM497.222 196.73C498.362 197.87 499.762 198.44 501.422 198.44C503.082 198.44 504.482 197.87 505.622 196.73C506.762 195.57 507.332 194.16 507.332 192.5C507.332 190.84 506.762 189.44 505.622 188.3C504.482 187.14 503.082 186.56 501.422 186.56C499.762 186.56 498.362 187.14 497.222 188.3C496.082 189.44 495.512 190.84 495.512 192.5C495.512 194.16 496.082 195.57 497.222 196.73ZM520.524 184.64C522.344 184.64 523.774 185.2 524.814 186.32C525.874 187.42 526.404 188.91 526.404 190.79V200H524.424V190.79C524.424 189.45 524.064 188.41 523.344 187.67C522.644 186.93 521.644 186.56 520.344 186.56C518.904 186.56 517.734 187.02 516.834 187.94C515.934 188.84 515.484 190.24 515.484 192.14V200H513.504V185H515.484V187.34C516.604 185.54 518.284 184.64 520.524 184.64ZM550.633 185H552.613V200H550.633V197.06C549.253 199.26 547.233 200.36 544.573 200.36C542.433 200.36 540.603 199.6 539.083 198.08C537.583 196.56 536.833 194.7 536.833 192.5C536.833 190.3 537.583 188.44 539.083 186.92C540.603 185.4 542.433 184.64 544.573 184.64C547.233 184.64 549.253 185.74 550.633 187.94V185ZM540.523 196.73C541.663 197.87 543.063 198.44 544.723 198.44C546.383 198.44 547.783 197.87 548.923 196.73C550.063 195.57 550.633 194.16 550.633 192.5C550.633 190.84 550.063 189.44 548.923 188.3C547.783 187.14 546.383 186.56 544.723 186.56C543.063 186.56 541.663 187.14 540.523 188.3C539.383 189.44 538.813 190.84 538.813 192.5C538.813 194.16 539.383 195.57 540.523 196.73ZM563.795 200.36C561.535 200.36 559.655 199.61 558.155 198.11C556.655 196.59 555.905 194.72 555.905 192.5C555.905 190.28 556.655 188.42 558.155 186.92C559.655 185.4 561.535 184.64 563.795 184.64C565.275 184.64 566.605 185 567.785 185.72C568.965 186.42 569.825 187.37 570.365 188.57L568.745 189.5C568.345 188.6 567.695 187.89 566.795 187.37C565.915 186.83 564.915 186.56 563.795 186.56C562.135 186.56 560.735 187.14 559.595 188.3C558.455 189.44 557.885 190.84 557.885 192.5C557.885 194.16 558.455 195.57 559.595 196.73C560.735 197.87 562.135 198.44 563.795 198.44C564.915 198.44 565.915 198.18 566.795 197.66C567.675 197.12 568.365 196.4 568.865 195.5L570.515 196.46C569.895 197.66 568.985 198.61 567.785 199.31C566.585 200.01 565.255 200.36 563.795 200.36ZM580.378 184.64C582.198 184.64 583.628 185.2 584.668 186.32C585.728 187.42 586.258 188.91 586.258 190.79V200H584.278V190.79C584.278 189.45 583.918 188.41 583.198 187.67C582.498 186.93 581.498 186.56 580.198 186.56C578.758 186.56 577.588 187.02 576.688 187.94C575.788 188.84 575.338 190.24 575.338 192.14V200H573.358V179H575.338V187.34C576.458 185.54 578.138 184.64 580.378 184.64ZM592.096 181.4C591.816 181.68 591.476 181.82 591.076 181.82C590.676 181.82 590.336 181.68 590.056 181.4C589.776 181.12 589.636 180.78 589.636 180.38C589.636 179.98 589.776 179.64 590.056 179.36C590.336 179.08 590.676 178.94 591.076 178.94C591.476 178.94 591.816 179.08 592.096 179.36C592.376 179.64 592.516 179.98 592.516 180.38C592.516 180.78 592.376 181.12 592.096 181.4ZM590.086 200V185H592.066V200H590.086ZM603.198 184.64C605.418 184.64 607.208 185.43 608.568 187.01C609.948 188.57 610.638 190.42 610.638 192.56C610.638 192.78 610.618 193.09 610.578 193.49H597.408C597.608 195.01 598.248 196.22 599.328 197.12C600.428 198 601.778 198.44 603.378 198.44C604.518 198.44 605.498 198.21 606.318 197.75C607.158 197.27 607.788 196.65 608.208 195.89L609.948 196.91C609.288 197.97 608.388 198.81 607.248 199.43C606.108 200.05 604.808 200.36 603.348 200.36C600.988 200.36 599.068 199.62 597.588 198.14C596.108 196.66 595.368 194.78 595.368 192.5C595.368 190.26 596.098 188.39 597.558 186.89C599.018 185.39 600.898 184.64 603.198 184.64ZM603.198 186.56C601.638 186.56 600.328 187.03 599.268 187.97C598.228 188.89 597.608 190.09 597.408 191.57H608.598C608.398 189.99 607.788 188.76 606.768 187.88C605.748 187 604.558 186.56 603.198 186.56ZM624.002 185H626.102L619.952 200H617.552L611.402 185H613.502L618.752 197.93L624.002 185ZM634.839 184.64C637.059 184.64 638.849 185.43 640.209 187.01C641.589 188.57 642.279 190.42 642.279 192.56C642.279 192.78 642.259 193.09 642.219 193.49H629.049C629.249 195.01 629.889 196.22 630.969 197.12C632.069 198 633.419 198.44 635.019 198.44C636.159 198.44 637.139 198.21 637.959 197.75C638.799 197.27 639.429 196.65 639.849 195.89L641.589 196.91C640.929 197.97 640.029 198.81 638.889 199.43C637.749 200.05 636.449 200.36 634.989 200.36C632.629 200.36 630.709 199.62 629.229 198.14C627.749 196.66 627.009 194.78 627.009 192.5C627.009 190.26 627.739 188.39 629.199 186.89C630.659 185.39 632.539 184.64 634.839 184.64ZM634.839 186.56C633.279 186.56 631.969 187.03 630.909 187.97C629.869 188.89 629.249 190.09 629.049 191.57H640.239C640.039 189.99 639.429 188.76 638.409 187.88C637.389 187 636.199 186.56 634.839 186.56ZM646.747 199.82C646.427 200.14 646.037 200.3 645.577 200.3C645.117 200.3 644.727 200.14 644.407 199.82C644.087 199.5 643.927 199.11 643.927 198.65C643.927 198.19 644.087 197.8 644.407 197.48C644.727 197.16 645.117 197 645.577 197C646.037 197 646.427 197.16 646.747 197.48C647.067 197.8 647.227 198.19 647.227 198.65C647.227 199.11 647.067 199.5 646.747 199.82ZM654.441 179L652.641 185.75H650.841L652.041 179H654.441ZM658.641 179L656.841 185.75H655.041L656.241 179H658.641Z" fill="white"/>
<path d="M670.338 191.69V189.77H688.338V191.69H670.338ZM719.83 179V200H717.73V182.18L710.38 194.48H710.08L702.73 182.18V200H700.63V179H703.24L710.23 190.7L717.22 179H719.83ZM737.225 185H739.205V200H737.225V197.06C735.845 199.26 733.825 200.36 731.165 200.36C729.025 200.36 727.195 199.6 725.675 198.08C724.175 196.56 723.425 194.7 723.425 192.5C723.425 190.3 724.175 188.44 725.675 186.92C727.195 185.4 729.025 184.64 731.165 184.64C733.825 184.64 735.845 185.74 737.225 187.94V185ZM727.115 196.73C728.255 197.87 729.655 198.44 731.315 198.44C732.975 198.44 734.375 197.87 735.515 196.73C736.655 195.57 737.225 194.16 737.225 192.5C737.225 190.84 736.655 189.44 735.515 188.3C734.375 187.14 732.975 186.56 731.315 186.56C729.655 186.56 728.255 187.14 727.115 188.3C725.975 189.44 725.405 190.84 725.405 192.5C725.405 194.16 725.975 195.57 727.115 196.73ZM745.377 187.49C746.297 185.67 747.877 184.76 750.117 184.76V186.68C748.757 186.68 747.627 187.08 746.727 187.88C745.827 188.68 745.377 189.94 745.377 191.66V200H743.397V185H745.377V187.49ZM763.923 185H766.023L759.603 201.38C759.023 202.86 758.193 204.02 757.113 204.86C756.053 205.72 754.863 206.1 753.543 206V204.14C755.343 204.34 756.713 203.3 757.653 201.02L758.043 200.09L751.323 185H753.423L759.063 197.57L763.923 185ZM790.916 200H788.156L778.316 189.83V200H776.216V179H778.316V188.6L787.856 179H790.616L780.536 189.2L790.916 200ZM804.871 185H806.851V200H804.871V197.06C803.491 199.26 801.471 200.36 798.811 200.36C796.671 200.36 794.841 199.6 793.321 198.08C791.821 196.56 791.071 194.7 791.071 192.5C791.071 190.3 791.821 188.44 793.321 186.92C794.841 185.4 796.671 184.64 798.811 184.64C801.471 184.64 803.491 185.74 804.871 187.94V185ZM794.761 196.73C795.901 197.87 797.301 198.44 798.961 198.44C800.621 198.44 802.021 197.87 803.161 196.73C804.301 195.57 804.871 194.16 804.871 192.5C804.871 190.84 804.301 189.44 803.161 188.3C802.021 187.14 800.621 186.56 798.961 186.56C797.301 186.56 795.901 187.14 794.761 188.3C793.621 189.44 793.051 190.84 793.051 192.5C793.051 194.16 793.621 195.57 794.761 196.73ZM821.843 185H823.943L817.523 201.38C816.943 202.86 816.113 204.02 815.033 204.86C813.973 205.72 812.783 206.1 811.463 206V204.14C813.263 204.34 814.633 203.3 815.573 201.02L815.963 200.09L809.243 185H811.343L816.983 197.57L821.843 185ZM848.116 200L846.166 194.84H836.206L834.256 200H832.036L840.106 179H842.266L850.336 200H848.116ZM836.956 192.86H845.416L841.186 181.61L836.956 192.86ZM854.146 188.93C854.146 189.61 854.446 190.15 855.046 190.55C855.646 190.95 856.376 191.26 857.236 191.48C858.096 191.7 858.956 191.95 859.816 192.23C860.676 192.49 861.406 192.94 862.006 193.58C862.606 194.2 862.906 195.02 862.906 196.04C862.906 197.32 862.396 198.36 861.376 199.16C860.376 199.96 859.076 200.36 857.476 200.36C856.036 200.36 854.806 200.04 853.786 199.4C852.786 198.76 852.086 197.93 851.686 196.91L853.366 195.92C853.646 196.7 854.146 197.32 854.866 197.78C855.606 198.22 856.476 198.44 857.476 198.44C858.456 198.44 859.276 198.25 859.936 197.87C860.596 197.47 860.926 196.86 860.926 196.04C860.926 195.36 860.626 194.82 860.026 194.42C859.426 194.02 858.696 193.71 857.836 193.49C856.976 193.27 856.116 193.03 855.256 192.77C854.396 192.49 853.666 192.04 853.066 191.42C852.466 190.78 852.166 189.95 852.166 188.93C852.166 187.71 852.646 186.69 853.606 185.87C854.586 185.05 855.816 184.64 857.296 184.64C858.516 184.64 859.586 184.92 860.506 185.48C861.426 186.02 862.106 186.76 862.546 187.7L860.896 188.66C860.316 187.26 859.116 186.56 857.296 186.56C856.436 186.56 855.696 186.77 855.076 187.19C854.456 187.59 854.146 188.17 854.146 188.93ZM873.083 184.64C874.903 184.64 876.333 185.2 877.373 186.32C878.433 187.42 878.963 188.91 878.963 190.79V200H876.983V190.79C876.983 189.45 876.623 188.41 875.903 187.67C875.203 186.93 874.203 186.56 872.903 186.56C871.463 186.56 870.293 187.02 869.393 187.94C868.493 188.84 868.043 190.24 868.043 192.14V200H866.063V179H868.043V187.34C869.163 185.54 870.843 184.64 873.083 184.64Z" fill="#FCD54C"/>
</svg>
